# MagicaVoxel @ Ephtracy

# group
o 

# material
mtllib Flax (Stage 5).mtl
usemtl palette

# normals
vn -1 0 0
vn 1 0 0
vn 0 0 1
vn 0 0 -1
vn 0 -1 0
vn 0 1 0

# texcoords
vt 0.716797 0.5
vt 0.791016 0.5
vt 0.845703 0.5

# verts
v -0.2 0.1 0.1
v -0.2 0.1 0
v -0.2 0.2 0.1
v -0.2 0.2 0
v -0.2 0.4 0.1
v -0.2 0.4 0
v -0.2 0.5 0.1
v -0.2 0.5 0
v -0.1 0 0.1
v -0.1 0 0
v -0.1 0.1 0.1
v -0.1 0.1 0
v -0.1 0.2 0.1
v -0.1 0.2 0
v -0.1 0.3 0.1
v -0.1 0.3 0
v -0.1 0.4 0.1
v -0.1 0.4 0
v -0.1 0.5 0.1
v -0.1 0.5 0
v -0.1 0.6 0.1
v -0.1 0.6 0
v -7.45058e-009 0 0.1
v -7.45058e-009 0 0
v -7.45058e-009 0.1 0.1
v -7.45058e-009 0.1 0
v -7.45058e-009 0.2 0.1
v -7.45058e-009 0.2 0
v -7.45058e-009 0.3 0.1
v -7.45058e-009 0.3 0
v -7.45058e-009 0.4 0.1
v -7.45058e-009 0.4 0
v -7.45058e-009 0.5 0.1
v -7.45058e-009 0.5 0
v -7.45058e-009 0.6 0.1
v -7.45058e-009 0.6 0
v 0.1 0.1 0.1
v 0.1 0.1 0
v 0.1 0.2 0.1
v 0.1 0.2 0
v 0.1 0.4 0.1
v 0.1 0.4 0
v 0.1 0.5 0.1
v 0.1 0.5 0
v -0.2 0.1 0.1
v -0.2 0.2 0.1
v -0.2 0.4 0.1
v -0.2 0.5 0.1
v -0.1 0 0.1
v -0.1 0.1 0.1
v -0.1 0.2 0.1
v -0.1 0.3 0.1
v -0.1 0.4 0.1
v -0.1 0.5 0.1
v -0.1 0.6 0.1
v -7.45058e-009 0 0.1
v -7.45058e-009 0.1 0.1
v -7.45058e-009 0.2 0.1
v -7.45058e-009 0.3 0.1
v -7.45058e-009 0.4 0.1
v -7.45058e-009 0.5 0.1
v -7.45058e-009 0.6 0.1
v 0.1 0.1 0.1
v 0.1 0.2 0.1
v 0.1 0.4 0.1
v 0.1 0.5 0.1
v -0.2 0.1 0
v -0.2 0.2 0
v -0.2 0.4 0
v -0.2 0.5 0
v -0.1 0 0
v -0.1 0.1 0
v -0.1 0.2 0
v -0.1 0.3 0
v -0.1 0.4 0
v -0.1 0.5 0
v -0.1 0.6 0
v -7.45058e-009 0 0
v -7.45058e-009 0.1 0
v -7.45058e-009 0.2 0
v -7.45058e-009 0.3 0
v -7.45058e-009 0.4 0
v -7.45058e-009 0.5 0
v -7.45058e-009 0.6 0
v 0.1 0.1 0
v 0.1 0.2 0
v 0.1 0.4 0
v 0.1 0.5 0
v -0.1 0 0.1
v -7.45058e-009 0 0.1
v -0.1 0 0
v -7.45058e-009 0 0
v -0.2 0.1 0.1
v -0.1 0.1 0.1
v -7.45058e-009 0.1 0.1
v 0.1 0.1 0.1
v -0.2 0.1 0
v -0.1 0.1 0
v -7.45058e-009 0.1 0
v 0.1 0.1 0
v -0.2 0.4 0.1
v -0.1 0.4 0.1
v -7.45058e-009 0.4 0.1
v 0.1 0.4 0.1
v -0.2 0.4 0
v -0.1 0.4 0
v -7.45058e-009 0.4 0
v 0.1 0.4 0
v -0.2 0.2 0.1
v -0.1 0.2 0.1
v -7.45058e-009 0.2 0.1
v 0.1 0.2 0.1
v -0.2 0.2 0
v -0.1 0.2 0
v -7.45058e-009 0.2 0
v 0.1 0.2 0
v -0.2 0.5 0.1
v -0.1 0.5 0.1
v -7.45058e-009 0.5 0.1
v 0.1 0.5 0.1
v -0.2 0.5 0
v -0.1 0.5 0
v -7.45058e-009 0.5 0
v 0.1 0.5 0
v -0.1 0.6 0.1
v -7.45058e-009 0.6 0.1
v -0.1 0.6 0
v -7.45058e-009 0.6 0

# faces
f 3/2/1 2/2/1 1/2/1
f 4/2/1 2/2/1 3/2/1
f 7/1/1 6/1/1 5/1/1
f 8/1/1 6/1/1 7/1/1
f 11/2/1 10/2/1 9/2/1
f 12/2/1 10/2/1 11/2/1
f 15/2/1 14/2/1 13/2/1
f 16/2/1 14/2/1 15/2/1
f 17/1/1 16/1/1 15/1/1
f 18/1/1 16/1/1 17/1/1
f 21/1/1 20/1/1 19/1/1
f 22/1/1 20/1/1 21/1/1
f 23/2/2 24/2/2 25/2/2
f 25/2/2 24/2/2 26/2/2
f 27/2/2 28/2/2 29/2/2
f 29/2/2 28/2/2 30/2/2
f 29/1/2 30/1/2 31/1/2
f 31/1/2 30/1/2 32/1/2
f 33/1/2 34/1/2 35/1/2
f 35/1/2 34/1/2 36/1/2
f 37/2/2 38/2/2 39/2/2
f 39/2/2 38/2/2 40/2/2
f 41/1/2 42/1/2 43/1/2
f 43/1/2 42/1/2 44/1/2
f 50/2/3 46/2/3 45/2/3
f 51/2/3 46/2/3 50/2/3
f 53/1/3 48/1/3 47/1/3
f 54/1/3 48/1/3 53/1/3
f 56/2/3 52/2/3 51/2/3
f 56/2/3 50/2/3 49/2/3
f 56/2/3 51/2/3 50/2/3
f 57/2/3 52/2/3 56/2/3
f 58/2/3 52/2/3 57/2/3
f 59/1/3 53/1/3 52/1/3
f 59/2/3 52/2/3 58/2/3
f 60/3/3 54/3/3 53/3/3
f 60/1/3 53/1/3 59/1/3
f 61/1/3 55/1/3 54/1/3
f 61/3/3 54/3/3 60/3/3
f 62/1/3 55/1/3 61/1/3
f 63/2/3 58/2/3 57/2/3
f 64/2/3 58/2/3 63/2/3
f 65/1/3 61/1/3 60/1/3
f 66/1/3 61/1/3 65/1/3
f 67/2/4 68/2/4 72/2/4
f 72/2/4 68/2/4 73/2/4
f 69/1/4 70/1/4 75/1/4
f 75/1/4 70/1/4 76/1/4
f 73/2/4 74/2/4 78/2/4
f 71/2/4 72/2/4 78/2/4
f 72/2/4 73/2/4 78/2/4
f 78/2/4 74/2/4 79/2/4
f 79/2/4 74/2/4 80/2/4
f 74/1/4 75/1/4 81/1/4
f 80/2/4 74/2/4 81/2/4
f 75/3/4 76/3/4 82/3/4
f 81/1/4 75/1/4 82/1/4
f 76/1/4 77/1/4 83/1/4
f 82/3/4 76/3/4 83/3/4
f 83/1/4 77/1/4 84/1/4
f 79/2/4 80/2/4 85/2/4
f 85/2/4 80/2/4 86/2/4
f 82/1/4 83/1/4 87/1/4
f 87/1/4 83/1/4 88/1/4
f 91/2/5 90/2/5 89/2/5
f 92/2/5 90/2/5 91/2/5
f 97/2/5 94/2/5 93/2/5
f 98/2/5 94/2/5 97/2/5
f 99/2/5 96/2/5 95/2/5
f 100/2/5 96/2/5 99/2/5
f 105/1/5 102/1/5 101/1/5
f 106/1/5 102/1/5 105/1/5
f 107/1/5 104/1/5 103/1/5
f 108/1/5 104/1/5 107/1/5
f 109/2/6 110/2/6 113/2/6
f 113/2/6 110/2/6 114/2/6
f 111/2/6 112/2/6 115/2/6
f 115/2/6 112/2/6 116/2/6
f 117/1/6 118/1/6 121/1/6
f 121/1/6 118/1/6 122/1/6
f 119/1/6 120/1/6 123/1/6
f 123/1/6 120/1/6 124/1/6
f 125/1/6 126/1/6 127/1/6
f 127/1/6 126/1/6 128/1/6
