# MagicaVoxel @ Ephtracy

# group
o 

# material
mtllib Flax (Stage 4).mtl
usemtl palette

# normals
vn -1 0 0
vn 1 0 0
vn 0 0 1
vn 0 0 -1
vn 0 -1 0
vn 0 1 0

# texcoords
vt 0.716797 0.5
vt 0.791016 0.5
vt 0.845703 0.5

# verts
v -0.1 0 0.1
v -0.1 0 0
v -0.1 0.3 0.1
v -0.1 0.3 0
v -0.1 0.4 0.1
v -0.1 0.4 0
v -0.1 0.5 0.1
v -0.1 0.5 0
v -0.1 0.6 0.1
v -0.1 0.6 0
v 0 0 0.1
v 0 0 0
v 0 0.3 0.1
v 0 0.3 0
v 0 0.4 0.1
v 0 0.4 0
v 0 0.5 0.1
v 0 0.5 0
v 0 0.6 0.1
v 0 0.6 0
v -0.1 0 0.1
v -0.1 0.3 0.1
v -0.1 0.4 0.1
v -0.1 0.5 0.1
v -0.1 0.6 0.1
v 0 0 0.1
v 0 0.3 0.1
v 0 0.4 0.1
v 0 0.5 0.1
v 0 0.6 0.1
v -0.1 0 0
v -0.1 0.3 0
v -0.1 0.4 0
v -0.1 0.5 0
v -0.1 0.6 0
v 0 0 0
v 0 0.3 0
v 0 0.4 0
v 0 0.5 0
v 0 0.6 0
v -0.1 0 0.1
v 0 0 0.1
v -0.1 0 0
v 0 0 0
v -0.1 0.6 0.1
v 0 0.6 0.1
v -0.1 0.6 0
v 0 0.6 0

# faces
f 3/2/1 2/2/1 1/2/1
f 4/2/1 2/2/1 3/2/1
f 5/1/1 4/1/1 3/1/1
f 6/1/1 4/1/1 5/1/1
f 7/3/1 6/3/1 5/3/1
f 8/3/1 6/3/1 7/3/1
f 9/1/1 8/1/1 7/1/1
f 10/1/1 8/1/1 9/1/1
f 11/2/2 12/2/2 13/2/2
f 13/2/2 12/2/2 14/2/2
f 13/1/2 14/1/2 15/1/2
f 15/1/2 14/1/2 16/1/2
f 15/3/2 16/3/2 17/3/2
f 17/3/2 16/3/2 18/3/2
f 17/1/2 18/1/2 19/1/2
f 19/1/2 18/1/2 20/1/2
f 26/2/3 22/2/3 21/2/3
f 27/1/3 23/1/3 22/1/3
f 27/2/3 22/2/3 26/2/3
f 28/3/3 24/3/3 23/3/3
f 28/1/3 23/1/3 27/1/3
f 29/1/3 25/1/3 24/1/3
f 29/3/3 24/3/3 28/3/3
f 30/1/3 25/1/3 29/1/3
f 31/2/4 32/2/4 36/2/4
f 32/1/4 33/1/4 37/1/4
f 36/2/4 32/2/4 37/2/4
f 33/3/4 34/3/4 38/3/4
f 37/1/4 33/1/4 38/1/4
f 34/1/4 35/1/4 39/1/4
f 38/3/4 34/3/4 39/3/4
f 39/1/4 35/1/4 40/1/4
f 43/2/5 42/2/5 41/2/5
f 44/2/5 42/2/5 43/2/5
f 45/1/6 46/1/6 47/1/6
f 47/1/6 46/1/6 48/1/6
