# MagicaVoxel @ Ephtracy

# group
o 

# material
mtllib Grass3.mtl
usemtl palette

# normals
vn -1 0 0
vn 1 0 0
vn 0 0 1
vn 0 0 -1
vn 0 -1 0
vn 0 1 0

# texcoords
vt 0.119141 0.5
vt 0.123047 0.5
vt 0.548828 0.5
vt 0.552734 0.5

# verts
v 0.3 12.8 -0.9
v 0.3 12.8 -1
v 0.3 12.9 -0.9
v 0.3 12.9 -1
v 0.3 13 -0.9
v 0.3 13 -1
v 0.3 13.1 -0.9
v 0.3 13.1 -1
v 0.4 12.8 -0.3
v 0.4 12.8 -0.4
v 0.4 12.8 -1.2
v 0.4 12.8 -1.3
v 0.4 13 -0.3
v 0.4 13 -0.4
v 0.4 13 -1.2
v 0.4 13 -1.3
v 0.4 13.1 -0.3
v 0.4 13.1 -0.4
v 0.4 13.1 -1.2
v 0.4 13.1 -1.3
v 0.5 12.8 -0.7
v 0.5 12.8 -0.8
v 0.5 12.9 -0.7
v 0.5 12.9 -0.8
v 0.5 13 -0.7
v 0.5 13 -0.8
v 0.5 13.1 -0.7
v 0.5 13.1 -0.8
v 0.7 12.8 -0.3
v 0.7 12.8 -0.4
v 0.7 12.8 -0.5
v 0.7 12.8 -0.6
v 0.7 12.8 -1.1
v 0.7 12.8 -1.2
v 0.7 12.9 -0.5
v 0.7 12.9 -0.6
v 0.7 12.9 -1.1
v 0.7 12.9 -1.2
v 0.7 13 -0.3
v 0.7 13 -0.4
v 0.7 13 -0.5
v 0.7 13 -0.6
v 0.7 13 -1.1
v 0.7 13 -1.2
v 0.7 13.1 -0.3
v 0.7 13.1 -0.4
v 0.7 13.1 -1.1
v 0.7 13.1 -1.2
v 0.8 12.8 -0.7
v 0.8 12.8 -0.8
v 0.8 12.9 -0.7
v 0.8 12.9 -0.8
v 0.8 13 -0.7
v 0.8 13 -0.8
v 0.8 13.1 -0.7
v 0.8 13.1 -0.8
v 0.9 12.8 -0.3
v 0.9 12.8 -0.4
v 0.9 12.8 -1
v 0.9 12.8 -1.1
v 0.9 12.9 -0.3
v 0.9 12.9 -0.4
v 0.9 13 -0.3
v 0.9 13 -0.4
v 0.9 13 -1
v 0.9 13 -1.1
v 1.1 12.8 -1.1
v 1.1 12.8 -1.2
v 1.1 12.9 -1.1
v 1.1 12.9 -1.2
v 1.1 13 -1.1
v 1.1 13 -1.2
v 1.2 12.8 -0.2
v 1.2 12.8 -0.3
v 1.2 12.8 -0.6
v 1.2 12.8 -0.7
v 1.2 12.9 -0.6
v 1.2 12.9 -0.7
v 1.2 13 -0.2
v 1.2 13 -0.3
v 1.2 13 -0.6
v 1.2 13 -0.7
v 1.2 13.1 -0.2
v 1.2 13.1 -0.3
v 1.2 13.1 -0.6
v 1.2 13.1 -0.7
v 0.4 12.8 -0.9
v 0.4 12.8 -1
v 0.4 12.9 -0.9
v 0.4 12.9 -1
v 0.4 13 -0.9
v 0.4 13 -1
v 0.4 13.1 -0.9
v 0.4 13.1 -1
v 0.5 12.8 -0.3
v 0.5 12.8 -0.4
v 0.5 12.8 -1.2
v 0.5 12.8 -1.3
v 0.5 13 -0.3
v 0.5 13 -0.4
v 0.5 13 -1.2
v 0.5 13 -1.3
v 0.5 13.1 -0.3
v 0.5 13.1 -0.4
v 0.5 13.1 -1.2
v 0.5 13.1 -1.3
v 0.6 12.8 -0.7
v 0.6 12.8 -0.8
v 0.6 12.9 -0.7
v 0.6 12.9 -0.8
v 0.6 13 -0.7
v 0.6 13 -0.8
v 0.6 13.1 -0.7
v 0.6 13.1 -0.8
v 0.8 12.8 -0.3
v 0.8 12.8 -0.4
v 0.8 12.8 -0.5
v 0.8 12.8 -0.6
v 0.8 12.8 -1.1
v 0.8 12.8 -1.2
v 0.8 12.9 -0.5
v 0.8 12.9 -0.6
v 0.8 12.9 -1.1
v 0.8 12.9 -1.2
v 0.8 13 -0.3
v 0.8 13 -0.4
v 0.8 13 -0.5
v 0.8 13 -0.6
v 0.8 13 -1.1
v 0.8 13 -1.2
v 0.8 13.1 -0.3
v 0.8 13.1 -0.4
v 0.8 13.1 -1.1
v 0.8 13.1 -1.2
v 0.9 12.8 -0.7
v 0.9 12.8 -0.8
v 0.9 12.9 -0.7
v 0.9 12.9 -0.8
v 0.9 13 -0.7
v 0.9 13 -0.8
v 0.9 13.1 -0.7
v 0.9 13.1 -0.8
v 1 12.8 -0.3
v 1 12.8 -0.4
v 1 12.8 -1
v 1 12.8 -1.1
v 1 12.9 -0.3
v 1 12.9 -0.4
v 1 13 -0.3
v 1 13 -0.4
v 1 13 -1
v 1 13 -1.1
v 1.2 12.8 -1.1
v 1.2 12.8 -1.2
v 1.2 12.9 -1.1
v 1.2 12.9 -1.2
v 1.2 13 -1.1
v 1.2 13 -1.2
v 1.3 12.8 -0.2
v 1.3 12.8 -0.3
v 1.3 12.8 -0.6
v 1.3 12.8 -0.7
v 1.3 12.9 -0.6
v 1.3 12.9 -0.7
v 1.3 13 -0.2
v 1.3 13 -0.3
v 1.3 13 -0.6
v 1.3 13 -0.7
v 1.3 13.1 -0.2
v 1.3 13.1 -0.3
v 1.3 13.1 -0.6
v 1.3 13.1 -0.7
v 1.2 12.8 -0.2
v 1.2 13 -0.2
v 1.2 13.1 -0.2
v 1.3 12.8 -0.2
v 1.3 13 -0.2
v 1.3 13.1 -0.2
v 0.4 12.8 -0.3
v 0.4 13 -0.3
v 0.4 13.1 -0.3
v 0.5 12.8 -0.3
v 0.5 13 -0.3
v 0.5 13.1 -0.3
v 0.7 12.8 -0.3
v 0.7 13 -0.3
v 0.7 13.1 -0.3
v 0.8 12.8 -0.3
v 0.8 13 -0.3
v 0.8 13.1 -0.3
v 0.9 12.8 -0.3
v 0.9 12.9 -0.3
v 0.9 13 -0.3
v 1 12.8 -0.3
v 1 12.9 -0.3
v 1 13 -0.3
v 0.7 12.8 -0.5
v 0.7 12.9 -0.5
v 0.7 13 -0.5
v 0.8 12.8 -0.5
v 0.8 12.9 -0.5
v 0.8 13 -0.5
v 1.2 12.8 -0.6
v 1.2 12.9 -0.6
v 1.2 13 -0.6
v 1.2 13.1 -0.6
v 1.3 12.8 -0.6
v 1.3 12.9 -0.6
v 1.3 13 -0.6
v 1.3 13.1 -0.6
v 0.5 12.8 -0.7
v 0.5 12.9 -0.7
v 0.5 13 -0.7
v 0.5 13.1 -0.7
v 0.6 12.8 -0.7
v 0.6 12.9 -0.7
v 0.6 13 -0.7
v 0.6 13.1 -0.7
v 0.8 12.8 -0.7
v 0.8 12.9 -0.7
v 0.8 13 -0.7
v 0.8 13.1 -0.7
v 0.9 12.8 -0.7
v 0.9 12.9 -0.7
v 0.9 13 -0.7
v 0.9 13.1 -0.7
v 0.3 12.8 -0.9
v 0.3 12.9 -0.9
v 0.3 13 -0.9
v 0.3 13.1 -0.9
v 0.4 12.8 -0.9
v 0.4 12.9 -0.9
v 0.4 13 -0.9
v 0.4 13.1 -0.9
v 0.9 12.8 -1
v 0.9 13 -1
v 1 12.8 -1
v 1 13 -1
v 0.7 12.8 -1.1
v 0.7 12.9 -1.1
v 0.7 13 -1.1
v 0.7 13.1 -1.1
v 0.8 12.8 -1.1
v 0.8 12.9 -1.1
v 0.8 13 -1.1
v 0.8 13.1 -1.1
v 1.1 12.8 -1.1
v 1.1 12.9 -1.1
v 1.1 13 -1.1
v 1.2 12.8 -1.1
v 1.2 12.9 -1.1
v 1.2 13 -1.1
v 0.4 12.8 -1.2
v 0.4 13 -1.2
v 0.4 13.1 -1.2
v 0.5 12.8 -1.2
v 0.5 13 -1.2
v 0.5 13.1 -1.2
v 1.2 12.8 -0.3
v 1.2 13 -0.3
v 1.2 13.1 -0.3
v 1.3 12.8 -0.3
v 1.3 13 -0.3
v 1.3 13.1 -0.3
v 0.4 12.8 -0.4
v 0.4 13 -0.4
v 0.4 13.1 -0.4
v 0.5 12.8 -0.4
v 0.5 13 -0.4
v 0.5 13.1 -0.4
v 0.7 12.8 -0.4
v 0.7 13 -0.4
v 0.7 13.1 -0.4
v 0.8 12.8 -0.4
v 0.8 13 -0.4
v 0.8 13.1 -0.4
v 0.9 12.8 -0.4
v 0.9 12.9 -0.4
v 0.9 13 -0.4
v 1 12.8 -0.4
v 1 12.9 -0.4
v 1 13 -0.4
v 0.7 12.8 -0.6
v 0.7 12.9 -0.6
v 0.7 13 -0.6
v 0.8 12.8 -0.6
v 0.8 12.9 -0.6
v 0.8 13 -0.6
v 1.2 12.8 -0.7
v 1.2 12.9 -0.7
v 1.2 13 -0.7
v 1.2 13.1 -0.7
v 1.3 12.8 -0.7
v 1.3 12.9 -0.7
v 1.3 13 -0.7
v 1.3 13.1 -0.7
v 0.5 12.8 -0.8
v 0.5 12.9 -0.8
v 0.5 13 -0.8
v 0.5 13.1 -0.8
v 0.6 12.8 -0.8
v 0.6 12.9 -0.8
v 0.6 13 -0.8
v 0.6 13.1 -0.8
v 0.8 12.8 -0.8
v 0.8 12.9 -0.8
v 0.8 13 -0.8
v 0.8 13.1 -0.8
v 0.9 12.8 -0.8
v 0.9 12.9 -0.8
v 0.9 13 -0.8
v 0.9 13.1 -0.8
v 0.3 12.8 -1
v 0.3 12.9 -1
v 0.3 13 -1
v 0.3 13.1 -1
v 0.4 12.8 -1
v 0.4 12.9 -1
v 0.4 13 -1
v 0.4 13.1 -1
v 0.9 12.8 -1.1
v 0.9 13 -1.1
v 1 12.8 -1.1
v 1 13 -1.1
v 0.7 12.8 -1.2
v 0.7 12.9 -1.2
v 0.7 13 -1.2
v 0.7 13.1 -1.2
v 0.8 12.8 -1.2
v 0.8 12.9 -1.2
v 0.8 13 -1.2
v 0.8 13.1 -1.2
v 1.1 12.8 -1.2
v 1.1 12.9 -1.2
v 1.1 13 -1.2
v 1.2 12.8 -1.2
v 1.2 12.9 -1.2
v 1.2 13 -1.2
v 0.4 12.8 -1.3
v 0.4 13 -1.3
v 0.4 13.1 -1.3
v 0.5 12.8 -1.3
v 0.5 13 -1.3
v 0.5 13.1 -1.3
v 1.2 12.8 -0.2
v 1.3 12.8 -0.2
v 0.4 12.8 -0.3
v 0.5 12.8 -0.3
v 0.7 12.8 -0.3
v 0.8 12.8 -0.3
v 0.9 12.8 -0.3
v 1 12.8 -0.3
v 1.2 12.8 -0.3
v 1.3 12.8 -0.3
v 0.4 12.8 -0.4
v 0.5 12.8 -0.4
v 0.7 12.8 -0.4
v 0.8 12.8 -0.4
v 0.9 12.8 -0.4
v 1 12.8 -0.4
v 0.7 12.8 -0.5
v 0.8 12.8 -0.5
v 0.7 12.8 -0.6
v 0.8 12.8 -0.6
v 1.2 12.8 -0.6
v 1.3 12.8 -0.6
v 0.5 12.8 -0.7
v 0.6 12.8 -0.7
v 0.8 12.8 -0.7
v 0.9 12.8 -0.7
v 1.2 12.8 -0.7
v 1.3 12.8 -0.7
v 0.5 12.8 -0.8
v 0.6 12.8 -0.8
v 0.8 12.8 -0.8
v 0.9 12.8 -0.8
v 0.3 12.8 -0.9
v 0.4 12.8 -0.9
v 0.3 12.8 -1
v 0.4 12.8 -1
v 0.9 12.8 -1
v 1 12.8 -1
v 0.7 12.8 -1.1
v 0.8 12.8 -1.1
v 0.9 12.8 -1.1
v 1 12.8 -1.1
v 1.1 12.8 -1.1
v 1.2 12.8 -1.1
v 0.4 12.8 -1.2
v 0.5 12.8 -1.2
v 0.7 12.8 -1.2
v 0.8 12.8 -1.2
v 1.1 12.8 -1.2
v 1.2 12.8 -1.2
v 0.4 12.8 -1.3
v 0.5 12.8 -1.3
v 0.9 13 -0.3
v 1 13 -0.3
v 0.9 13 -0.4
v 1 13 -0.4
v 0.7 13 -0.5
v 0.8 13 -0.5
v 0.7 13 -0.6
v 0.8 13 -0.6
v 0.9 13 -1
v 1 13 -1
v 0.9 13 -1.1
v 1 13 -1.1
v 1.1 13 -1.1
v 1.2 13 -1.1
v 1.1 13 -1.2
v 1.2 13 -1.2
v 1.2 13.1 -0.2
v 1.3 13.1 -0.2
v 0.4 13.1 -0.3
v 0.5 13.1 -0.3
v 0.7 13.1 -0.3
v 0.8 13.1 -0.3
v 1.2 13.1 -0.3
v 1.3 13.1 -0.3
v 0.4 13.1 -0.4
v 0.5 13.1 -0.4
v 0.7 13.1 -0.4
v 0.8 13.1 -0.4
v 1.2 13.1 -0.6
v 1.3 13.1 -0.6
v 0.5 13.1 -0.7
v 0.6 13.1 -0.7
v 0.8 13.1 -0.7
v 0.9 13.1 -0.7
v 1.2 13.1 -0.7
v 1.3 13.1 -0.7
v 0.5 13.1 -0.8
v 0.6 13.1 -0.8
v 0.8 13.1 -0.8
v 0.9 13.1 -0.8
v 0.3 13.1 -0.9
v 0.4 13.1 -0.9
v 0.3 13.1 -1
v 0.4 13.1 -1
v 0.7 13.1 -1.1
v 0.8 13.1 -1.1
v 0.4 13.1 -1.2
v 0.5 13.1 -1.2
v 0.7 13.1 -1.2
v 0.8 13.1 -1.2
v 0.4 13.1 -1.3
v 0.5 13.1 -1.3

# faces
f 3/1/1 2/1/1 1/1/1
f 4/1/1 2/1/1 3/1/1
f 5/2/1 4/2/1 3/2/1
f 6/2/1 4/2/1 5/2/1
f 7/3/1 6/3/1 5/3/1
f 8/3/1 6/3/1 7/3/1
f 13/1/1 10/1/1 9/1/1
f 14/1/1 10/1/1 13/1/1
f 15/1/1 12/1/1 11/1/1
f 16/1/1 12/1/1 15/1/1
f 17/3/1 14/3/1 13/3/1
f 18/3/1 14/3/1 17/3/1
f 19/3/1 16/3/1 15/3/1
f 20/3/1 16/3/1 19/3/1
f 23/1/1 22/1/1 21/1/1
f 24/1/1 22/1/1 23/1/1
f 25/2/1 24/2/1 23/2/1
f 26/2/1 24/2/1 25/2/1
f 27/3/1 26/3/1 25/3/1
f 28/3/1 26/3/1 27/3/1
f 35/1/1 32/1/1 31/1/1
f 36/1/1 32/1/1 35/1/1
f 37/1/1 34/1/1 33/1/1
f 38/1/1 34/1/1 37/1/1
f 39/1/1 30/1/1 29/1/1
f 40/1/1 30/1/1 39/1/1
f 41/2/1 36/2/1 35/2/1
f 42/2/1 36/2/1 41/2/1
f 43/2/1 38/2/1 37/2/1
f 44/2/1 38/2/1 43/2/1
f 45/4/1 40/4/1 39/4/1
f 46/4/1 40/4/1 45/4/1
f 47/3/1 44/3/1 43/3/1
f 48/3/1 44/3/1 47/3/1
f 51/1/1 50/1/1 49/1/1
f 52/1/1 50/1/1 51/1/1
f 53/2/1 52/2/1 51/2/1
f 54/2/1 52/2/1 53/2/1
f 55/3/1 54/3/1 53/3/1
f 56/3/1 54/3/1 55/3/1
f 61/1/1 58/1/1 57/1/1
f 62/1/1 58/1/1 61/1/1
f 63/2/1 62/2/1 61/2/1
f 64/2/1 62/2/1 63/2/1
f 65/1/1 60/1/1 59/1/1
f 66/1/1 60/1/1 65/1/1
f 69/1/1 68/1/1 67/1/1
f 70/1/1 68/1/1 69/1/1
f 71/2/1 70/2/1 69/2/1
f 72/2/1 70/2/1 71/2/1
f 77/1/1 76/1/1 75/1/1
f 78/1/1 76/1/1 77/1/1
f 79/1/1 74/1/1 73/1/1
f 80/1/1 74/1/1 79/1/1
f 81/2/1 78/2/1 77/2/1
f 82/2/1 78/2/1 81/2/1
f 83/4/1 80/4/1 79/4/1
f 84/4/1 80/4/1 83/4/1
f 85/3/1 82/3/1 81/3/1
f 86/3/1 82/3/1 85/3/1
f 87/1/2 88/1/2 89/1/2
f 89/1/2 88/1/2 90/1/2
f 89/2/2 90/2/2 91/2/2
f 91/2/2 90/2/2 92/2/2
f 91/3/2 92/3/2 93/3/2
f 93/3/2 92/3/2 94/3/2
f 95/1/2 96/1/2 99/1/2
f 99/1/2 96/1/2 100/1/2
f 97/1/2 98/1/2 101/1/2
f 101/1/2 98/1/2 102/1/2
f 99/3/2 100/3/2 103/3/2
f 103/3/2 100/3/2 104/3/2
f 101/3/2 102/3/2 105/3/2
f 105/3/2 102/3/2 106/3/2
f 107/1/2 108/1/2 109/1/2
f 109/1/2 108/1/2 110/1/2
f 109/2/2 110/2/2 111/2/2
f 111/2/2 110/2/2 112/2/2
f 111/3/2 112/3/2 113/3/2
f 113/3/2 112/3/2 114/3/2
f 117/1/2 118/1/2 121/1/2
f 121/1/2 118/1/2 122/1/2
f 119/1/2 120/1/2 123/1/2
f 123/1/2 120/1/2 124/1/2
f 115/1/2 116/1/2 125/1/2
f 125/1/2 116/1/2 126/1/2
f 121/2/2 122/2/2 127/2/2
f 127/2/2 122/2/2 128/2/2
f 123/2/2 124/2/2 129/2/2
f 129/2/2 124/2/2 130/2/2
f 125/4/2 126/4/2 131/4/2
f 131/4/2 126/4/2 132/4/2
f 129/3/2 130/3/2 133/3/2
f 133/3/2 130/3/2 134/3/2
f 135/1/2 136/1/2 137/1/2
f 137/1/2 136/1/2 138/1/2
f 137/2/2 138/2/2 139/2/2
f 139/2/2 138/2/2 140/2/2
f 139/3/2 140/3/2 141/3/2
f 141/3/2 140/3/2 142/3/2
f 143/1/2 144/1/2 147/1/2
f 147/1/2 144/1/2 148/1/2
f 147/2/2 148/2/2 149/2/2
f 149/2/2 148/2/2 150/2/2
f 145/1/2 146/1/2 151/1/2
f 151/1/2 146/1/2 152/1/2
f 153/1/2 154/1/2 155/1/2
f 155/1/2 154/1/2 156/1/2
f 155/2/2 156/2/2 157/2/2
f 157/2/2 156/2/2 158/2/2
f 161/1/2 162/1/2 163/1/2
f 163/1/2 162/1/2 164/1/2
f 159/1/2 160/1/2 165/1/2
f 165/1/2 160/1/2 166/1/2
f 163/2/2 164/2/2 167/2/2
f 167/2/2 164/2/2 168/2/2
f 165/4/2 166/4/2 169/4/2
f 169/4/2 166/4/2 170/4/2
f 167/3/2 168/3/2 171/3/2
f 171/3/2 168/3/2 172/3/2
f 176/1/3 174/1/3 173/1/3
f 177/4/3 175/4/3 174/4/3
f 177/1/3 174/1/3 176/1/3
f 178/4/3 175/4/3 177/4/3
f 182/1/3 180/1/3 179/1/3
f 183/3/3 181/3/3 180/3/3
f 183/1/3 180/1/3 182/1/3
f 184/3/3 181/3/3 183/3/3
f 188/1/3 186/1/3 185/1/3
f 189/4/3 187/4/3 186/4/3
f 189/1/3 186/1/3 188/1/3
f 190/4/3 187/4/3 189/4/3
f 194/1/3 192/1/3 191/1/3
f 195/2/3 193/2/3 192/2/3
f 195/1/3 192/1/3 194/1/3
f 196/2/3 193/2/3 195/2/3
f 200/1/3 198/1/3 197/1/3
f 201/2/3 199/2/3 198/2/3
f 201/1/3 198/1/3 200/1/3
f 202/2/3 199/2/3 201/2/3
f 207/1/3 204/1/3 203/1/3
f 208/2/3 205/2/3 204/2/3
f 208/1/3 204/1/3 207/1/3
f 209/3/3 206/3/3 205/3/3
f 209/2/3 205/2/3 208/2/3
f 210/3/3 206/3/3 209/3/3
f 215/1/3 212/1/3 211/1/3
f 216/2/3 213/2/3 212/2/3
f 216/1/3 212/1/3 215/1/3
f 217/3/3 214/3/3 213/3/3
f 217/2/3 213/2/3 216/2/3
f 218/3/3 214/3/3 217/3/3
f 223/1/3 220/1/3 219/1/3
f 224/2/3 221/2/3 220/2/3
f 224/1/3 220/1/3 223/1/3
f 225/3/3 222/3/3 221/3/3
f 225/2/3 221/2/3 224/2/3
f 226/3/3 222/3/3 225/3/3
f 231/1/3 228/1/3 227/1/3
f 232/2/3 229/2/3 228/2/3
f 232/1/3 228/1/3 231/1/3
f 233/3/3 230/3/3 229/3/3
f 233/2/3 229/2/3 232/2/3
f 234/3/3 230/3/3 233/3/3
f 237/1/3 236/1/3 235/1/3
f 238/1/3 236/1/3 237/1/3
f 243/1/3 240/1/3 239/1/3
f 244/2/3 241/2/3 240/2/3
f 244/1/3 240/1/3 243/1/3
f 245/3/3 242/3/3 241/3/3
f 245/2/3 241/2/3 244/2/3
f 246/3/3 242/3/3 245/3/3
f 250/1/3 248/1/3 247/1/3
f 251/2/3 249/2/3 248/2/3
f 251/1/3 248/1/3 250/1/3
f 252/2/3 249/2/3 251/2/3
f 256/1/3 254/1/3 253/1/3
f 257/3/3 255/3/3 254/3/3
f 257/1/3 254/1/3 256/1/3
f 258/3/3 255/3/3 257/3/3
f 259/1/4 260/1/4 262/1/4
f 260/4/4 261/4/4 263/4/4
f 262/1/4 260/1/4 263/1/4
f 263/4/4 261/4/4 264/4/4
f 265/1/4 266/1/4 268/1/4
f 266/3/4 267/3/4 269/3/4
f 268/1/4 266/1/4 269/1/4
f 269/3/4 267/3/4 270/3/4
f 271/1/4 272/1/4 274/1/4
f 272/4/4 273/4/4 275/4/4
f 274/1/4 272/1/4 275/1/4
f 275/4/4 273/4/4 276/4/4
f 277/1/4 278/1/4 280/1/4
f 278/2/4 279/2/4 281/2/4
f 280/1/4 278/1/4 281/1/4
f 281/2/4 279/2/4 282/2/4
f 283/1/4 284/1/4 286/1/4
f 284/2/4 285/2/4 287/2/4
f 286/1/4 284/1/4 287/1/4
f 287/2/4 285/2/4 288/2/4
f 289/1/4 290/1/4 293/1/4
f 290/2/4 291/2/4 294/2/4
f 293/1/4 290/1/4 294/1/4
f 291/3/4 292/3/4 295/3/4
f 294/2/4 291/2/4 295/2/4
f 295/3/4 292/3/4 296/3/4
f 297/1/4 298/1/4 301/1/4
f 298/2/4 299/2/4 302/2/4
f 301/1/4 298/1/4 302/1/4
f 299/3/4 300/3/4 303/3/4
f 302/2/4 299/2/4 303/2/4
f 303/3/4 300/3/4 304/3/4
f 305/1/4 306/1/4 309/1/4
f 306/2/4 307/2/4 310/2/4
f 309/1/4 306/1/4 310/1/4
f 307/3/4 308/3/4 311/3/4
f 310/2/4 307/2/4 311/2/4
f 311/3/4 308/3/4 312/3/4
f 313/1/4 314/1/4 317/1/4
f 314/2/4 315/2/4 318/2/4
f 317/1/4 314/1/4 318/1/4
f 315/3/4 316/3/4 319/3/4
f 318/2/4 315/2/4 319/2/4
f 319/3/4 316/3/4 320/3/4
f 321/1/4 322/1/4 323/1/4
f 323/1/4 322/1/4 324/1/4
f 325/1/4 326/1/4 329/1/4
f 326/2/4 327/2/4 330/2/4
f 329/1/4 326/1/4 330/1/4
f 327/3/4 328/3/4 331/3/4
f 330/2/4 327/2/4 331/2/4
f 331/3/4 328/3/4 332/3/4
f 333/1/4 334/1/4 336/1/4
f 334/2/4 335/2/4 337/2/4
f 336/1/4 334/1/4 337/1/4
f 337/2/4 335/2/4 338/2/4
f 339/1/4 340/1/4 342/1/4
f 340/3/4 341/3/4 343/3/4
f 342/1/4 340/1/4 343/1/4
f 343/3/4 341/3/4 344/3/4
f 353/1/5 346/1/5 345/1/5
f 354/1/5 346/1/5 353/1/5
f 355/1/5 348/1/5 347/1/5
f 356/1/5 348/1/5 355/1/5
f 357/1/5 350/1/5 349/1/5
f 358/1/5 350/1/5 357/1/5
f 359/1/5 352/1/5 351/1/5
f 360/1/5 352/1/5 359/1/5
f 363/1/5 362/1/5 361/1/5
f 364/1/5 362/1/5 363/1/5
f 371/1/5 366/1/5 365/1/5
f 372/1/5 366/1/5 371/1/5
f 373/1/5 368/1/5 367/1/5
f 374/1/5 368/1/5 373/1/5
f 375/1/5 370/1/5 369/1/5
f 376/1/5 370/1/5 375/1/5
f 379/1/5 378/1/5 377/1/5
f 380/1/5 378/1/5 379/1/5
f 385/1/5 382/1/5 381/1/5
f 386/1/5 382/1/5 385/1/5
f 391/1/5 384/1/5 383/1/5
f 392/1/5 384/1/5 391/1/5
f 393/1/5 388/1/5 387/1/5
f 394/1/5 388/1/5 393/1/5
f 395/1/5 390/1/5 389/1/5
f 396/1/5 390/1/5 395/1/5
f 397/2/6 398/2/6 399/2/6
f 399/2/6 398/2/6 400/2/6
f 401/2/6 402/2/6 403/2/6
f 403/2/6 402/2/6 404/2/6
f 405/1/6 406/1/6 407/1/6
f 407/1/6 406/1/6 408/1/6
f 409/2/6 410/2/6 411/2/6
f 411/2/6 410/2/6 412/2/6
f 413/4/6 414/4/6 419/4/6
f 419/4/6 414/4/6 420/4/6
f 415/3/6 416/3/6 421/3/6
f 421/3/6 416/3/6 422/3/6
f 417/4/6 418/4/6 423/4/6
f 423/4/6 418/4/6 424/4/6
f 425/3/6 426/3/6 431/3/6
f 431/3/6 426/3/6 432/3/6
f 427/3/6 428/3/6 433/3/6
f 433/3/6 428/3/6 434/3/6
f 429/3/6 430/3/6 435/3/6
f 435/3/6 430/3/6 436/3/6
f 437/3/6 438/3/6 439/3/6
f 439/3/6 438/3/6 440/3/6
f 441/3/6 442/3/6 445/3/6
f 445/3/6 442/3/6 446/3/6
f 443/3/6 444/3/6 447/3/6
f 447/3/6 444/3/6 448/3/6
