# MagicaVoxel @ Ephtracy

# group
o 

# material
mtllib (6) Violet Flowers (Stage 6).mtl
usemtl palette

# normals
vn -1 0 0
vn 1 0 0
vn 0 0 1
vn 0 0 -1
vn 0 -1 0
vn 0 1 0

# texcoords
vt 0.587891 0.5
vt 0.603516 0.5
vt 0.787109 0.5

# verts
v -0.2 0.2 -0.1
v -0.2 0.2 -0.2
v -0.2 0.3 -0.1
v -0.2 0.3 -0.2
v -0.2 0.4 -0.1
v -0.2 0.4 -0.2
v -0.2 0.6 -0.1
v -0.2 0.6 -0.2
v -0.1 0 -0.1
v -0.1 0 -0.2
v -0.1 0.2 -0.1
v -0.1 0.2 -0.2
v -0.1 0.3 -0.1
v -0.1 0.3 -0.2
v -0.1 0.4 0
v -0.1 0.4 -0.1
v -0.1 0.4 -0.2
v -0.1 0.4 -0.3
v -0.1 0.6 0
v -0.1 0.6 -0.1
v -0.1 0.6 -0.2
v -0.1 0.6 -0.3
v -7.45058e-009 0.5 -0.1
v -7.45058e-009 0.5 -0.2
v -7.45058e-009 0.6 -0.1
v -7.45058e-009 0.6 -0.2
v -0.1 0.5 -0.1
v -0.1 0.5 -0.2
v -0.1 0.6 -0.1
v -0.1 0.6 -0.2
v -7.45058e-009 0 -0.1
v -7.45058e-009 0 -0.2
v -7.45058e-009 0.1 -0.1
v -7.45058e-009 0.1 -0.2
v -7.45058e-009 0.2 -0.1
v -7.45058e-009 0.2 -0.2
v -7.45058e-009 0.4 0
v -7.45058e-009 0.4 -0.1
v -7.45058e-009 0.4 -0.2
v -7.45058e-009 0.4 -0.3
v -7.45058e-009 0.6 0
v -7.45058e-009 0.6 -0.1
v -7.45058e-009 0.6 -0.2
v -7.45058e-009 0.6 -0.3
v 0.1 0.1 -0.1
v 0.1 0.1 -0.2
v 0.1 0.2 -0.1
v 0.1 0.2 -0.2
v 0.1 0.4 -0.1
v 0.1 0.4 -0.2
v 0.1 0.6 -0.1
v 0.1 0.6 -0.2
v -0.1 0.4 0
v -0.1 0.6 0
v -7.45058e-009 0.4 0
v -7.45058e-009 0.6 0
v -0.2 0.2 -0.1
v -0.2 0.3 -0.1
v -0.2 0.4 -0.1
v -0.2 0.6 -0.1
v -0.1 0 -0.1
v -0.1 0.2 -0.1
v -0.1 0.3 -0.1
v -0.1 0.4 -0.1
v -0.1 0.6 -0.1
v -7.45058e-009 0 -0.1
v -7.45058e-009 0.1 -0.1
v -7.45058e-009 0.2 -0.1
v -7.45058e-009 0.4 -0.1
v -7.45058e-009 0.6 -0.1
v 0.1 0.1 -0.1
v 0.1 0.2 -0.1
v 0.1 0.4 -0.1
v 0.1 0.6 -0.1
v -0.1 0.5 -0.2
v -0.1 0.6 -0.2
v -7.45058e-009 0.5 -0.2
v -7.45058e-009 0.6 -0.2
v -0.1 0.5 -0.1
v -0.1 0.6 -0.1
v -7.45058e-009 0.5 -0.1
v -7.45058e-009 0.6 -0.1
v -0.2 0.2 -0.2
v -0.2 0.3 -0.2
v -0.2 0.4 -0.2
v -0.2 0.6 -0.2
v -0.1 0 -0.2
v -0.1 0.2 -0.2
v -0.1 0.3 -0.2
v -0.1 0.4 -0.2
v -0.1 0.6 -0.2
v -7.45058e-009 0 -0.2
v -7.45058e-009 0.1 -0.2
v -7.45058e-009 0.2 -0.2
v -7.45058e-009 0.4 -0.2
v -7.45058e-009 0.6 -0.2
v 0.1 0.1 -0.2
v 0.1 0.2 -0.2
v 0.1 0.4 -0.2
v 0.1 0.6 -0.2
v -0.1 0.4 -0.3
v -0.1 0.6 -0.3
v -7.45058e-009 0.4 -0.3
v -7.45058e-009 0.6 -0.3
v -0.1 0 -0.1
v -7.45058e-009 0 -0.1
v -0.1 0 -0.2
v -7.45058e-009 0 -0.2
v -7.45058e-009 0.1 -0.1
v 0.1 0.1 -0.1
v -7.45058e-009 0.1 -0.2
v 0.1 0.1 -0.2
v -0.2 0.2 -0.1
v -0.1 0.2 -0.1
v -0.2 0.2 -0.2
v -0.1 0.2 -0.2
v -0.1 0.4 0
v -7.45058e-009 0.4 0
v -0.2 0.4 -0.1
v -0.1 0.4 -0.1
v -7.45058e-009 0.4 -0.1
v 0.1 0.4 -0.1
v -0.2 0.4 -0.2
v -0.1 0.4 -0.2
v -7.45058e-009 0.4 -0.2
v 0.1 0.4 -0.2
v -0.1 0.4 -0.3
v -7.45058e-009 0.4 -0.3
v -7.45058e-009 0.2 -0.1
v 0.1 0.2 -0.1
v -7.45058e-009 0.2 -0.2
v 0.1 0.2 -0.2
v -0.2 0.3 -0.1
v -0.1 0.3 -0.1
v -0.2 0.3 -0.2
v -0.1 0.3 -0.2
v -0.1 0.5 -0.1
v -7.45058e-009 0.5 -0.1
v -0.1 0.5 -0.2
v -7.45058e-009 0.5 -0.2
v -0.1 0.6 0
v -7.45058e-009 0.6 0
v -0.2 0.6 -0.1
v -0.1 0.6 -0.1
v -7.45058e-009 0.6 -0.1
v 0.1 0.6 -0.1
v -0.2 0.6 -0.2
v -0.1 0.6 -0.2
v -7.45058e-009 0.6 -0.2
v 0.1 0.6 -0.2
v -0.1 0.6 -0.3
v -7.45058e-009 0.6 -0.3

# faces
f 3/3/1 2/3/1 1/3/1
f 4/3/1 2/3/1 3/3/1
f 7/2/1 6/2/1 5/2/1
f 8/2/1 6/2/1 7/2/1
f 11/3/1 10/3/1 9/3/1
f 12/3/1 10/3/1 11/3/1
f 16/3/1 14/3/1 13/3/1
f 17/3/1 14/3/1 16/3/1
f 19/2/1 16/2/1 15/2/1
f 20/2/1 16/2/1 19/2/1
f 21/2/1 18/2/1 17/2/1
f 22/2/1 18/2/1 21/2/1
f 25/2/1 24/2/1 23/2/1
f 26/2/1 24/2/1 25/2/1
f 27/2/2 28/2/2 29/2/2
f 29/2/2 28/2/2 30/2/2
f 31/3/2 32/3/2 33/3/2
f 33/3/2 32/3/2 34/3/2
f 35/3/2 36/3/2 38/3/2
f 38/3/2 36/3/2 39/3/2
f 37/2/2 38/2/2 41/2/2
f 41/2/2 38/2/2 42/2/2
f 39/2/2 40/2/2 43/2/2
f 43/2/2 40/2/2 44/2/2
f 45/3/2 46/3/2 47/3/2
f 47/3/2 46/3/2 48/3/2
f 49/2/2 50/2/2 51/2/2
f 51/2/2 50/2/2 52/2/2
f 55/2/3 54/2/3 53/2/3
f 56/2/3 54/2/3 55/2/3
f 62/3/3 58/3/3 57/3/3
f 63/3/3 58/3/3 62/3/3
f 64/2/3 60/2/3 59/2/3
f 65/2/3 60/2/3 64/2/3
f 66/3/3 63/3/3 62/3/3
f 66/3/3 62/3/3 61/3/3
f 66/3/3 64/3/3 63/3/3
f 67/3/3 64/3/3 66/3/3
f 68/3/3 64/3/3 67/3/3
f 69/3/3 64/3/3 68/3/3
f 71/3/3 68/3/3 67/3/3
f 72/3/3 68/3/3 71/3/3
f 73/2/3 70/2/3 69/2/3
f 74/2/3 70/2/3 73/2/3
f 77/2/3 76/2/3 75/2/3
f 78/2/3 76/2/3 77/2/3
f 79/2/4 80/2/4 81/2/4
f 81/2/4 80/2/4 82/2/4
f 83/3/4 84/3/4 88/3/4
f 88/3/4 84/3/4 89/3/4
f 85/2/4 86/2/4 90/2/4
f 90/2/4 86/2/4 91/2/4
f 88/3/4 89/3/4 92/3/4
f 87/3/4 88/3/4 92/3/4
f 89/3/4 90/3/4 92/3/4
f 92/3/4 90/3/4 93/3/4
f 93/3/4 90/3/4 94/3/4
f 94/3/4 90/3/4 95/3/4
f 93/3/4 94/3/4 97/3/4
f 97/3/4 94/3/4 98/3/4
f 95/2/4 96/2/4 99/2/4
f 99/2/4 96/2/4 100/2/4
f 101/2/4 102/2/4 103/2/4
f 103/2/4 102/2/4 104/2/4
f 107/3/5 106/3/5 105/3/5
f 108/3/5 106/3/5 107/3/5
f 111/3/5 110/3/5 109/3/5
f 112/3/5 110/3/5 111/3/5
f 115/3/5 114/3/5 113/3/5
f 116/3/5 114/3/5 115/3/5
f 120/2/5 118/2/5 117/2/5
f 121/2/5 118/2/5 120/2/5
f 123/2/5 120/2/5 119/2/5
f 124/2/5 120/2/5 123/2/5
f 125/2/5 122/2/5 121/2/5
f 126/2/5 122/2/5 125/2/5
f 127/2/5 125/2/5 124/2/5
f 128/2/5 125/2/5 127/2/5
f 129/3/6 130/3/6 131/3/6
f 131/3/6 130/3/6 132/3/6
f 133/3/6 134/3/6 135/3/6
f 135/3/6 134/3/6 136/3/6
f 137/1/6 138/1/6 139/1/6
f 139/1/6 138/1/6 140/1/6
f 141/2/6 142/2/6 144/2/6
f 144/2/6 142/2/6 145/2/6
f 143/2/6 144/2/6 147/2/6
f 147/2/6 144/2/6 148/2/6
f 145/2/6 146/2/6 149/2/6
f 149/2/6 146/2/6 150/2/6
f 148/2/6 149/2/6 151/2/6
f 151/2/6 149/2/6 152/2/6
