# MagicaVoxel @ Ephtracy

# group
o 

# material
mtllib (6) Violet Flowers (Stage 5).mtl
usemtl palette

# normals
vn -1 0 0
vn 1 0 0
vn 0 0 1
vn 0 0 -1
vn 0 -1 0
vn 0 1 0

# texcoords
vt 0.587891 0.5
vt 0.603516 0.5
vt 0.787109 0.5

# verts
v -0.2 0.2 -0.1
v -0.2 0.2 -0.2
v -0.2 0.3 -0.1
v -0.2 0.3 -0.2
v -0.2 0.4 -0.1
v -0.2 0.4 -0.2
v -0.2 0.5 -0.1
v -0.2 0.5 -0.2
v -0.1 0 -0.1
v -0.1 0 -0.2
v -0.1 0.2 -0.1
v -0.1 0.2 -0.2
v -0.1 0.3 -0.1
v -0.1 0.3 -0.2
v -0.1 0.4 0
v -0.1 0.4 -0.1
v -0.1 0.4 -0.2
v -0.1 0.4 -0.3
v -0.1 0.5 0
v -0.1 0.5 -0.1
v -0.1 0.5 -0.2
v -0.1 0.5 -0.3
v -7.45058e-009 0 -0.1
v -7.45058e-009 0 -0.2
v -7.45058e-009 0.1 -0.1
v -7.45058e-009 0.1 -0.2
v -7.45058e-009 0.2 -0.1
v -7.45058e-009 0.2 -0.2
v -7.45058e-009 0.4 0
v -7.45058e-009 0.4 -0.1
v -7.45058e-009 0.4 -0.2
v -7.45058e-009 0.4 -0.3
v -7.45058e-009 0.5 0
v -7.45058e-009 0.5 -0.1
v -7.45058e-009 0.5 -0.2
v -7.45058e-009 0.5 -0.3
v 0.1 0.1 -0.1
v 0.1 0.1 -0.2
v 0.1 0.2 -0.1
v 0.1 0.2 -0.2
v 0.1 0.4 -0.1
v 0.1 0.4 -0.2
v 0.1 0.5 -0.1
v 0.1 0.5 -0.2
v -0.1 0.4 0
v -0.1 0.5 0
v -7.45058e-009 0.4 0
v -7.45058e-009 0.5 0
v -0.2 0.2 -0.1
v -0.2 0.3 -0.1
v -0.2 0.4 -0.1
v -0.2 0.5 -0.1
v -0.1 0 -0.1
v -0.1 0.2 -0.1
v -0.1 0.3 -0.1
v -0.1 0.4 -0.1
v -0.1 0.5 -0.1
v -7.45058e-009 0 -0.1
v -7.45058e-009 0.1 -0.1
v -7.45058e-009 0.2 -0.1
v -7.45058e-009 0.4 -0.1
v -7.45058e-009 0.5 -0.1
v 0.1 0.1 -0.1
v 0.1 0.2 -0.1
v 0.1 0.4 -0.1
v 0.1 0.5 -0.1
v -0.2 0.2 -0.2
v -0.2 0.3 -0.2
v -0.2 0.4 -0.2
v -0.2 0.5 -0.2
v -0.1 0 -0.2
v -0.1 0.2 -0.2
v -0.1 0.3 -0.2
v -0.1 0.4 -0.2
v -0.1 0.5 -0.2
v -7.45058e-009 0 -0.2
v -7.45058e-009 0.1 -0.2
v -7.45058e-009 0.2 -0.2
v -7.45058e-009 0.4 -0.2
v -7.45058e-009 0.5 -0.2
v 0.1 0.1 -0.2
v 0.1 0.2 -0.2
v 0.1 0.4 -0.2
v 0.1 0.5 -0.2
v -0.1 0.4 -0.3
v -0.1 0.5 -0.3
v -7.45058e-009 0.4 -0.3
v -7.45058e-009 0.5 -0.3
v -0.1 0 -0.1
v -7.45058e-009 0 -0.1
v -0.1 0 -0.2
v -7.45058e-009 0 -0.2
v -7.45058e-009 0.1 -0.1
v 0.1 0.1 -0.1
v -7.45058e-009 0.1 -0.2
v 0.1 0.1 -0.2
v -0.2 0.2 -0.1
v -0.1 0.2 -0.1
v -0.2 0.2 -0.2
v -0.1 0.2 -0.2
v -0.1 0.4 0
v -7.45058e-009 0.4 0
v -0.2 0.4 -0.1
v -0.1 0.4 -0.1
v -7.45058e-009 0.4 -0.1
v 0.1 0.4 -0.1
v -0.2 0.4 -0.2
v -0.1 0.4 -0.2
v -7.45058e-009 0.4 -0.2
v 0.1 0.4 -0.2
v -0.1 0.4 -0.3
v -7.45058e-009 0.4 -0.3
v -7.45058e-009 0.2 -0.1
v 0.1 0.2 -0.1
v -7.45058e-009 0.2 -0.2
v 0.1 0.2 -0.2
v -0.2 0.3 -0.1
v -0.1 0.3 -0.1
v -0.2 0.3 -0.2
v -0.1 0.3 -0.2
v -0.1 0.5 0
v -7.45058e-009 0.5 0
v -0.2 0.5 -0.1
v -0.1 0.5 -0.1
v -7.45058e-009 0.5 -0.1
v 0.1 0.5 -0.1
v -0.2 0.5 -0.2
v -0.1 0.5 -0.2
v -7.45058e-009 0.5 -0.2
v 0.1 0.5 -0.2
v -0.1 0.5 -0.3
v -7.45058e-009 0.5 -0.3

# faces
f 3/3/1 2/3/1 1/3/1
f 4/3/1 2/3/1 3/3/1
f 7/2/1 6/2/1 5/2/1
f 8/2/1 6/2/1 7/2/1
f 11/3/1 10/3/1 9/3/1
f 12/3/1 10/3/1 11/3/1
f 16/3/1 14/3/1 13/3/1
f 17/3/1 14/3/1 16/3/1
f 19/2/1 16/2/1 15/2/1
f 20/2/1 16/2/1 19/2/1
f 21/2/1 18/2/1 17/2/1
f 22/2/1 18/2/1 21/2/1
f 23/3/2 24/3/2 25/3/2
f 25/3/2 24/3/2 26/3/2
f 27/3/2 28/3/2 30/3/2
f 30/3/2 28/3/2 31/3/2
f 29/2/2 30/2/2 33/2/2
f 33/2/2 30/2/2 34/2/2
f 31/2/2 32/2/2 35/2/2
f 35/2/2 32/2/2 36/2/2
f 37/3/2 38/3/2 39/3/2
f 39/3/2 38/3/2 40/3/2
f 41/2/2 42/2/2 43/2/2
f 43/2/2 42/2/2 44/2/2
f 47/2/3 46/2/3 45/2/3
f 48/2/3 46/2/3 47/2/3
f 54/3/3 50/3/3 49/3/3
f 55/3/3 50/3/3 54/3/3
f 56/2/3 52/2/3 51/2/3
f 57/2/3 52/2/3 56/2/3
f 58/3/3 55/3/3 54/3/3
f 58/3/3 54/3/3 53/3/3
f 58/3/3 56/3/3 55/3/3
f 59/3/3 56/3/3 58/3/3
f 60/3/3 56/3/3 59/3/3
f 61/3/3 56/3/3 60/3/3
f 63/3/3 60/3/3 59/3/3
f 64/3/3 60/3/3 63/3/3
f 65/2/3 62/2/3 61/2/3
f 66/2/3 62/2/3 65/2/3
f 67/3/4 68/3/4 72/3/4
f 72/3/4 68/3/4 73/3/4
f 69/2/4 70/2/4 74/2/4
f 74/2/4 70/2/4 75/2/4
f 72/3/4 73/3/4 76/3/4
f 71/3/4 72/3/4 76/3/4
f 73/3/4 74/3/4 76/3/4
f 76/3/4 74/3/4 77/3/4
f 77/3/4 74/3/4 78/3/4
f 78/3/4 74/3/4 79/3/4
f 77/3/4 78/3/4 81/3/4
f 81/3/4 78/3/4 82/3/4
f 79/2/4 80/2/4 83/2/4
f 83/2/4 80/2/4 84/2/4
f 85/2/4 86/2/4 87/2/4
f 87/2/4 86/2/4 88/2/4
f 91/3/5 90/3/5 89/3/5
f 92/3/5 90/3/5 91/3/5
f 95/3/5 94/3/5 93/3/5
f 96/3/5 94/3/5 95/3/5
f 99/3/5 98/3/5 97/3/5
f 100/3/5 98/3/5 99/3/5
f 104/2/5 102/2/5 101/2/5
f 105/2/5 102/2/5 104/2/5
f 107/2/5 104/2/5 103/2/5
f 108/2/5 104/2/5 107/2/5
f 109/2/5 106/2/5 105/2/5
f 110/2/5 106/2/5 109/2/5
f 111/2/5 109/2/5 108/2/5
f 112/2/5 109/2/5 111/2/5
f 113/3/6 114/3/6 115/3/6
f 115/3/6 114/3/6 116/3/6
f 117/3/6 118/3/6 119/3/6
f 119/3/6 118/3/6 120/3/6
f 121/2/6 122/2/6 124/2/6
f 124/2/6 122/2/6 125/2/6
f 123/2/6 124/2/6 127/2/6
f 124/1/6 125/1/6 128/1/6
f 127/2/6 124/2/6 128/2/6
f 125/2/6 126/2/6 129/2/6
f 128/1/6 125/1/6 129/1/6
f 129/2/6 126/2/6 130/2/6
f 128/2/6 129/2/6 131/2/6
f 131/2/6 129/2/6 132/2/6
