# MagicaVoxel @ Ephtracy

# group
o 

# material
mtllib (0) Sunflower (Stage 6).mtl
usemtl palette

# normals
vn -1 0 0
vn 1 0 0
vn 0 0 1
vn 0 0 -1
vn 0 -1 0
vn 0 1 0

# texcoords
vt 0.794922 0.5
vt 0.845703 0.5
vt 0.869141 0.5
vt 0.931641 0.5

# verts
v -0.4 1 0.3
v -0.4 1 -7.45058e-009
v -0.4 1.1 0.3
v -0.4 1.1 -7.45058e-009
v -0.3 0.1 0.2
v -0.3 0.1 0.1
v -0.3 0.2 0.2
v -0.3 0.2 0.1
v -0.3 0.5 0.2
v -0.3 0.5 0.1
v -0.3 0.6 0.2
v -0.3 0.6 0.1
v -0.3 1 0.4
v -0.3 1 0.3
v -0.3 1 -7.45058e-009
v -0.3 1 -0.1
v -0.3 1.1 0.4
v -0.3 1.1 0.3
v -0.3 1.1 -7.45058e-009
v -0.3 1.1 -0.1
v -0.2 0 0.3
v -0.2 0 -7.45058e-009
v -0.2 0.1 0.3
v -0.2 0.1 0.2
v -0.2 0.1 0.1
v -0.2 0.1 -7.45058e-009
v -0.2 0.2 0.2
v -0.2 0.2 0.1
v -0.2 0.2 -7.45058e-009
v -0.2 0.3 0.1
v -0.2 0.3 -7.45058e-009
v -0.2 0.4 0.3
v -0.2 0.4 0.2
v -0.2 0.5 0.3
v -0.2 0.5 0.2
v -0.2 0.5 0.1
v -0.2 0.6 0.2
v -0.2 0.6 0.1
v -0.2 0.7 0.1
v -0.2 0.7 -7.45058e-009
v -0.2 0.8 0.3
v -0.2 0.8 0.2
v -0.2 0.8 0.1
v -0.2 0.8 -7.45058e-009
v -0.2 0.9 0.3
v -0.2 0.9 0.2
v -0.2 1 0.2
v -0.2 1 0.1
v -0.1 0 0.3
v -0.1 0 0.2
v -0.1 0 0.1
v -0.1 0 -7.45058e-009
v -0.1 0.1 0.3
v -0.1 0.1 0.2
v -0.1 0.1 0.1
v -0.1 0.1 -7.45058e-009
v -0.1 0.2 0.1
v -0.1 0.2 -7.45058e-009
v -0.1 0.3 0.2
v -0.1 0.3 0.1
v -0.1 0.3 -7.45058e-009
v -0.1 0.4 0.3
v -0.1 0.4 0.2
v -0.1 0.4 0.1
v -0.1 0.5 0.3
v -0.1 0.5 0.2
v -0.1 0.6 0.2
v -0.1 0.6 0.1
v -0.1 0.7 0.2
v -0.1 0.7 0.1
v -0.1 0.7 -7.45058e-009
v -0.1 0.8 0.3
v -0.1 0.8 0.2
v -0.1 0.8 0.1
v -0.1 0.8 -7.45058e-009
v -0.1 0.9 0.3
v -0.1 0.9 0.2
v -0.1 1 0.2
v -0.1 1 0.1
v 7.45058e-009 0 0.2
v 7.45058e-009 0 0.1
v 7.45058e-009 0.1 0.2
v 7.45058e-009 0.1 0.1
v 7.45058e-009 0.3 0.2
v 7.45058e-009 0.3 0.1
v 7.45058e-009 0.4 0.2
v 7.45058e-009 0.4 0.1
v 7.45058e-009 0.6 0.2
v 7.45058e-009 0.6 0.1
v 7.45058e-009 0.7 0.2
v 7.45058e-009 0.7 0.1
v 7.45058e-009 1 0.4
v 7.45058e-009 1 0.3
v 7.45058e-009 1 -7.45058e-009
v 7.45058e-009 1 -0.1
v 7.45058e-009 1.1 0.4
v 7.45058e-009 1.1 0.3
v 7.45058e-009 1.1 -7.45058e-009
v 7.45058e-009 1.1 -0.1
v 0.1 1 0.3
v 0.1 1 -7.45058e-009
v 0.1 1.1 0.3
v 0.1 1.1 -7.45058e-009
v -0.3 1 0.4
v -0.3 1.1 0.4
v 7.45058e-009 1 0.4
v 7.45058e-009 1.1 0.4
v -0.4 1 0.3
v -0.4 1.1 0.3
v -0.3 1 0.3
v -0.3 1.1 0.3
v -0.2 0 0.3
v -0.2 0.1 0.3
v -0.2 0.4 0.3
v -0.2 0.5 0.3
v -0.2 0.8 0.3
v -0.2 0.9 0.3
v -0.1 0 0.3
v -0.1 0.1 0.3
v -0.1 0.4 0.3
v -0.1 0.5 0.3
v -0.1 0.8 0.3
v -0.1 0.9 0.3
v 7.45058e-009 1 0.3
v 7.45058e-009 1.1 0.3
v 0.1 1 0.3
v 0.1 1.1 0.3
v -0.3 0.1 0.2
v -0.3 0.2 0.2
v -0.3 0.5 0.2
v -0.3 0.6 0.2
v -0.2 0.1 0.2
v -0.2 0.2 0.2
v -0.2 0.4 0.2
v -0.2 0.5 0.2
v -0.2 0.6 0.2
v -0.2 0.8 0.2
v -0.2 0.9 0.2
v -0.2 1 0.2
v -0.1 0 0.2
v -0.1 0.1 0.2
v -0.1 0.3 0.2
v -0.1 0.4 0.2
v -0.1 0.5 0.2
v -0.1 0.6 0.2
v -0.1 0.7 0.2
v -0.1 0.8 0.2
v -0.1 0.9 0.2
v -0.1 1 0.2
v 7.45058e-009 0 0.2
v 7.45058e-009 0.1 0.2
v 7.45058e-009 0.3 0.2
v 7.45058e-009 0.4 0.2
v 7.45058e-009 0.6 0.2
v 7.45058e-009 0.7 0.2
v -0.3 0.1 0.1
v -0.3 0.2 0.1
v -0.3 0.5 0.1
v -0.3 0.6 0.1
v -0.2 0.1 0.1
v -0.2 0.2 0.1
v -0.2 0.3 0.1
v -0.2 0.5 0.1
v -0.2 0.6 0.1
v -0.2 0.7 0.1
v -0.2 0.8 0.1
v -0.2 1 0.1
v -0.1 0 0.1
v -0.1 0.1 0.1
v -0.1 0.2 0.1
v -0.1 0.3 0.1
v -0.1 0.4 0.1
v -0.1 0.6 0.1
v -0.1 0.7 0.1
v -0.1 0.8 0.1
v -0.1 1 0.1
v 7.45058e-009 0 0.1
v 7.45058e-009 0.1 0.1
v 7.45058e-009 0.3 0.1
v 7.45058e-009 0.4 0.1
v 7.45058e-009 0.6 0.1
v 7.45058e-009 0.7 0.1
v -0.4 1 -7.45058e-009
v -0.4 1.1 -7.45058e-009
v -0.3 1 -7.45058e-009
v -0.3 1.1 -7.45058e-009
v -0.2 0 -7.45058e-009
v -0.2 0.1 -7.45058e-009
v -0.2 0.2 -7.45058e-009
v -0.2 0.3 -7.45058e-009
v -0.2 0.7 -7.45058e-009
v -0.2 0.8 -7.45058e-009
v -0.1 0 -7.45058e-009
v -0.1 0.1 -7.45058e-009
v -0.1 0.2 -7.45058e-009
v -0.1 0.3 -7.45058e-009
v -0.1 0.7 -7.45058e-009
v -0.1 0.8 -7.45058e-009
v 7.45058e-009 1 -7.45058e-009
v 7.45058e-009 1.1 -7.45058e-009
v 0.1 1 -7.45058e-009
v 0.1 1.1 -7.45058e-009
v -0.3 1 -0.1
v -0.3 1.1 -0.1
v 7.45058e-009 1 -0.1
v 7.45058e-009 1.1 -0.1
v -0.2 0 0.3
v -0.1 0 0.3
v -0.1 0 0.2
v 7.45058e-009 0 0.2
v -0.1 0 0.1
v 7.45058e-009 0 0.1
v -0.2 0 -7.45058e-009
v -0.1 0 -7.45058e-009
v -0.3 0.1 0.2
v -0.2 0.1 0.2
v -0.3 0.1 0.1
v -0.2 0.1 0.1
v -0.2 0.2 0.1
v -0.1 0.2 0.1
v -0.2 0.2 -7.45058e-009
v -0.1 0.2 -7.45058e-009
v -0.1 0.3 0.2
v 7.45058e-009 0.3 0.2
v -0.1 0.3 0.1
v 7.45058e-009 0.3 0.1
v -0.2 0.4 0.3
v -0.1 0.4 0.3
v -0.2 0.4 0.2
v -0.1 0.4 0.2
v -0.3 0.5 0.2
v -0.2 0.5 0.2
v -0.3 0.5 0.1
v -0.2 0.5 0.1
v -0.1 0.6 0.2
v 7.45058e-009 0.6 0.2
v -0.1 0.6 0.1
v 7.45058e-009 0.6 0.1
v -0.2 0.7 0.1
v -0.1 0.7 0.1
v -0.2 0.7 -7.45058e-009
v -0.1 0.7 -7.45058e-009
v -0.2 0.8 0.3
v -0.1 0.8 0.3
v -0.2 0.8 0.2
v -0.1 0.8 0.2
v -0.3 1 0.4
v 7.45058e-009 1 0.4
v -0.4 1 0.3
v -0.3 1 0.3
v -0.2 1 0.3
v -0.1 1 0.3
v 7.45058e-009 1 0.3
v 0.1 1 0.3
v -0.3 1 0.2
v -0.2 1 0.2
v -0.1 1 0.2
v 7.45058e-009 1 0.2
v -0.3 1 0.1
v -0.2 1 0.1
v -0.1 1 0.1
v 7.45058e-009 1 0.1
v -0.4 1 -7.45058e-009
v -0.3 1 -7.45058e-009
v -0.2 1 -7.45058e-009
v -0.1 1 -7.45058e-009
v 7.45058e-009 1 -7.45058e-009
v 0.1 1 -7.45058e-009
v -0.3 1 -0.1
v 7.45058e-009 1 -0.1
v -0.2 0.1 0.3
v -0.1 0.1 0.3
v -0.2 0.1 0.2
v -0.1 0.1 0.2
v 7.45058e-009 0.1 0.2
v -0.2 0.1 0.1
v -0.1 0.1 0.1
v 7.45058e-009 0.1 0.1
v -0.2 0.1 -7.45058e-009
v -0.1 0.1 -7.45058e-009
v -0.3 0.2 0.2
v -0.2 0.2 0.2
v -0.3 0.2 0.1
v -0.2 0.2 0.1
v -0.2 0.3 0.1
v -0.1 0.3 0.1
v -0.2 0.3 -7.45058e-009
v -0.1 0.3 -7.45058e-009
v -0.1 0.4 0.2
v 7.45058e-009 0.4 0.2
v -0.1 0.4 0.1
v 7.45058e-009 0.4 0.1
v -0.2 0.5 0.3
v -0.1 0.5 0.3
v -0.2 0.5 0.2
v -0.1 0.5 0.2
v -0.3 0.6 0.2
v -0.2 0.6 0.2
v -0.3 0.6 0.1
v -0.2 0.6 0.1
v -0.1 0.7 0.2
v 7.45058e-009 0.7 0.2
v -0.1 0.7 0.1
v 7.45058e-009 0.7 0.1
v -0.2 0.8 0.1
v -0.1 0.8 0.1
v -0.2 0.8 -7.45058e-009
v -0.1 0.8 -7.45058e-009
v -0.2 0.9 0.3
v -0.1 0.9 0.3
v -0.2 0.9 0.2
v -0.1 0.9 0.2
v -0.3 1.1 0.4
v 7.45058e-009 1.1 0.4
v -0.4 1.1 0.3
v -0.3 1.1 0.3
v -0.2 1.1 0.3
v -0.1 1.1 0.3
v 7.45058e-009 1.1 0.3
v 0.1 1.1 0.3
v -0.3 1.1 0.2
v -0.2 1.1 0.2
v -0.1 1.1 0.2
v 7.45058e-009 1.1 0.2
v -0.3 1.1 0.1
v -0.2 1.1 0.1
v -0.1 1.1 0.1
v 7.45058e-009 1.1 0.1
v -0.4 1.1 -7.45058e-009
v -0.3 1.1 -7.45058e-009
v -0.2 1.1 -7.45058e-009
v -0.1 1.1 -7.45058e-009
v 7.45058e-009 1.1 -7.45058e-009
v 0.1 1.1 -7.45058e-009
v -0.3 1.1 -0.1
v 7.45058e-009 1.1 -0.1

# faces
f 3/2/1 2/2/1 1/2/1
f 4/2/1 2/2/1 3/2/1
f 7/1/1 6/1/1 5/1/1
f 8/1/1 6/1/1 7/1/1
f 11/1/1 10/1/1 9/1/1
f 12/1/1 10/1/1 11/1/1
f 17/2/1 14/2/1 13/2/1
f 18/2/1 14/2/1 17/2/1
f 19/2/1 16/2/1 15/2/1
f 20/2/1 16/2/1 19/2/1
f 23/1/1 22/1/1 21/1/1
f 24/1/1 22/1/1 23/1/1
f 25/1/1 22/1/1 24/1/1
f 26/1/1 22/1/1 25/1/1
f 30/1/1 28/1/1 27/1/1
f 30/1/1 29/1/1 28/1/1
f 31/1/1 29/1/1 30/1/1
f 33/1/1 30/1/1 27/1/1
f 34/1/1 33/1/1 32/1/1
f 35/1/1 30/1/1 33/1/1
f 35/1/1 33/1/1 34/1/1
f 36/1/1 30/1/1 35/1/1
f 39/1/1 38/1/1 37/1/1
f 42/1/1 39/1/1 37/1/1
f 42/1/1 40/1/1 39/1/1
f 43/1/1 40/1/1 42/1/1
f 44/1/1 40/1/1 43/1/1
f 45/1/1 42/1/1 41/1/1
f 45/1/1 43/1/1 42/1/1
f 46/1/1 43/1/1 45/1/1
f 47/1/1 43/1/1 46/1/1
f 48/1/1 43/1/1 47/1/1
f 49/1/2 50/1/2 53/1/2
f 53/1/2 50/1/2 54/1/2
f 51/1/2 52/1/2 55/1/2
f 55/1/2 52/1/2 56/1/2
f 54/1/2 55/1/2 57/1/2
f 54/1/2 57/1/2 59/1/2
f 57/1/2 58/1/2 59/1/2
f 59/1/2 58/1/2 60/1/2
f 60/1/2 58/1/2 61/1/2
f 62/1/2 63/1/2 65/1/2
f 63/1/2 64/1/2 65/1/2
f 65/1/2 64/1/2 66/1/2
f 66/1/2 64/1/2 67/1/2
f 67/1/2 64/1/2 68/1/2
f 69/1/2 70/1/2 73/1/2
f 70/1/2 71/1/2 73/1/2
f 73/1/2 71/1/2 74/1/2
f 74/1/2 71/1/2 75/1/2
f 72/1/2 73/1/2 76/1/2
f 73/1/2 74/1/2 76/1/2
f 76/1/2 74/1/2 77/1/2
f 77/1/2 74/1/2 78/1/2
f 78/1/2 74/1/2 79/1/2
f 80/1/2 81/1/2 82/1/2
f 82/1/2 81/1/2 83/1/2
f 84/1/2 85/1/2 86/1/2
f 86/1/2 85/1/2 87/1/2
f 88/1/2 89/1/2 90/1/2
f 90/1/2 89/1/2 91/1/2
f 92/2/2 93/2/2 96/2/2
f 96/2/2 93/2/2 97/2/2
f 94/2/2 95/2/2 98/2/2
f 98/2/2 95/2/2 99/2/2
f 100/2/2 101/2/2 102/2/2
f 102/2/2 101/2/2 103/2/2
f 106/2/3 105/2/3 104/2/3
f 107/2/3 105/2/3 106/2/3
f 110/2/3 109/2/3 108/2/3
f 111/2/3 109/2/3 110/2/3
f 118/1/3 113/1/3 112/1/3
f 119/1/3 113/1/3 118/1/3
f 120/1/3 115/1/3 114/1/3
f 121/1/3 115/1/3 120/1/3
f 122/1/3 117/1/3 116/1/3
f 123/1/3 117/1/3 122/1/3
f 126/2/3 125/2/3 124/2/3
f 127/2/3 125/2/3 126/2/3
f 132/1/3 129/1/3 128/1/3
f 133/1/3 129/1/3 132/1/3
f 135/1/3 131/1/3 130/1/3
f 136/1/3 131/1/3 135/1/3
f 141/1/3 134/1/3 133/1/3
f 141/1/3 133/1/3 132/1/3
f 142/1/3 134/1/3 141/1/3
f 143/1/3 134/1/3 142/1/3
f 144/1/3 137/1/3 136/1/3
f 144/1/3 136/1/3 135/1/3
f 145/1/3 137/1/3 144/1/3
f 146/1/3 137/1/3 145/1/3
f 147/1/3 137/1/3 146/1/3
f 148/1/3 139/1/3 138/1/3
f 149/1/3 139/1/3 148/1/3
f 150/1/3 141/1/3 140/1/3
f 151/1/3 141/1/3 150/1/3
f 152/1/3 143/1/3 142/1/3
f 153/1/3 143/1/3 152/1/3
f 154/1/3 146/1/3 145/1/3
f 155/1/3 146/1/3 154/1/3
f 156/1/4 157/1/4 160/1/4
f 160/1/4 157/1/4 161/1/4
f 158/1/4 159/1/4 163/1/4
f 163/1/4 159/1/4 164/1/4
f 160/1/4 161/1/4 169/1/4
f 169/1/4 161/1/4 170/1/4
f 162/1/4 163/1/4 171/1/4
f 163/1/4 164/1/4 171/1/4
f 164/1/4 165/1/4 171/1/4
f 171/1/4 165/1/4 172/1/4
f 172/1/4 165/1/4 173/1/4
f 173/1/4 165/1/4 174/1/4
f 166/1/4 167/1/4 175/1/4
f 175/1/4 167/1/4 176/1/4
f 168/1/4 169/1/4 177/1/4
f 177/1/4 169/1/4 178/1/4
f 171/1/4 172/1/4 179/1/4
f 179/1/4 172/1/4 180/1/4
f 173/1/4 174/1/4 181/1/4
f 181/1/4 174/1/4 182/1/4
f 183/2/4 184/2/4 185/2/4
f 185/2/4 184/2/4 186/2/4
f 187/1/4 188/1/4 193/1/4
f 193/1/4 188/1/4 194/1/4
f 189/1/4 190/1/4 195/1/4
f 195/1/4 190/1/4 196/1/4
f 191/1/4 192/1/4 197/1/4
f 197/1/4 192/1/4 198/1/4
f 199/2/4 200/2/4 201/2/4
f 201/2/4 200/2/4 202/2/4
f 203/2/4 204/2/4 205/2/4
f 205/2/4 204/2/4 206/2/4
f 209/1/5 208/1/5 207/1/5
f 211/1/5 209/1/5 207/1/5
f 211/1/5 210/1/5 209/1/5
f 212/1/5 210/1/5 211/1/5
f 213/1/5 211/1/5 207/1/5
f 214/1/5 211/1/5 213/1/5
f 217/1/5 216/1/5 215/1/5
f 218/1/5 216/1/5 217/1/5
f 221/1/5 220/1/5 219/1/5
f 222/1/5 220/1/5 221/1/5
f 225/1/5 224/1/5 223/1/5
f 226/1/5 224/1/5 225/1/5
f 229/1/5 228/1/5 227/1/5
f 230/1/5 228/1/5 229/1/5
f 233/1/5 232/1/5 231/1/5
f 234/1/5 232/1/5 233/1/5
f 237/1/5 236/1/5 235/1/5
f 238/1/5 236/1/5 237/1/5
f 241/1/5 240/1/5 239/1/5
f 242/1/5 240/1/5 241/1/5
f 245/1/5 244/1/5 243/1/5
f 246/1/5 244/1/5 245/1/5
f 250/2/5 248/2/5 247/2/5
f 251/2/5 248/2/5 250/2/5
f 252/2/5 248/2/5 251/2/5
f 253/2/5 248/2/5 252/2/5
f 255/2/5 250/2/5 249/2/5
f 255/2/5 251/2/5 250/2/5
f 256/3/5 252/3/5 251/3/5
f 256/2/5 251/2/5 255/2/5
f 257/2/5 254/2/5 253/2/5
f 257/3/5 252/3/5 256/3/5
f 257/2/5 253/2/5 252/2/5
f 258/2/5 254/2/5 257/2/5
f 259/3/5 256/3/5 255/3/5
f 259/2/5 255/2/5 249/2/5
f 260/3/5 256/3/5 259/3/5
f 261/3/5 258/3/5 257/3/5
f 262/2/5 254/2/5 258/2/5
f 262/3/5 258/3/5 261/3/5
f 263/2/5 260/2/5 259/2/5
f 263/2/5 259/2/5 249/2/5
f 264/2/5 260/2/5 263/2/5
f 265/3/5 261/3/5 260/3/5
f 265/2/5 260/2/5 264/2/5
f 266/2/5 262/2/5 261/2/5
f 266/3/5 261/3/5 265/3/5
f 267/2/5 254/2/5 262/2/5
f 267/2/5 262/2/5 266/2/5
f 268/2/5 254/2/5 267/2/5
f 269/2/5 266/2/5 265/2/5
f 269/2/5 267/2/5 266/2/5
f 269/2/5 265/2/5 264/2/5
f 270/2/5 267/2/5 269/2/5
f 271/1/6 272/1/6 273/1/6
f 273/1/6 272/1/6 274/1/6
f 274/1/6 275/1/6 277/1/6
f 277/1/6 275/1/6 278/1/6
f 276/1/6 277/1/6 279/1/6
f 279/1/6 277/1/6 280/1/6
f 281/1/6 282/1/6 283/1/6
f 283/1/6 282/1/6 284/1/6
f 285/1/6 286/1/6 287/1/6
f 287/1/6 286/1/6 288/1/6
f 289/1/6 290/1/6 291/1/6
f 291/1/6 290/1/6 292/1/6
f 293/1/6 294/1/6 295/1/6
f 295/1/6 294/1/6 296/1/6
f 297/1/6 298/1/6 299/1/6
f 299/1/6 298/1/6 300/1/6
f 301/1/6 302/1/6 303/1/6
f 303/1/6 302/1/6 304/1/6
f 305/1/6 306/1/6 307/1/6
f 307/1/6 306/1/6 308/1/6
f 309/1/6 310/1/6 311/1/6
f 311/1/6 310/1/6 312/1/6
f 313/2/6 314/2/6 316/2/6
f 316/2/6 314/2/6 317/2/6
f 317/2/6 314/2/6 318/2/6
f 318/2/6 314/2/6 319/2/6
f 315/2/6 316/2/6 321/2/6
f 316/2/6 317/2/6 321/2/6
f 317/3/6 318/3/6 322/3/6
f 321/2/6 317/2/6 322/2/6
f 319/2/6 320/2/6 323/2/6
f 322/3/6 318/3/6 323/3/6
f 318/2/6 319/2/6 323/2/6
f 323/2/6 320/2/6 324/2/6
f 321/3/6 322/3/6 325/3/6
f 315/2/6 321/2/6 325/2/6
f 322/4/6 323/4/6 326/4/6
f 325/3/6 322/3/6 326/3/6
f 323/3/6 324/3/6 327/3/6
f 326/4/6 323/4/6 327/4/6
f 324/2/6 320/2/6 328/2/6
f 327/3/6 324/3/6 328/3/6
f 325/2/6 326/2/6 329/2/6
f 315/2/6 325/2/6 329/2/6
f 329/2/6 326/2/6 330/2/6
f 326/3/6 327/3/6 331/3/6
f 330/2/6 326/2/6 331/2/6
f 327/2/6 328/2/6 332/2/6
f 331/3/6 327/3/6 332/3/6
f 328/2/6 320/2/6 333/2/6
f 332/2/6 328/2/6 333/2/6
f 333/2/6 320/2/6 334/2/6
f 331/2/6 332/2/6 335/2/6
f 332/2/6 333/2/6 335/2/6
f 330/2/6 331/2/6 335/2/6
f 335/2/6 333/2/6 336/2/6
