# MagicaVoxel @ Ephtracy

# group
o 

# material
mtllib Tree_3.mtl
usemtl palette

# normals
vn -1 0 0
vn 1 0 0
vn 0 0 1
vn 0 0 -1
vn 0 -1 0
vn 0 1 0

# texcoords
vt 0.537109 0.5
vt 0.791016 0.5

# verts
v 0 3.7 0
v 0 3.7 -0.6
v 0 4.3 0
v 0 4.3 -0.6
v 0.2 3.3 -0.1
v 0.2 3.3 -0.9
v 0.2 3.7 -0.1
v 0.2 3.7 -0.6
v 0.2 4.1 -0.6
v 0.2 4.1 -0.9
v 0.3 3.1 -0.5
v 0.3 3.1 -0.6
v 0.3 3.3 -0.5
v 0.3 3.3 -0.6
v 0.5 2 -0.5
v 0.5 2 -0.6
v 0.5 3.1 -0.5
v 0.5 3.1 -0.6
v 0.5 3.2 -0.4
v 0.5 3.2 -0.5
v 0.5 3.2 -0.6
v 0.5 3.3 -0.4
v 0.5 3.3 -0.6
v 0.6 3.2 -0.6
v 0.6 3.2 -1
v 0.6 3.3 -0.6
v 0.6 3.3 -0.9
v 0.6 4.1 -0.4
v 0.6 4.1 -0.9
v 0.6 4.2 -0.4
v 0.6 4.2 -1
v 0.7 3.2 -0.4
v 0.7 3.2 -0.5
v 0.7 3.3 -0.4
v 0.7 3.3 -0.5
v 0.7 4.2 -0.5
v 0.7 4.2 -0.9
v 0.7 4.4 -0.5
v 0.7 4.4 -0.9
v 0.8 3.1 -0.5
v 0.8 3.1 -0.6
v 0.8 3.2 -0.5
v 0.8 3.2 -0.6
v 0.4 3.2 -0.5
v 0.4 3.2 -0.6
v 0.4 3.3 -0.5
v 0.4 3.3 -0.6
v 0.4 3.7 0
v 0.4 3.7 -0.1
v 0.4 4.1 -0.1
v 0.4 4.1 -0.6
v 0.4 4.3 0
v 0.4 4.3 -0.6
v 0.6 2 -0.5
v 0.6 2 -0.6
v 0.6 3 -0.5
v 0.6 3 -0.6
v 0.6 3.1 -0.5
v 0.6 3.1 -0.6
v 0.6 3.2 -0.4
v 0.6 3.2 -0.5
v 0.6 3.2 -0.6
v 0.6 3.3 -0.4
v 0.6 3.3 -0.5
v 0.8 3.3 -0.1
v 0.8 3.3 -0.2
v 0.8 3.7 -0.2
v 0.8 3.7 -0.4
v 0.8 4.1 -0.1
v 0.8 4.1 -0.4
v 0.9 3 -0.5
v 0.9 3 -0.6
v 0.9 3.2 -0.5
v 0.9 3.2 -0.6
v 1 3.3 -0.2
v 1 3.3 -0.4
v 1 3.7 -0.2
v 1 3.7 -0.4
v 1 4.2 -0.5
v 1 4.2 -0.9
v 1 4.4 -0.5
v 1 4.4 -0.9
v 1.1 3.2 -0.4
v 1.1 3.2 -1
v 1.1 4.2 -0.4
v 1.1 4.2 -1
v 0 3.7 0
v 0 4.3 0
v 0.4 3.7 0
v 0.4 4.3 0
v 0.2 3.3 -0.1
v 0.2 3.7 -0.1
v 0.4 3.7 -0.1
v 0.4 4.1 -0.1
v 0.8 3.3 -0.1
v 0.8 4.1 -0.1
v 0.8 3.3 -0.2
v 0.8 3.7 -0.2
v 1 3.3 -0.2
v 1 3.7 -0.2
v 0.5 3.2 -0.4
v 0.5 3.3 -0.4
v 0.6 3.2 -0.4
v 0.6 3.3 -0.4
v 0.6 4.1 -0.4
v 0.6 4.2 -0.4
v 0.7 3.2 -0.4
v 0.7 3.3 -0.4
v 0.8 3.7 -0.4
v 0.8 4.1 -0.4
v 1 3.3 -0.4
v 1 3.7 -0.4
v 1.1 3.2 -0.4
v 1.1 4.2 -0.4
v 0.3 3.1 -0.5
v 0.3 3.3 -0.5
v 0.4 3.2 -0.5
v 0.4 3.3 -0.5
v 0.5 2 -0.5
v 0.5 3.1 -0.5
v 0.5 3.2 -0.5
v 0.6 2 -0.5
v 0.6 3 -0.5
v 0.6 3.1 -0.5
v 0.6 3.2 -0.5
v 0.6 3.3 -0.5
v 0.7 3.2 -0.5
v 0.7 3.3 -0.5
v 0.7 4.2 -0.5
v 0.7 4.4 -0.5
v 0.8 3.1 -0.5
v 0.8 3.2 -0.5
v 0.9 3 -0.5
v 0.9 3.2 -0.5
v 1 4.2 -0.5
v 1 4.4 -0.5
v 0 3.7 -0.6
v 0 4.3 -0.6
v 0.2 3.7 -0.6
v 0.2 4.1 -0.6
v 0.3 3.1 -0.6
v 0.3 3.3 -0.6
v 0.4 3.2 -0.6
v 0.4 3.3 -0.6
v 0.4 4.1 -0.6
v 0.4 4.3 -0.6
v 0.5 2 -0.6
v 0.5 3.1 -0.6
v 0.5 3.2 -0.6
v 0.5 3.3 -0.6
v 0.6 2 -0.6
v 0.6 3 -0.6
v 0.6 3.1 -0.6
v 0.6 3.2 -0.6
v 0.6 3.3 -0.6
v 0.8 3.1 -0.6
v 0.8 3.2 -0.6
v 0.9 3 -0.6
v 0.9 3.2 -0.6
v 0.2 3.3 -0.9
v 0.2 4.1 -0.9
v 0.6 3.3 -0.9
v 0.6 4.1 -0.9
v 0.7 4.2 -0.9
v 0.7 4.4 -0.9
v 1 4.2 -0.9
v 1 4.4 -0.9
v 0.6 3.2 -1
v 0.6 4.2 -1
v 1.1 3.2 -1
v 1.1 4.2 -1
v 0.5 2 -0.5
v 0.6 2 -0.5
v 0.5 2 -0.6
v 0.6 2 -0.6
v 0.6 3 -0.5
v 0.9 3 -0.5
v 0.6 3 -0.6
v 0.9 3 -0.6
v 0.3 3.1 -0.5
v 0.5 3.1 -0.5
v 0.3 3.1 -0.6
v 0.5 3.1 -0.6
v 0.5 3.2 -0.4
v 0.6 3.2 -0.4
v 0.7 3.2 -0.4
v 1.1 3.2 -0.4
v 0.5 3.2 -0.5
v 0.6 3.2 -0.5
v 0.7 3.2 -0.5
v 0.8 3.2 -0.5
v 0.9 3.2 -0.5
v 0.6 3.2 -0.6
v 0.8 3.2 -0.6
v 0.9 3.2 -0.6
v 0.6 3.2 -1
v 1.1 3.2 -1
v 0.2 3.3 -0.1
v 0.8 3.3 -0.1
v 0.8 3.3 -0.2
v 1 3.3 -0.2
v 0.5 3.3 -0.4
v 0.6 3.3 -0.4
v 0.7 3.3 -0.4
v 1 3.3 -0.4
v 0.3 3.3 -0.5
v 0.4 3.3 -0.5
v 0.6 3.3 -0.5
v 0.7 3.3 -0.5
v 0.3 3.3 -0.6
v 0.4 3.3 -0.6
v 0.5 3.3 -0.6
v 0.6 3.3 -0.6
v 0.2 3.3 -0.9
v 0.6 3.3 -0.9
v 0 3.7 0
v 0.4 3.7 0
v 0.2 3.7 -0.1
v 0.4 3.7 -0.1
v 0 3.7 -0.6
v 0.2 3.7 -0.6
v 0.6 3.1 -0.5
v 0.8 3.1 -0.5
v 0.6 3.1 -0.6
v 0.8 3.1 -0.6
v 0.4 3.2 -0.5
v 0.5 3.2 -0.5
v 0.4 3.2 -0.6
v 0.5 3.2 -0.6
v 0.8 3.7 -0.2
v 1 3.7 -0.2
v 0.8 3.7 -0.4
v 1 3.7 -0.4
v 0.4 4.1 -0.1
v 0.8 4.1 -0.1
v 0.6 4.1 -0.4
v 0.8 4.1 -0.4
v 0.2 4.1 -0.6
v 0.4 4.1 -0.6
v 0.2 4.1 -0.9
v 0.6 4.1 -0.9
v 0.6 4.2 -0.4
v 1.1 4.2 -0.4
v 0.7 4.2 -0.5
v 1 4.2 -0.5
v 0.7 4.2 -0.9
v 1 4.2 -0.9
v 0.6 4.2 -1
v 1.1 4.2 -1
v 0 4.3 0
v 0.4 4.3 0
v 0 4.3 -0.6
v 0.4 4.3 -0.6
v 0.7 4.4 -0.5
v 1 4.4 -0.5
v 0.7 4.4 -0.9
v 1 4.4 -0.9

# faces
f 3/2/1 2/2/1 1/2/1
f 4/2/1 2/2/1 3/2/1
f 7/2/1 6/2/1 5/2/1
f 8/2/1 6/2/1 7/2/1
f 9/2/1 6/2/1 8/2/1
f 10/2/1 6/2/1 9/2/1
f 13/1/1 12/1/1 11/1/1
f 14/1/1 12/1/1 13/1/1
f 17/1/1 16/1/1 15/1/1
f 18/1/1 16/1/1 17/1/1
f 22/1/1 20/1/1 19/1/1
f 22/1/1 21/1/1 20/1/1
f 23/1/1 21/1/1 22/1/1
f 26/2/1 25/2/1 24/2/1
f 27/2/1 25/2/1 26/2/1
f 29/2/1 25/2/1 27/2/1
f 30/2/1 29/2/1 28/2/1
f 31/2/1 25/2/1 29/2/1
f 31/2/1 29/2/1 30/2/1
f 34/2/1 33/2/1 32/2/1
f 35/2/1 33/2/1 34/2/1
f 38/2/1 37/2/1 36/2/1
f 39/2/1 37/2/1 38/2/1
f 42/1/1 41/1/1 40/1/1
f 43/1/1 41/1/1 42/1/1
f 44/1/2 45/1/2 46/1/2
f 46/1/2 45/1/2 47/1/2
f 48/2/2 49/2/2 50/2/2
f 48/2/2 50/2/2 52/2/2
f 50/2/2 51/2/2 52/2/2
f 52/2/2 51/2/2 53/2/2
f 54/1/2 55/1/2 56/1/2
f 56/1/2 55/1/2 57/1/2
f 58/1/2 59/1/2 61/1/2
f 61/1/2 59/1/2 62/1/2
f 60/1/2 61/1/2 63/1/2
f 63/1/2 61/1/2 64/1/2
f 65/2/2 66/2/2 67/2/2
f 65/2/2 67/2/2 69/2/2
f 67/2/2 68/2/2 69/2/2
f 69/2/2 68/2/2 70/2/2
f 71/1/2 72/1/2 73/1/2
f 73/1/2 72/1/2 74/1/2
f 75/2/2 76/2/2 77/2/2
f 77/2/2 76/2/2 78/2/2
f 79/2/2 80/2/2 81/2/2
f 81/2/2 80/2/2 82/2/2
f 83/2/2 84/2/2 85/2/2
f 85/2/2 84/2/2 86/2/2
f 89/2/3 88/2/3 87/2/3
f 90/2/3 88/2/3 89/2/3
f 93/2/3 92/2/3 91/2/3
f 95/2/3 93/2/3 91/2/3
f 95/2/3 94/2/3 93/2/3
f 96/2/3 94/2/3 95/2/3
f 99/2/3 98/2/3 97/2/3
f 100/2/3 98/2/3 99/2/3
f 103/1/3 102/1/3 101/1/3
f 104/1/3 102/1/3 103/1/3
f 110/2/3 106/2/3 105/2/3
f 111/2/3 108/2/3 107/2/3
f 112/2/3 110/2/3 109/2/3
f 113/2/3 111/2/3 107/2/3
f 113/2/3 112/2/3 111/2/3
f 114/2/3 110/2/3 112/2/3
f 114/2/3 112/2/3 113/2/3
f 114/2/3 106/2/3 110/2/3
f 117/1/3 116/1/3 115/1/3
f 118/1/3 116/1/3 117/1/3
f 120/1/3 117/1/3 115/1/3
f 121/1/3 117/1/3 120/1/3
f 122/1/3 120/1/3 119/1/3
f 122/1/3 121/1/3 120/1/3
f 123/1/3 121/1/3 122/1/3
f 124/1/3 121/1/3 123/1/3
f 125/1/3 121/1/3 124/1/3
f 127/2/3 126/2/3 125/2/3
f 128/2/3 126/2/3 127/2/3
f 131/1/3 124/1/3 123/1/3
f 133/1/3 131/1/3 123/1/3
f 133/1/3 132/1/3 131/1/3
f 134/1/3 132/1/3 133/1/3
f 135/2/3 130/2/3 129/2/3
f 136/2/3 130/2/3 135/2/3
f 137/2/4 138/2/4 139/2/4
f 139/2/4 138/2/4 140/2/4
f 141/1/4 142/1/4 143/1/4
f 143/1/4 142/1/4 144/1/4
f 140/2/4 138/2/4 145/2/4
f 145/2/4 138/2/4 146/2/4
f 141/1/4 143/1/4 148/1/4
f 148/1/4 143/1/4 149/1/4
f 147/1/4 148/1/4 151/1/4
f 149/1/4 150/1/4 151/1/4
f 148/1/4 149/1/4 151/1/4
f 151/1/4 150/1/4 152/1/4
f 152/1/4 150/1/4 153/1/4
f 153/1/4 150/1/4 154/1/4
f 154/1/4 150/1/4 155/1/4
f 152/1/4 153/1/4 156/1/4
f 152/1/4 156/1/4 158/1/4
f 156/1/4 157/1/4 158/1/4
f 158/1/4 157/1/4 159/1/4
f 160/2/4 161/2/4 162/2/4
f 162/2/4 161/2/4 163/2/4
f 164/2/4 165/2/4 166/2/4
f 166/2/4 165/2/4 167/2/4
f 168/2/4 169/2/4 170/2/4
f 170/2/4 169/2/4 171/2/4
f 174/1/5 173/1/5 172/1/5
f 175/1/5 173/1/5 174/1/5
f 178/1/5 177/1/5 176/1/5
f 179/1/5 177/1/5 178/1/5
f 182/1/5 181/1/5 180/1/5
f 183/1/5 181/1/5 182/1/5
f 188/1/5 185/1/5 184/1/5
f 189/1/5 185/1/5 188/1/5
f 190/2/5 187/2/5 186/2/5
f 191/2/5 187/2/5 190/2/5
f 192/2/5 187/2/5 191/2/5
f 193/2/5 190/2/5 189/2/5
f 193/2/5 191/2/5 190/2/5
f 194/2/5 191/2/5 193/2/5
f 195/2/5 187/2/5 192/2/5
f 196/2/5 194/2/5 193/2/5
f 196/2/5 195/2/5 194/2/5
f 197/2/5 187/2/5 195/2/5
f 197/2/5 195/2/5 196/2/5
f 200/2/5 199/2/5 198/2/5
f 202/2/5 200/2/5 198/2/5
f 202/2/5 201/2/5 200/2/5
f 203/2/5 201/2/5 202/2/5
f 204/2/5 201/2/5 203/2/5
f 205/2/5 201/2/5 204/2/5
f 206/2/5 202/2/5 198/2/5
f 207/2/5 202/2/5 206/2/5
f 208/2/5 204/2/5 203/2/5
f 209/2/5 204/2/5 208/2/5
f 210/2/5 206/2/5 198/2/5
f 211/2/5 202/2/5 207/2/5
f 212/2/5 202/2/5 211/2/5
f 214/2/5 210/2/5 198/2/5
f 214/2/5 213/2/5 212/2/5
f 214/2/5 212/2/5 211/2/5
f 214/2/5 211/2/5 210/2/5
f 215/2/5 213/2/5 214/2/5
f 218/2/5 217/2/5 216/2/5
f 219/2/5 217/2/5 218/2/5
f 220/2/5 218/2/5 216/2/5
f 221/2/5 218/2/5 220/2/5
f 222/1/6 223/1/6 224/1/6
f 224/1/6 223/1/6 225/1/6
f 226/1/6 227/1/6 228/1/6
f 228/1/6 227/1/6 229/1/6
f 230/2/6 231/2/6 232/2/6
f 232/2/6 231/2/6 233/2/6
f 234/2/6 235/2/6 236/2/6
f 236/2/6 235/2/6 237/2/6
f 234/2/6 236/2/6 239/2/6
f 238/2/6 239/2/6 240/2/6
f 239/2/6 236/2/6 241/2/6
f 240/2/6 239/2/6 241/2/6
f 242/2/6 243/2/6 244/2/6
f 244/2/6 243/2/6 245/2/6
f 242/2/6 244/2/6 246/2/6
f 245/2/6 243/2/6 247/2/6
f 242/2/6 246/2/6 248/2/6
f 246/2/6 247/2/6 248/2/6
f 247/2/6 243/2/6 249/2/6
f 248/2/6 247/2/6 249/2/6
f 250/2/6 251/2/6 252/2/6
f 252/2/6 251/2/6 253/2/6
f 254/2/6 255/2/6 256/2/6
f 256/2/6 255/2/6 257/2/6
