# MagicaVoxel @ Ephtracy

# group
o 

# material
mtllib Combining_tabble_Kaz.mtl
usemtl palette

# normals
vn -1 0 0
vn 1 0 0
vn 0 0 1
vn 0 0 -1
vn 0 -1 0
vn 0 1 0

# texcoords
vt 0.255859 0.5
vt 0.259766 0.5
vt 0.263672 0.5

# verts
v -1 1.5 2.2
v -1 1.5 0.6
v -1 1.6 2.2
v -1 1.6 0.6
v -0.9 0 2.1
v -0.9 0 1.9
v -0.9 0 0.9
v -0.9 0 0.7
v -0.9 1 1.9
v -0.9 1 0.9
v -0.9 1.2 1.9
v -0.9 1.2 0.9
v -0.9 1.4 1.9
v -0.9 1.4 0.9
v -0.9 1.5 2.1
v -0.9 1.5 0.7
v 2.1 0 2.1
v 2.1 0 1.9
v 2.1 0 0.9
v 2.1 0 0.7
v 2.1 1 2.1
v 2.1 1 1.9
v 2.1 1 0.9
v 2.1 1 0.7
v 2.1 1.2 2.1
v 2.1 1.2 1.9
v 2.1 1.2 0.9
v 2.1 1.2 0.7
v 2.1 1.4 2.1
v 2.1 1.4 1.9
v 2.1 1.4 0.9
v 2.1 1.4 0.7
v -0.7 0 2.1
v -0.7 0 1.9
v -0.7 0 0.9
v -0.7 0 0.7
v -0.7 1 2.1
v -0.7 1 1.9
v -0.7 1 0.9
v -0.7 1 0.7
v -0.7 1.2 2.1
v -0.7 1.2 1.9
v -0.7 1.2 0.9
v -0.7 1.2 0.7
v -0.7 1.4 2.1
v -0.7 1.4 1.9
v -0.7 1.4 0.9
v -0.7 1.4 0.7
v 2.3 0 2.1
v 2.3 0 1.9
v 2.3 0 0.9
v 2.3 0 0.7
v 2.3 1 1.9
v 2.3 1 0.9
v 2.3 1.2 1.9
v 2.3 1.2 0.9
v 2.3 1.4 1.9
v 2.3 1.4 0.9
v 2.3 1.5 2.1
v 2.3 1.5 0.7
v 2.4 1.5 2.2
v 2.4 1.5 0.6
v 2.4 1.6 2.2
v 2.4 1.6 0.6
v -1 1.5 2.2
v -1 1.6 2.2
v 2.4 1.5 2.2
v 2.4 1.6 2.2
v -0.9 0 2.1
v -0.9 1.5 2.1
v -0.7 0 2.1
v -0.7 1 2.1
v -0.7 1.2 2.1
v -0.7 1.4 2.1
v 2.1 0 2.1
v 2.1 1 2.1
v 2.1 1.2 2.1
v 2.1 1.4 2.1
v 2.3 0 2.1
v 2.3 1.5 2.1
v -0.9 0 0.9
v -0.9 1 0.9
v -0.9 1.2 0.9
v -0.9 1.4 0.9
v -0.7 0 0.9
v -0.7 1 0.9
v -0.7 1.2 0.9
v -0.7 1.4 0.9
v 2.1 0 0.9
v 2.1 1 0.9
v 2.1 1.2 0.9
v 2.1 1.4 0.9
v 2.3 0 0.9
v 2.3 1 0.9
v 2.3 1.2 0.9
v 2.3 1.4 0.9
v -0.9 0 1.9
v -0.9 1 1.9
v -0.9 1.2 1.9
v -0.9 1.4 1.9
v -0.7 0 1.9
v -0.7 1 1.9
v -0.7 1.2 1.9
v -0.7 1.4 1.9
v 2.1 0 1.9
v 2.1 1 1.9
v 2.1 1.2 1.9
v 2.1 1.4 1.9
v 2.3 0 1.9
v 2.3 1 1.9
v 2.3 1.2 1.9
v 2.3 1.4 1.9
v -0.9 0 0.7
v -0.9 1.5 0.7
v -0.7 0 0.7
v -0.7 1 0.7
v -0.7 1.2 0.7
v -0.7 1.4 0.7
v 2.1 0 0.7
v 2.1 1 0.7
v 2.1 1.2 0.7
v 2.1 1.4 0.7
v 2.3 0 0.7
v 2.3 1.5 0.7
v -1 1.5 0.6
v -1 1.6 0.6
v 2.4 1.5 0.6
v 2.4 1.6 0.6
v -0.9 0 2.1
v -0.7 0 2.1
v 2.1 0 2.1
v 2.3 0 2.1
v -0.9 0 1.9
v -0.7 0 1.9
v 2.1 0 1.9
v 2.3 0 1.9
v -0.9 0 0.9
v -0.7 0 0.9
v 2.1 0 0.9
v 2.3 0 0.9
v -0.9 0 0.7
v -0.7 0 0.7
v 2.1 0 0.7
v 2.3 0 0.7
v -0.7 1 2.1
v 2.1 1 2.1
v -0.9 1 1.9
v -0.7 1 1.9
v 2.1 1 1.9
v 2.3 1 1.9
v -0.9 1 0.9
v -0.7 1 0.9
v 2.1 1 0.9
v 2.3 1 0.9
v -0.7 1 0.7
v 2.1 1 0.7
v -0.7 1.4 2.1
v 2.1 1.4 2.1
v -0.9 1.4 1.9
v -0.7 1.4 1.9
v 2.1 1.4 1.9
v 2.3 1.4 1.9
v -0.9 1.4 0.9
v -0.7 1.4 0.9
v 2.1 1.4 0.9
v 2.3 1.4 0.9
v -0.7 1.4 0.7
v 2.1 1.4 0.7
v -1 1.5 2.2
v 2.4 1.5 2.2
v -0.9 1.5 2.1
v 2.3 1.5 2.1
v -0.9 1.5 0.7
v 2.3 1.5 0.7
v -1 1.5 0.6
v 2.4 1.5 0.6
v -0.7 1.2 2.1
v 2.1 1.2 2.1
v -0.9 1.2 1.9
v -0.7 1.2 1.9
v 2.1 1.2 1.9
v 2.3 1.2 1.9
v -0.9 1.2 0.9
v -0.7 1.2 0.9
v 2.1 1.2 0.9
v 2.3 1.2 0.9
v -0.7 1.2 0.7
v 2.1 1.2 0.7
v -1 1.6 2.2
v 2.4 1.6 2.2
v -0.9 1.6 2.1
v 2.3 1.6 2.1
v -0.8 1.6 2
v -0.6 1.6 2
v 0.0999997 1.6 2
v 0.3 1.6 2
v 1.2 1.6 2
v 1.4 1.6 2
v 2 1.6 2
v 2.2 1.6 2
v -0.7 1.6 1.9
v -0.6 1.6 1.9
v 0.0999997 1.6 1.9
v 0.2 1.6 1.9
v 1.3 1.6 1.9
v 1.4 1.6 1.9
v 2 1.6 1.9
v 2.1 1.6 1.9
v -0.8 1.6 1.8
v -0.7 1.6 1.8
v 0.2 1.6 1.8
v 0.3 1.6 1.8
v 0.7 1.6 1.8
v 0.8 1.6 1.8
v 1.2 1.6 1.8
v 1.3 1.6 1.8
v 2.1 1.6 1.8
v 2.2 1.6 1.8
v 0.4 1.6 1.5
v 0.7 1.6 1.5
v 0.8 1.6 1.5
v 1.1 1.6 1.5
v 0.4 1.6 1.4
v 0.7 1.6 1.4
v 0.8 1.6 1.4
v 1.1 1.6 1.4
v 0.7 1.6 1.1
v 0.8 1.6 1.1
v -0.8 1.6 1
v -0.7 1.6 1
v 0.2 1.6 1
v 0.3 1.6 1
v 1.2 1.6 1
v 1.3 1.6 1
v 2.1 1.6 1
v 2.2 1.6 1
v -0.7 1.6 0.9
v -0.6 1.6 0.9
v 0.0999997 1.6 0.9
v 0.2 1.6 0.9
v 1.3 1.6 0.9
v 1.4 1.6 0.9
v 2 1.6 0.9
v 2.1 1.6 0.9
v -0.8 1.6 0.8
v -0.6 1.6 0.8
v 0.0999997 1.6 0.8
v 0.3 1.6 0.8
v 1.2 1.6 0.8
v 1.4 1.6 0.8
v 2 1.6 0.8
v 2.2 1.6 0.8
v -0.9 1.6 0.7
v 2.3 1.6 0.7
v -1 1.6 0.6
v 2.4 1.6 0.6

# faces
f 3/1/1 2/1/1 1/1/1
f 4/1/1 2/1/1 3/1/1
f 9/1/1 6/1/1 5/1/1
f 10/1/1 8/1/1 7/1/1
f 11/1/1 9/1/1 5/1/1
f 11/1/1 10/1/1 9/1/1
f 12/1/1 8/1/1 10/1/1
f 12/1/1 10/1/1 11/1/1
f 13/1/1 11/1/1 5/1/1
f 14/1/1 8/1/1 12/1/1
f 15/1/1 13/1/1 5/1/1
f 15/1/1 14/1/1 13/1/1
f 16/1/1 8/1/1 14/1/1
f 16/1/1 14/1/1 15/1/1
f 21/1/1 18/1/1 17/1/1
f 22/1/1 18/1/1 21/1/1
f 23/1/1 20/1/1 19/1/1
f 24/1/1 20/1/1 23/1/1
f 26/1/1 23/1/1 22/1/1
f 27/1/1 23/1/1 26/1/1
f 29/1/1 26/1/1 25/1/1
f 30/1/1 26/1/1 29/1/1
f 31/1/1 28/1/1 27/1/1
f 32/1/1 28/1/1 31/1/1
f 33/1/2 34/1/2 37/1/2
f 37/1/2 34/1/2 38/1/2
f 35/1/2 36/1/2 39/1/2
f 39/1/2 36/1/2 40/1/2
f 38/1/2 39/1/2 42/1/2
f 42/1/2 39/1/2 43/1/2
f 41/1/2 42/1/2 45/1/2
f 45/1/2 42/1/2 46/1/2
f 43/1/2 44/1/2 47/1/2
f 47/1/2 44/1/2 48/1/2
f 49/1/2 50/1/2 53/1/2
f 51/1/2 52/1/2 54/1/2
f 49/1/2 53/1/2 55/1/2
f 53/1/2 54/1/2 55/1/2
f 54/1/2 52/1/2 56/1/2
f 55/1/2 54/1/2 56/1/2
f 49/1/2 55/1/2 57/1/2
f 56/1/2 52/1/2 58/1/2
f 49/1/2 57/1/2 59/1/2
f 57/1/2 58/1/2 59/1/2
f 58/1/2 52/1/2 60/1/2
f 59/1/2 58/1/2 60/1/2
f 61/1/2 62/1/2 63/1/2
f 63/1/2 62/1/2 64/1/2
f 67/1/3 66/1/3 65/1/3
f 68/1/3 66/1/3 67/1/3
f 71/1/3 70/1/3 69/1/3
f 72/1/3 70/1/3 71/1/3
f 73/1/3 70/1/3 72/1/3
f 74/1/3 70/1/3 73/1/3
f 76/1/3 73/1/3 72/1/3
f 77/1/3 73/1/3 76/1/3
f 78/1/3 70/1/3 74/1/3
f 79/1/3 77/1/3 76/1/3
f 79/1/3 78/1/3 77/1/3
f 79/1/3 76/1/3 75/1/3
f 80/1/3 70/1/3 78/1/3
f 80/1/3 78/1/3 79/1/3
f 85/1/3 82/1/3 81/1/3
f 86/1/3 82/1/3 85/1/3
f 87/1/3 84/1/3 83/1/3
f 88/1/3 84/1/3 87/1/3
f 90/1/3 87/1/3 86/1/3
f 91/1/3 87/1/3 90/1/3
f 93/1/3 90/1/3 89/1/3
f 94/1/3 90/1/3 93/1/3
f 95/1/3 92/1/3 91/1/3
f 96/1/3 92/1/3 95/1/3
f 97/1/4 98/1/4 101/1/4
f 101/1/4 98/1/4 102/1/4
f 99/1/4 100/1/4 103/1/4
f 103/1/4 100/1/4 104/1/4
f 102/1/4 103/1/4 106/1/4
f 106/1/4 103/1/4 107/1/4
f 105/1/4 106/1/4 109/1/4
f 109/1/4 106/1/4 110/1/4
f 107/1/4 108/1/4 111/1/4
f 111/1/4 108/1/4 112/1/4
f 113/1/4 114/1/4 115/1/4
f 115/1/4 114/1/4 116/1/4
f 116/1/4 114/1/4 117/1/4
f 117/1/4 114/1/4 118/1/4
f 116/1/4 117/1/4 120/1/4
f 120/1/4 117/1/4 121/1/4
f 118/1/4 114/1/4 122/1/4
f 120/1/4 121/1/4 123/1/4
f 121/1/4 122/1/4 123/1/4
f 119/1/4 120/1/4 123/1/4
f 122/1/4 114/1/4 124/1/4
f 123/1/4 122/1/4 124/1/4
f 125/1/4 126/1/4 127/1/4
f 127/1/4 126/1/4 128/1/4
f 133/1/5 130/1/5 129/1/5
f 134/1/5 130/1/5 133/1/5
f 135/1/5 132/1/5 131/1/5
f 136/1/5 132/1/5 135/1/5
f 141/1/5 138/1/5 137/1/5
f 142/1/5 138/1/5 141/1/5
f 143/1/5 140/1/5 139/1/5
f 144/1/5 140/1/5 143/1/5
f 148/1/5 146/1/5 145/1/5
f 149/1/5 146/1/5 148/1/5
f 151/1/5 148/1/5 147/1/5
f 152/1/5 148/1/5 151/1/5
f 153/1/5 150/1/5 149/1/5
f 154/1/5 150/1/5 153/1/5
f 155/1/5 153/1/5 152/1/5
f 156/1/5 153/1/5 155/1/5
f 160/1/5 158/1/5 157/1/5
f 161/1/5 158/1/5 160/1/5
f 163/1/5 160/1/5 159/1/5
f 163/1/5 162/1/5 161/1/5
f 163/1/5 161/1/5 160/1/5
f 164/1/5 162/1/5 163/1/5
f 165/1/5 162/1/5 164/1/5
f 166/1/5 162/1/5 165/1/5
f 167/1/5 165/1/5 164/1/5
f 168/1/5 165/1/5 167/1/5
f 171/1/5 170/1/5 169/1/5
f 172/1/5 170/1/5 171/1/5
f 173/1/5 171/1/5 169/1/5
f 174/1/5 170/1/5 172/1/5
f 175/1/5 173/1/5 169/1/5
f 175/1/5 174/1/5 173/1/5
f 176/1/5 170/1/5 174/1/5
f 176/1/5 174/1/5 175/1/5
f 177/1/6 178/1/6 180/1/6
f 180/1/6 178/1/6 181/1/6
f 179/1/6 180/1/6 183/1/6
f 183/1/6 180/1/6 184/1/6
f 181/1/6 182/1/6 185/1/6
f 185/1/6 182/1/6 186/1/6
f 184/1/6 185/1/6 187/1/6
f 187/1/6 185/1/6 188/1/6
f 189/1/6 190/1/6 191/1/6
f 191/1/6 190/1/6 192/1/6
f 191/2/6 192/2/6 193/2/6
f 193/2/6 192/2/6 194/2/6
f 194/2/6 192/2/6 195/2/6
f 195/2/6 192/2/6 196/2/6
f 196/2/6 192/2/6 197/2/6
f 197/2/6 192/2/6 198/2/6
f 198/2/6 192/2/6 199/2/6
f 199/2/6 192/2/6 200/2/6
f 193/3/6 194/3/6 201/3/6
f 194/1/6 195/1/6 202/1/6
f 201/3/6 194/3/6 202/3/6
f 195/3/6 196/3/6 203/3/6
f 202/1/6 195/1/6 203/1/6
f 203/3/6 196/3/6 204/3/6
f 197/3/6 198/3/6 205/3/6
f 198/1/6 199/1/6 206/1/6
f 205/3/6 198/3/6 206/3/6
f 199/3/6 200/3/6 207/3/6
f 206/1/6 199/1/6 207/1/6
f 207/3/6 200/3/6 208/3/6
f 191/2/6 193/2/6 209/2/6
f 193/3/6 201/3/6 209/3/6
f 201/1/6 202/1/6 210/1/6
f 209/3/6 201/3/6 210/3/6
f 202/1/6 203/1/6 210/1/6
f 203/1/6 204/1/6 210/1/6
f 204/3/6 196/3/6 211/3/6
f 210/1/6 204/1/6 211/1/6
f 196/1/6 197/1/6 212/1/6
f 211/3/6 196/3/6 212/3/6
f 212/1/6 197/1/6 213/1/6
f 213/1/6 197/1/6 214/1/6
f 197/3/6 205/3/6 215/3/6
f 214/1/6 197/1/6 215/1/6
f 207/1/6 208/1/6 216/1/6
f 215/3/6 205/3/6 216/3/6
f 205/1/6 206/1/6 216/1/6
f 206/1/6 207/1/6 216/1/6
f 208/3/6 200/3/6 217/3/6
f 216/1/6 208/1/6 217/1/6
f 200/2/6 192/2/6 218/2/6
f 217/3/6 200/3/6 218/3/6
f 210/1/6 211/1/6 219/1/6
f 209/1/6 210/1/6 219/1/6
f 212/1/6 213/1/6 219/1/6
f 211/1/6 212/1/6 219/1/6
f 213/2/6 214/2/6 220/2/6
f 219/1/6 213/1/6 220/1/6
f 215/1/6 216/1/6 221/1/6
f 220/2/6 214/2/6 221/2/6
f 216/1/6 217/1/6 221/1/6
f 214/1/6 215/1/6 221/1/6
f 217/1/6 218/1/6 221/1/6
f 221/1/6 218/1/6 222/1/6
f 219/2/6 220/2/6 223/2/6
f 209/1/6 219/1/6 223/1/6
f 221/2/6 222/2/6 223/2/6
f 220/2/6 221/2/6 223/2/6
f 223/2/6 222/2/6 224/2/6
f 224/2/6 222/2/6 225/2/6
f 222/1/6 218/1/6 226/1/6
f 225/2/6 222/2/6 226/2/6
f 224/2/6 225/2/6 227/2/6
f 223/1/6 224/1/6 227/1/6
f 225/1/6 226/1/6 228/1/6
f 227/2/6 225/2/6 228/2/6
f 191/2/6 209/2/6 229/2/6
f 209/1/6 223/1/6 229/1/6
f 227/1/6 228/1/6 229/1/6
f 223/1/6 227/1/6 229/1/6
f 229/1/6 228/1/6 230/1/6
f 230/1/6 228/1/6 231/1/6
f 231/1/6 228/1/6 232/1/6
f 226/1/6 218/1/6 233/1/6
f 232/1/6 228/1/6 233/1/6
f 228/1/6 226/1/6 233/1/6
f 233/1/6 218/1/6 234/1/6
f 234/1/6 218/1/6 235/1/6
f 218/2/6 192/2/6 236/2/6
f 235/1/6 218/1/6 236/1/6
f 230/1/6 231/1/6 237/1/6
f 229/3/6 230/3/6 237/3/6
f 237/1/6 231/1/6 238/1/6
f 238/1/6 231/1/6 239/1/6
f 231/3/6 232/3/6 240/3/6
f 239/1/6 231/1/6 240/1/6
f 234/1/6 235/1/6 241/1/6
f 233/3/6 234/3/6 241/3/6
f 241/1/6 235/1/6 242/1/6
f 242/1/6 235/1/6 243/1/6
f 235/3/6 236/3/6 244/3/6
f 243/1/6 235/1/6 244/1/6
f 191/2/6 229/2/6 245/2/6
f 229/3/6 237/3/6 245/3/6
f 237/3/6 238/3/6 245/3/6
f 238/1/6 239/1/6 246/1/6
f 245/3/6 238/3/6 246/3/6
f 239/3/6 240/3/6 247/3/6
f 246/1/6 239/1/6 247/1/6
f 240/3/6 232/3/6 248/3/6
f 247/3/6 240/3/6 248/3/6
f 232/1/6 233/1/6 248/1/6
f 233/3/6 241/3/6 249/3/6
f 248/1/6 233/1/6 249/1/6
f 241/3/6 242/3/6 249/3/6
f 242/1/6 243/1/6 250/1/6
f 249/3/6 242/3/6 250/3/6
f 243/3/6 244/3/6 251/3/6
f 250/1/6 243/1/6 251/1/6
f 236/2/6 192/2/6 252/2/6
f 251/3/6 244/3/6 252/3/6
f 244/3/6 236/3/6 252/3/6
f 189/1/6 191/1/6 253/1/6
f 191/2/6 245/2/6 253/2/6
f 251/2/6 252/2/6 253/2/6
f 245/2/6 246/2/6 253/2/6
f 247/2/6 248/2/6 253/2/6
f 248/2/6 249/2/6 253/2/6
f 249/2/6 250/2/6 253/2/6
f 246/2/6 247/2/6 253/2/6
f 250/2/6 251/2/6 253/2/6
f 252/2/6 192/2/6 254/2/6
f 253/2/6 252/2/6 254/2/6
f 192/1/6 190/1/6 254/1/6
f 189/1/6 253/1/6 255/1/6
f 253/1/6 254/1/6 255/1/6
f 254/1/6 190/1/6 256/1/6
f 255/1/6 254/1/6 256/1/6
