# Blender v2.92.0 OBJ File: 'Clouds.blend'
# www.blender.org
mtllib Cloud-002-2.mtl.mtl
o Cube.016_Cube.017
v -3.539487 -1.274028 5.715322
v -3.507051 0.698463 5.728529
v -3.539487 -1.274028 3.715322
v -3.507051 0.698463 3.728529
v -1.539487 -1.274028 5.715322
v -1.507051 0.698463 5.728529
v -1.539487 -1.274028 3.715322
v -1.507051 0.698463 3.728529
vt 0.367785 0.314255
vt 0.366304 0.045169
vt 0.635390 0.043688
vt 0.636871 0.312774
vt 0.351235 0.170196
vt 0.461931 0.034160
vt 0.648765 0.194065
vt 0.538069 0.330102
vt 0.351815 0.150953
vt 0.472429 0.033931
vt 0.646597 0.213278
vt 0.525984 0.330300
vt 0.367195 0.322311
vt 0.370106 0.046913
vt 0.642330 0.048237
vt 0.639418 0.323636
vt 0.024901 0.674521
vt 0.316359 0.674521
vt 0.316359 0.965980
vt 0.024901 0.965980
vt 0.042424 0.358721
vt 0.292424 0.358721
vt 0.292424 0.608721
vt 0.042424 0.608721
vn -0.9999 0.0164 0.0000
vn 0.0000 0.0067 -1.0000
vn 0.9999 -0.0164 0.0000
vn 0.0000 -0.0067 1.0000
vn 0.0000 -1.0000 0.0000
vn 0.0000 1.0000 0.0000
usemtl Material.017
s off
f 1/1/1 2/2/1 4/3/1 3/4/1
f 3/5/2 4/6/2 8/7/2 7/8/2
f 7/9/3 8/10/3 6/11/3 5/12/3
f 5/13/4 6/14/4 2/15/4 1/16/4
f 3/17/5 7/18/5 5/19/5 1/20/5
f 8/21/6 4/22/6 2/23/6 6/24/6
o Cube.015_Cube.016
v -3.539487 -3.127241 5.715322
v -3.507051 -1.154749 5.728529
v -3.539487 -3.127241 3.715322
v -3.507051 -1.154749 3.728529
v -1.539487 -3.127241 5.715322
v -1.507051 -1.154749 5.728529
v -1.539487 -3.127241 3.715322
v -1.507051 -1.154749 3.728529
vt 0.367785 0.314255
vt 0.366304 0.045169
vt 0.635390 0.043688
vt 0.636871 0.312774
vt 0.351235 0.170196
vt 0.461931 0.034160
vt 0.648765 0.194065
vt 0.538069 0.330102
vt 0.351815 0.150953
vt 0.472429 0.033931
vt 0.646597 0.213278
vt 0.525984 0.330300
vt 0.367195 0.322311
vt 0.370106 0.046913
vt 0.642330 0.048237
vt 0.639418 0.323636
vt 0.024901 0.674521
vt 0.316359 0.674521
vt 0.316359 0.965980
vt 0.024901 0.965980
vt 0.042424 0.358721
vt 0.292424 0.358721
vt 0.292424 0.608721
vt 0.042424 0.608721
vn -0.9999 0.0164 0.0000
vn 0.0000 0.0067 -1.0000
vn 0.9999 -0.0164 0.0000
vn 0.0000 -0.0067 1.0000
vn 0.0000 -1.0000 0.0000
vn 0.0000 1.0000 0.0000
usemtl Material.016
s off
f 9/25/7 10/26/7 12/27/7 11/28/7
f 11/29/8 12/30/8 16/31/8 15/32/8
f 15/33/9 16/34/9 14/35/9 13/36/9
f 13/37/10 14/38/10 10/39/10 9/40/10
f 11/41/11 15/42/11 13/43/11 9/44/11
f 16/45/12 12/46/12 10/47/12 14/48/12
o Cube.014_Cube.015
v -1.640957 -3.127241 5.715322
v -1.608521 -1.154749 5.728529
v -1.640957 -3.127241 3.715322
v -1.608521 -1.154749 3.728529
v 0.359043 -3.127241 5.715322
v 0.391479 -1.154749 5.728529
v 0.359043 -3.127241 3.715322
v 0.391479 -1.154749 3.728529
vt 0.367785 0.314255
vt 0.366304 0.045169
vt 0.635390 0.043688
vt 0.636871 0.312774
vt 0.351235 0.170196
vt 0.461931 0.034160
vt 0.648765 0.194065
vt 0.538069 0.330102
vt 0.351815 0.150953
vt 0.472429 0.033931
vt 0.646597 0.213278
vt 0.525984 0.330300
vt 0.367195 0.322311
vt 0.370106 0.046913
vt 0.642330 0.048237
vt 0.639418 0.323636
vt 0.024901 0.674521
vt 0.316359 0.674521
vt 0.316359 0.965980
vt 0.024901 0.965980
vt 0.042424 0.358721
vt 0.292424 0.358721
vt 0.292424 0.608721
vt 0.042424 0.608721
vn -0.9999 0.0164 0.0000
vn 0.0000 0.0067 -1.0000
vn 0.9999 -0.0164 0.0000
vn 0.0000 -0.0067 1.0000
vn 0.0000 -1.0000 0.0000
vn 0.0000 1.0000 0.0000
usemtl Material.015
s off
f 17/49/13 18/50/13 20/51/13 19/52/13
f 19/53/14 20/54/14 24/55/14 23/56/14
f 23/57/15 24/58/15 22/59/15 21/60/15
f 21/61/16 22/62/16 18/63/16 17/64/16
f 19/65/17 23/66/17 21/67/17 17/68/17
f 24/69/18 20/70/18 18/71/18 22/72/18
o Cube.013_Cube.014
v -5.556372 -3.127241 5.715322
v -5.523935 -1.154749 5.728529
v -5.556372 -3.127241 3.715322
v -5.523935 -1.154749 3.728529
v -3.556372 -3.127241 5.715322
v -3.523936 -1.154749 5.728529
v -3.556372 -3.127241 3.715322
v -3.523936 -1.154749 3.728529
vt 0.367785 0.314255
vt 0.366304 0.045169
vt 0.635390 0.043688
vt 0.636871 0.312774
vt 0.351235 0.170196
vt 0.461931 0.034160
vt 0.648765 0.194065
vt 0.538069 0.330102
vt 0.351815 0.150953
vt 0.472429 0.033931
vt 0.646597 0.213278
vt 0.525984 0.330300
vt 0.367195 0.322311
vt 0.370106 0.046913
vt 0.642330 0.048237
vt 0.639418 0.323636
vt 0.024901 0.674521
vt 0.316359 0.674521
vt 0.316359 0.965980
vt 0.024901 0.965980
vt 0.042424 0.358721
vt 0.292424 0.358721
vt 0.292424 0.608721
vt 0.042424 0.608721
vn -0.9999 0.0164 0.0000
vn 0.0000 0.0067 -1.0000
vn 0.9999 -0.0164 0.0000
vn 0.0000 -0.0067 1.0000
vn 0.0000 -1.0000 0.0000
vn 0.0000 1.0000 0.0000
usemtl Material.014
s off
f 25/73/19 26/74/19 28/75/19 27/76/19
f 27/77/20 28/78/20 32/79/20 31/80/20
f 31/81/21 32/82/21 30/83/21 29/84/21
f 29/85/22 30/86/22 26/87/22 25/88/22
f 27/89/23 31/90/23 29/91/23 25/92/23
f 32/93/24 28/94/24 26/95/24 30/96/24
o Cube.012_Cube.013
v -4.803785 -5.084376 5.715322
v -4.771348 -3.111885 5.728529
v -4.803785 -5.084376 3.715322
v -4.771348 -3.111885 3.728529
v -2.803785 -5.084376 5.715322
v -2.771348 -3.111885 5.728529
v -2.803785 -5.084376 3.715322
v -2.771348 -3.111885 3.728529
vt 0.367785 0.314255
vt 0.366304 0.045169
vt 0.635390 0.043688
vt 0.636871 0.312774
vt 0.351235 0.170196
vt 0.461931 0.034160
vt 0.648765 0.194065
vt 0.538069 0.330102
vt 0.351815 0.150953
vt 0.472429 0.033931
vt 0.646597 0.213278
vt 0.525984 0.330300
vt 0.367195 0.322311
vt 0.370106 0.046913
vt 0.642330 0.048237
vt 0.639418 0.323636
vt 0.024901 0.674521
vt 0.316359 0.674521
vt 0.316359 0.965980
vt 0.024901 0.965980
vt 0.042424 0.358721
vt 0.292424 0.358721
vt 0.292424 0.608721
vt 0.042424 0.608721
vn -0.9999 0.0164 0.0000
vn 0.0000 0.0067 -1.0000
vn 0.9999 -0.0164 0.0000
vn 0.0000 -0.0067 1.0000
vn 0.0000 -1.0000 0.0000
vn 0.0000 1.0000 0.0000
usemtl Material.013
s off
f 33/97/25 34/98/25 36/99/25 35/100/25
f 35/101/26 36/102/26 40/103/26 39/104/26
f 39/105/27 40/106/27 38/107/27 37/108/27
f 37/109/28 38/110/28 34/111/28 33/112/28
f 35/113/29 39/114/29 37/115/29 33/116/29
f 40/117/30 36/118/30 34/119/30 38/120/30
o Cube.011_Cube.012
v -2.786900 -4.322968 5.715322
v -2.754463 -2.350476 5.728529
v -2.786900 -4.322968 3.715322
v -2.754463 -2.350476 3.728529
v -0.786900 -4.322968 5.715322
v -0.754463 -2.350476 5.728529
v -0.786900 -4.322968 3.715322
v -0.754463 -2.350476 3.728529
vt 0.367785 0.314255
vt 0.366304 0.045169
vt 0.635390 0.043688
vt 0.636871 0.312774
vt 0.351235 0.170196
vt 0.461931 0.034160
vt 0.648765 0.194065
vt 0.538069 0.330102
vt 0.351815 0.150953
vt 0.472429 0.033931
vt 0.646597 0.213278
vt 0.525984 0.330300
vt 0.367195 0.322311
vt 0.370106 0.046913
vt 0.642330 0.048237
vt 0.639418 0.323636
vt 0.024901 0.674521
vt 0.316359 0.674521
vt 0.316359 0.965980
vt 0.024901 0.965980
vt 0.042424 0.358721
vt 0.292424 0.358721
vt 0.292424 0.608721
vt 0.042424 0.608721
vn -0.9999 0.0164 0.0000
vn 0.0000 0.0067 -1.0000
vn 0.9999 -0.0164 0.0000
vn 0.0000 -0.0067 1.0000
vn 0.0000 -1.0000 0.0000
vn 0.0000 1.0000 0.0000
usemtl Material.012
s off
f 41/121/31 42/122/31 44/123/31 43/124/31
f 43/125/32 44/126/32 48/127/32 47/128/32
f 47/129/33 48/130/33 46/131/33 45/132/33
f 45/133/34 46/134/34 42/135/34 41/136/34
f 43/137/35 47/138/35 45/139/35 41/140/35
f 48/141/36 44/142/36 42/143/36 46/144/36
o Cube.010_Cube.011
v -3.539487 -3.127241 3.920355
v -3.507051 -1.154749 3.933562
v -3.539487 -3.127241 1.920354
v -3.507051 -1.154749 1.933562
v -1.539487 -3.127241 3.920355
v -1.507051 -1.154749 3.933562
v -1.539487 -3.127241 1.920354
v -1.507051 -1.154749 1.933562
vt 0.367785 0.314255
vt 0.366304 0.045169
vt 0.635390 0.043688
vt 0.636871 0.312774
vt 0.351235 0.170196
vt 0.461931 0.034160
vt 0.648765 0.194065
vt 0.538069 0.330102
vt 0.351815 0.150953
vt 0.472429 0.033931
vt 0.646597 0.213278
vt 0.525984 0.330300
vt 0.367195 0.322311
vt 0.370106 0.046913
vt 0.642330 0.048237
vt 0.639418 0.323636
vt 0.024901 0.674521
vt 0.316359 0.674521
vt 0.316359 0.965980
vt 0.024901 0.965980
vt 0.042424 0.358721
vt 0.292424 0.358721
vt 0.292424 0.608721
vt 0.042424 0.608721
vn -0.9999 0.0164 0.0000
vn 0.0000 0.0067 -1.0000
vn 0.9999 -0.0164 0.0000
vn 0.0000 -0.0067 1.0000
vn 0.0000 -1.0000 0.0000
vn 0.0000 1.0000 0.0000
usemtl Material.011
s off
f 49/145/37 50/146/37 52/147/37 51/148/37
f 51/149/38 52/150/38 56/151/38 55/152/38
f 55/153/39 56/154/39 54/155/39 53/156/39
f 53/157/40 54/158/40 50/159/40 49/160/40
f 51/161/41 55/162/41 53/163/41 49/164/41
f 56/165/42 52/166/42 50/167/42 54/168/42
o Cube.009_Cube.010
v -3.539487 -3.127241 7.500730
v -3.507051 -1.154749 7.513937
v -3.539487 -3.127241 5.500730
v -3.507051 -1.154749 5.513937
v -1.539487 -3.127241 7.500730
v -1.507051 -1.154749 7.513937
v -1.539487 -3.127241 5.500730
v -1.507051 -1.154749 5.513937
vt 0.367785 0.314255
vt 0.366304 0.045169
vt 0.635390 0.043688
vt 0.636871 0.312774
vt 0.351235 0.170196
vt 0.461931 0.034160
vt 0.648765 0.194065
vt 0.538069 0.330102
vt 0.351815 0.150953
vt 0.472429 0.033931
vt 0.646597 0.213278
vt 0.525984 0.330300
vt 0.367195 0.322311
vt 0.370106 0.046913
vt 0.642330 0.048237
vt 0.639418 0.323636
vt 0.024901 0.674521
vt 0.316359 0.674521
vt 0.316359 0.965980
vt 0.024901 0.965980
vt 0.042424 0.358721
vt 0.292424 0.358721
vt 0.292424 0.608721
vt 0.042424 0.608721
vn -0.9999 0.0164 0.0000
vn 0.0000 0.0067 -1.0000
vn 0.9999 -0.0164 0.0000
vn 0.0000 -0.0067 1.0000
vn 0.0000 -1.0000 0.0000
vn 0.0000 1.0000 0.0000
usemtl Material.010
s off
f 57/169/43 58/170/43 60/171/43 59/172/43
f 59/173/44 60/174/44 64/175/44 63/176/44
f 63/177/45 64/178/45 62/179/45 61/180/45
f 61/181/46 62/182/46 58/183/46 57/184/46
f 59/185/47 63/186/47 61/187/47 57/188/47
f 64/189/48 60/190/48 58/191/48 62/192/48
