# MagicaVoxel @ Ephtracy

# group
o 

# material
mtllib Oak_tree (Stage 5).mtl
usemtl palette

# normals
vn -1 0 0
vn 1 0 0
vn 0 0 1
vn 0 0 -1
vn 0 -1 0
vn 0 1 0

# texcoords
vt 0.134766 0.5
vt 0.150391 0.5

# verts
v -4.7 11.3 8.9
v -4.7 11.3 -0.5
v -4.7 22.3 8.9
v -4.7 22.3 -0.5
v -3.2 6.9 4.9
v -3.2 6.9 3.4
v -3.2 7.7 4.9
v -3.2 7.7 3.4
v -2.9 5.7 4.5
v -2.9 5.7 3.8
v -2.9 6.9 4.5
v -2.9 6.9 3.8
v -2 0 5.1
v -2 0 4.6
v -2 0.2 5.1
v -2 0.2 4.6
v -1.6 0 3.8
v -1.6 0 2.6
v -1.6 0.5 3.8
v -1.6 0.5 2.6
v -1.4 0 5.5
v -1.4 0 5.1
v -1.4 0.2 5.1
v -1.4 0.2 4.6
v -1.4 0.9 5.5
v -1.4 0.9 4.6
v -1.2 0 4.6
v -1.2 0 3.8
v -1.2 0.5 3.8
v -1.2 0.5 3
v -1.2 0.9 5.4
v -1.2 0.9 4.6
v -1.2 5.7 4.5
v -1.2 5.7 3.8
v -1.2 6.2 4.5
v -1.2 6.2 3.8
v -1.2 11.3 5.4
v -1.2 11.3 3
v -1.1 8 2.1
v -1.1 8 -1.3411e-007
v -1.1 9.5 2.1
v -1.1 9.5 -1.3411e-007
v -0.5 5.8 3
v -0.5 5.8 0.6
v -0.5 6.8 3
v -0.5 6.8 1.6
v -0.5 8 1.6
v -0.5 8 0.6
v -0.3 0.5 3
v -0.3 0.5 2.8
v -0.3 1 3
v -0.3 1 2.8
v -0.0999996 0 5.8
v -0.0999996 0 5.4
v -0.0999996 0.6 5.8
v -0.0999996 0.6 5.4
v 0.7 0 6.3
v 0.7 0 5.8
v 0.7 0.2 6.3
v 0.7 0.2 5.8
v 0.7 3.6 5.4
v 0.7 3.6 4.8
v 0.7 5.2 5.4
v 0.7 5.2 4.8
v 1.2 0 2.8
v 1.2 0 2.7
v 1.2 0.3 2.8
v 1.2 0.3 2.7
v -2.3 6.2 4.5
v -2.3 6.2 3.8
v -2.3 6.9 4.5
v -2.3 6.9 3.8
v -2 6.9 4.9
v -2 6.9 3.4
v -2 7.7 4.9
v -2 7.7 3.4
v -0.7 3.6 5.4
v -0.7 3.6 4.8
v -0.7 5.2 5.4
v -0.7 5.2 4.8
v -0.4 0 5.5
v -0.4 0 5.4
v -0.4 0.9 5.5
v -0.4 0.9 5.4
v -0.3 0 2.8
v -0.3 0 2.6
v -0.3 0.5 2.8
v -0.3 0.5 2.6
v 0.5 5.8 3
v 0.5 5.8 0.6
v 0.5 6.8 3
v 0.5 6.8 1.6
v 0.5 8 1.6
v 0.5 8 0.6
v 1 0 6.3
v 1 0 5.8
v 1 0.2 6.3
v 1 0.2 5.8
v 1.1 8 2.1
v 1.1 8 -1.3411e-007
v 1.1 9.5 2.1
v 1.1 9.5 -1.3411e-007
v 1.2 0.6 5.4
v 1.2 0.6 5.1
v 1.2 1 3.3
v 1.2 1 3
v 1.2 1.8 5.1
v 1.2 1.8 3.3
v 1.2 11.3 5.4
v 1.2 11.3 3
v 1.3 0.3 3.3
v 1.3 0.3 2.8
v 1.3 1 3.3
v 1.3 1 2.8
v 1.3 1.3 4.1
v 1.3 1.3 3.3
v 1.3 1.8 4.1
v 1.3 1.8 3.3
v 1.5 0 5.8
v 1.5 0 5.1
v 1.5 0 4
v 1.5 0 3.6
v 1.5 0.3 3.6
v 1.5 0.3 3.3
v 1.5 0.4 4.1
v 1.5 0.4 4
v 1.5 0.6 5.8
v 1.5 0.6 5.1
v 1.5 1.3 4.1
v 1.5 1.3 3.3
v 1.6 0 5.1
v 1.6 0 4.5
v 1.6 0.4 4.5
v 1.6 0.4 4.1
v 1.6 1.8 5.1
v 1.6 1.8 4.1
v 2 0 3.6
v 2 0 2.7
v 2 0.3 3.6
v 2 0.3 2.7
v 2.8 0 4.5
v 2.8 0 4
v 2.8 0.4 4.5
v 2.8 0.4 4
v 4.7 11.3 8.9
v 4.7 11.3 -0.5
v 4.7 22.3 8.9
v 4.7 22.3 -0.5
v -4.7 11.3 8.9
v -4.7 22.3 8.9
v 4.7 11.3 8.9
v 4.7 22.3 8.9
v 0.7 0 6.3
v 0.7 0.2 6.3
v 1 0 6.3
v 1 0.2 6.3
v -0.0999996 0 5.8
v -0.0999996 0.6 5.8
v 0.7 0 5.8
v 0.7 0.2 5.8
v 1 0 5.8
v 1 0.2 5.8
v 1.5 0 5.8
v 1.5 0.6 5.8
v -1.4 0 5.5
v -1.4 0.9 5.5
v -0.4 0 5.5
v -0.4 0.9 5.5
v -1.2 0.9 5.4
v -1.2 11.3 5.4
v -0.7 3.6 5.4
v -0.7 5.2 5.4
v -0.4 0 5.4
v -0.4 0.9 5.4
v -0.0999996 0 5.4
v -0.0999996 0.6 5.4
v 0.7 3.6 5.4
v 0.7 5.2 5.4
v 1.2 0.6 5.4
v 1.2 11.3 5.4
v -2 0 5.1
v -2 0.2 5.1
v -1.4 0 5.1
v -1.4 0.2 5.1
v 1.2 0.6 5.1
v 1.2 1.8 5.1
v 1.5 0 5.1
v 1.5 0.6 5.1
v 1.6 0 5.1
v 1.6 1.8 5.1
v -3.2 6.9 4.9
v -3.2 7.7 4.9
v -2 6.9 4.9
v -2 7.7 4.9
v -0.7 3.6 4.8
v -0.7 5.2 4.8
v 0.7 3.6 4.8
v 0.7 5.2 4.8
v -2.9 5.7 4.5
v -2.9 6.9 4.5
v -2.3 6.2 4.5
v -2.3 6.9 4.5
v -1.2 5.7 4.5
v -1.2 6.2 4.5
v 1.6 0 4.5
v 1.6 0.4 4.5
v 2.8 0 4.5
v 2.8 0.4 4.5
v -1.6 0 3.8
v -1.6 0.5 3.8
v -1.2 0 3.8
v -1.2 0.5 3.8
v 1.5 0 3.6
v 1.5 0.3 3.6
v 2 0 3.6
v 2 0.3 3.6
v -1.1 8 2.1
v -1.1 9.5 2.1
v 1.1 8 2.1
v 1.1 9.5 2.1
v -0.5 6.8 1.6
v -0.5 8 1.6
v 0.5 6.8 1.6
v 0.5 8 1.6
v -2 0 4.6
v -2 0.2 4.6
v -1.4 0.2 4.6
v -1.4 0.9 4.6
v -1.2 0 4.6
v -1.2 0.9 4.6
v 1.3 1.3 4.1
v 1.3 1.8 4.1
v 1.5 0.4 4.1
v 1.5 1.3 4.1
v 1.6 0.4 4.1
v 1.6 1.8 4.1
v 1.5 0 4
v 1.5 0.4 4
v 2.8 0 4
v 2.8 0.4 4
v -2.9 5.7 3.8
v -2.9 6.9 3.8
v -2.3 6.2 3.8
v -2.3 6.9 3.8
v -1.2 5.7 3.8
v -1.2 6.2 3.8
v -3.2 6.9 3.4
v -3.2 7.7 3.4
v -2 6.9 3.4
v -2 7.7 3.4
v 1.2 1 3.3
v 1.2 1.8 3.3
v 1.3 0.3 3.3
v 1.3 1 3.3
v 1.3 1.3 3.3
v 1.3 1.8 3.3
v 1.5 0.3 3.3
v 1.5 1.3 3.3
v -1.2 0.5 3
v -1.2 11.3 3
v -0.5 5.8 3
v -0.5 6.8 3
v -0.3 0.5 3
v -0.3 1 3
v 0.5 5.8 3
v 0.5 6.8 3
v 1.2 1 3
v 1.2 11.3 3
v -0.3 0 2.8
v -0.3 0.5 2.8
v -0.3 1 2.8
v 1.2 0 2.8
v 1.2 0.3 2.8
v 1.3 0.3 2.8
v 1.3 1 2.8
v 1.2 0 2.7
v 1.2 0.3 2.7
v 2 0 2.7
v 2 0.3 2.7
v -1.6 0 2.6
v -1.6 0.5 2.6
v -0.3 0 2.6
v -0.3 0.5 2.6
v -0.5 5.8 0.6
v -0.5 8 0.6
v 0.5 5.8 0.6
v 0.5 8 0.6
v -1.1 8 -1.3411e-007
v -1.1 9.5 -1.3411e-007
v 1.1 8 -1.3411e-007
v 1.1 9.5 -1.3411e-007
v -4.7 11.3 -0.5
v -4.7 22.3 -0.5
v 4.7 11.3 -0.5
v 4.7 22.3 -0.5
v 0.7 0 6.3
v 1 0 6.3
v -0.0999996 0 5.8
v 0.7 0 5.8
v 1 0 5.8
v 1.5 0 5.8
v -1.4 0 5.5
v -0.4 0 5.5
v -0.4 0 5.4
v -0.0999996 0 5.4
v -2 0 5.1
v -1.4 0 5.1
v 1.5 0 5.1
v 1.6 0 5.1
v -2 0 4.6
v -1.2 0 4.6
v 1.6 0 4.5
v 2.8 0 4.5
v 1.5 0 4
v 2.8 0 4
v -1.6 0 3.8
v -1.2 0 3.8
v 1.5 0 3.6
v 2 0 3.6
v -0.3 0 2.8
v 1.2 0 2.8
v 1.2 0 2.7
v 2 0 2.7
v -1.6 0 2.6
v -0.3 0 2.6
v -0.7 5.2 5.4
v 0.7 5.2 5.4
v -0.7 5.2 4.8
v 0.7 5.2 4.8
v -2.9 5.7 4.5
v -1.2 5.7 4.5
v -2.9 5.7 3.8
v -1.2 5.7 3.8
v -0.5 5.8 3
v 0.5 5.8 3
v -0.5 5.8 0.6
v 0.5 5.8 0.6
v -3.2 6.9 4.9
v -2 6.9 4.9
v -2.9 6.9 4.5
v -2.3 6.9 4.5
v -2.9 6.9 3.8
v -2.3 6.9 3.8
v -3.2 6.9 3.4
v -2 6.9 3.4
v -1.1 8 2.1
v 1.1 8 2.1
v -0.5 8 1.6
v 0.5 8 1.6
v -0.5 8 0.6
v 0.5 8 0.6
v -1.1 8 -1.3411e-007
v 1.1 8 -1.3411e-007
v -4.7 11.3 8.9
v 4.7 11.3 8.9
v -1.2 11.3 5.4
v 1.2 11.3 5.4
v -1.2 11.3 3
v 1.2 11.3 3
v -4.7 11.3 -0.5
v 4.7 11.3 -0.5
v 0.7 0.2 6.3
v 1 0.2 6.3
v 0.7 0.2 5.8
v 1 0.2 5.8
v -2 0.2 5.1
v -1.4 0.2 5.1
v -2 0.2 4.6
v -1.4 0.2 4.6
v 1.5 0.3 3.6
v 2 0.3 3.6
v 1.3 0.3 3.3
v 1.5 0.3 3.3
v 1.2 0.3 2.8
v 1.3 0.3 2.8
v 1.2 0.3 2.7
v 2 0.3 2.7
v 1.6 0.4 4.5
v 2.8 0.4 4.5
v 1.5 0.4 4.1
v 1.6 0.4 4.1
v 1.5 0.4 4
v 2.8 0.4 4
v -1.6 0.5 3.8
v -1.2 0.5 3.8
v -1.2 0.5 3
v -0.3 0.5 3
v -0.3 0.5 2.8
v -1.6 0.5 2.6
v -0.3 0.5 2.6
v -0.0999996 0.6 5.8
v 1.5 0.6 5.8
v -0.0999996 0.6 5.4
v 1.2 0.6 5.4
v 1.2 0.6 5.1
v 1.5 0.6 5.1
v -1.4 0.9 5.5
v -0.4 0.9 5.5
v -1.2 0.9 5.4
v -0.4 0.9 5.4
v -1.4 0.9 4.6
v -1.2 0.9 4.6
v 1.2 1 3.3
v 1.3 1 3.3
v -0.3 1 3
v 1.2 1 3
v -0.3 1 2.8
v 1.3 1 2.8
v 1.3 1.3 4.1
v 1.5 1.3 4.1
v 1.3 1.3 3.3
v 1.5 1.3 3.3
v 1.2 1.8 5.1
v 1.6 1.8 5.1
v 1.3 1.8 4.1
v 1.6 1.8 4.1
v 1.2 1.8 3.3
v 1.3 1.8 3.3
v -0.7 3.6 5.4
v 0.7 3.6 5.4
v -0.7 3.6 4.8
v 0.7 3.6 4.8
v -2.3 6.2 4.5
v -1.2 6.2 4.5
v -2.3 6.2 3.8
v -1.2 6.2 3.8
v -0.5 6.8 3
v 0.5 6.8 3
v -0.5 6.8 1.6
v 0.5 6.8 1.6
v -3.2 7.7 4.9
v -2 7.7 4.9
v -3.2 7.7 3.4
v -2 7.7 3.4
v -1.1 9.5 2.1
v 1.1 9.5 2.1
v -1.1 9.5 -1.3411e-007
v 1.1 9.5 -1.3411e-007
v -4.7 22.3 8.9
v 4.7 22.3 8.9
v -4.7 22.3 -0.5
v 4.7 22.3 -0.5

# faces
f 3/1/1 2/1/1 1/1/1
f 4/1/1 2/1/1 3/1/1
f 7/1/1 6/1/1 5/1/1
f 8/1/1 6/1/1 7/1/1
f 11/2/1 10/2/1 9/2/1
f 12/2/1 10/2/1 11/2/1
f 15/2/1 14/2/1 13/2/1
f 16/2/1 14/2/1 15/2/1
f 19/2/1 18/2/1 17/2/1
f 20/2/1 18/2/1 19/2/1
f 23/2/1 22/2/1 21/2/1
f 25/2/1 23/2/1 21/2/1
f 25/2/1 24/2/1 23/2/1
f 26/2/1 24/2/1 25/2/1
f 29/2/1 28/2/1 27/2/1
f 32/2/1 29/2/1 27/2/1
f 32/2/1 30/2/1 29/2/1
f 33/2/1 30/2/1 32/2/1
f 33/2/1 32/2/1 31/2/1
f 34/2/1 30/2/1 33/2/1
f 35/2/1 33/2/1 31/2/1
f 36/2/1 30/2/1 34/2/1
f 37/2/1 35/2/1 31/2/1
f 37/2/1 36/2/1 35/2/1
f 38/2/1 30/2/1 36/2/1
f 38/2/1 36/2/1 37/2/1
f 41/1/1 40/1/1 39/1/1
f 42/1/1 40/1/1 41/1/1
f 45/2/1 44/2/1 43/2/1
f 46/2/1 44/2/1 45/2/1
f 47/2/1 44/2/1 46/2/1
f 48/2/1 44/2/1 47/2/1
f 51/2/1 50/2/1 49/2/1
f 52/2/1 50/2/1 51/2/1
f 55/2/1 54/2/1 53/2/1
f 56/2/1 54/2/1 55/2/1
f 59/2/1 58/2/1 57/2/1
f 60/2/1 58/2/1 59/2/1
f 63/2/1 62/2/1 61/2/1
f 64/2/1 62/2/1 63/2/1
f 67/2/1 66/2/1 65/2/1
f 68/2/1 66/2/1 67/2/1
f 69/2/2 70/2/2 71/2/2
f 71/2/2 70/2/2 72/2/2
f 73/1/2 74/1/2 75/1/2
f 75/1/2 74/1/2 76/1/2
f 77/2/2 78/2/2 79/2/2
f 79/2/2 78/2/2 80/2/2
f 81/2/2 82/2/2 83/2/2
f 83/2/2 82/2/2 84/2/2
f 85/2/2 86/2/2 87/2/2
f 87/2/2 86/2/2 88/2/2
f 89/2/2 90/2/2 91/2/2
f 91/2/2 90/2/2 92/2/2
f 92/2/2 90/2/2 93/2/2
f 93/2/2 90/2/2 94/2/2
f 95/2/2 96/2/2 97/2/2
f 97/2/2 96/2/2 98/2/2
f 99/1/2 100/1/2 101/1/2
f 101/1/2 100/1/2 102/1/2
f 103/2/2 104/2/2 107/2/2
f 105/2/2 106/2/2 108/2/2
f 103/2/2 107/2/2 109/2/2
f 107/2/2 108/2/2 109/2/2
f 108/2/2 106/2/2 110/2/2
f 109/2/2 108/2/2 110/2/2
f 111/2/2 112/2/2 113/2/2
f 113/2/2 112/2/2 114/2/2
f 115/2/2 116/2/2 117/2/2
f 117/2/2 116/2/2 118/2/2
f 121/2/2 122/2/2 123/2/2
f 121/2/2 123/2/2 126/2/2
f 123/2/2 124/2/2 126/2/2
f 119/2/2 120/2/2 127/2/2
f 127/2/2 120/2/2 128/2/2
f 125/2/2 126/2/2 129/2/2
f 126/2/2 124/2/2 130/2/2
f 129/2/2 126/2/2 130/2/2
f 131/2/2 132/2/2 133/2/2
f 131/2/2 133/2/2 135/2/2
f 133/2/2 134/2/2 135/2/2
f 135/2/2 134/2/2 136/2/2
f 137/2/2 138/2/2 139/2/2
f 139/2/2 138/2/2 140/2/2
f 141/2/2 142/2/2 143/2/2
f 143/2/2 142/2/2 144/2/2
f 145/1/2 146/1/2 147/1/2
f 147/1/2 146/1/2 148/1/2
f 151/1/3 150/1/3 149/1/3
f 152/1/3 150/1/3 151/1/3
f 155/2/3 154/2/3 153/2/3
f 156/2/3 154/2/3 155/2/3
f 159/2/3 158/2/3 157/2/3
f 160/2/3 158/2/3 159/2/3
f 162/2/3 158/2/3 160/2/3
f 163/2/3 162/2/3 161/2/3
f 164/2/3 158/2/3 162/2/3
f 164/2/3 162/2/3 163/2/3
f 167/2/3 166/2/3 165/2/3
f 168/2/3 166/2/3 167/2/3
f 171/2/3 170/2/3 169/2/3
f 172/2/3 170/2/3 171/2/3
f 174/2/3 171/2/3 169/2/3
f 175/2/3 174/2/3 173/2/3
f 176/2/3 174/2/3 175/2/3
f 177/2/3 171/2/3 174/2/3
f 177/2/3 174/2/3 176/2/3
f 178/2/3 170/2/3 172/2/3
f 179/2/3 177/2/3 176/2/3
f 179/2/3 178/2/3 177/2/3
f 180/2/3 170/2/3 178/2/3
f 180/2/3 178/2/3 179/2/3
f 183/2/3 182/2/3 181/2/3
f 184/2/3 182/2/3 183/2/3
f 188/2/3 186/2/3 185/2/3
f 189/2/3 188/2/3 187/2/3
f 190/2/3 186/2/3 188/2/3
f 190/2/3 188/2/3 189/2/3
f 193/1/3 192/1/3 191/1/3
f 194/1/3 192/1/3 193/1/3
f 197/2/3 196/2/3 195/2/3
f 198/2/3 196/2/3 197/2/3
f 201/2/3 200/2/3 199/2/3
f 202/2/3 200/2/3 201/2/3
f 203/2/3 201/2/3 199/2/3
f 204/2/3 201/2/3 203/2/3
f 207/2/3 206/2/3 205/2/3
f 208/2/3 206/2/3 207/2/3
f 211/2/3 210/2/3 209/2/3
f 212/2/3 210/2/3 211/2/3
f 215/2/3 214/2/3 213/2/3
f 216/2/3 214/2/3 215/2/3
f 219/1/3 218/1/3 217/1/3
f 220/1/3 218/1/3 219/1/3
f 223/2/3 222/2/3 221/2/3
f 224/2/3 222/2/3 223/2/3
f 225/2/4 226/2/4 227/2/4
f 225/2/4 227/2/4 229/2/4
f 227/2/4 228/2/4 229/2/4
f 229/2/4 228/2/4 230/2/4
f 231/2/4 232/2/4 234/2/4
f 233/2/4 234/2/4 235/2/4
f 234/2/4 232/2/4 236/2/4
f 235/2/4 234/2/4 236/2/4
f 237/2/4 238/2/4 239/2/4
f 239/2/4 238/2/4 240/2/4
f 241/2/4 242/2/4 243/2/4
f 243/2/4 242/2/4 244/2/4
f 241/2/4 243/2/4 245/2/4
f 245/2/4 243/2/4 246/2/4
f 247/1/4 248/1/4 249/1/4
f 249/1/4 248/1/4 250/1/4
f 251/2/4 252/2/4 254/2/4
f 254/2/4 252/2/4 255/2/4
f 255/2/4 252/2/4 256/2/4
f 253/2/4 254/2/4 257/2/4
f 254/2/4 255/2/4 257/2/4
f 257/2/4 255/2/4 258/2/4
f 259/2/4 260/2/4 261/2/4
f 261/2/4 260/2/4 262/2/4
f 259/2/4 261/2/4 263/2/4
f 263/2/4 261/2/4 264/2/4
f 264/2/4 261/2/4 265/2/4
f 262/2/4 260/2/4 266/2/4
f 264/2/4 265/2/4 267/2/4
f 265/2/4 266/2/4 267/2/4
f 266/2/4 260/2/4 268/2/4
f 267/2/4 266/2/4 268/2/4
f 269/2/4 270/2/4 272/2/4
f 270/2/4 271/2/4 272/2/4
f 272/2/4 271/2/4 273/2/4
f 273/2/4 271/2/4 274/2/4
f 274/2/4 271/2/4 275/2/4
f 276/2/4 277/2/4 278/2/4
f 278/2/4 277/2/4 279/2/4
f 280/2/4 281/2/4 282/2/4
f 282/2/4 281/2/4 283/2/4
f 284/2/4 285/2/4 286/2/4
f 286/2/4 285/2/4 287/2/4
f 288/1/4 289/1/4 290/1/4
f 290/1/4 289/1/4 291/1/4
f 292/1/4 293/1/4 294/1/4
f 294/1/4 293/1/4 295/1/4
f 299/2/5 297/2/5 296/2/5
f 300/2/5 297/2/5 299/2/5
f 304/2/5 303/2/5 302/2/5
f 305/2/5 299/2/5 298/2/5
f 305/2/5 300/2/5 299/2/5
f 305/2/5 301/2/5 300/2/5
f 307/2/5 304/2/5 302/2/5
f 307/2/5 305/2/5 304/2/5
f 308/2/5 301/2/5 305/2/5
f 308/2/5 305/2/5 307/2/5
f 310/2/5 307/2/5 306/2/5
f 310/2/5 309/2/5 308/2/5
f 310/2/5 308/2/5 307/2/5
f 311/2/5 309/2/5 310/2/5
f 312/2/5 309/2/5 311/2/5
f 314/2/5 312/2/5 311/2/5
f 314/2/5 313/2/5 312/2/5
f 315/2/5 313/2/5 314/2/5
f 317/2/5 314/2/5 311/2/5
f 318/2/5 314/2/5 317/2/5
f 318/2/5 317/2/5 316/2/5
f 320/2/5 318/2/5 316/2/5
f 320/2/5 319/2/5 318/2/5
f 321/2/5 319/2/5 320/2/5
f 322/2/5 319/2/5 321/2/5
f 323/2/5 319/2/5 322/2/5
f 324/2/5 320/2/5 316/2/5
f 325/2/5 320/2/5 324/2/5
f 328/2/5 327/2/5 326/2/5
f 329/2/5 327/2/5 328/2/5
f 332/2/5 331/2/5 330/2/5
f 333/2/5 331/2/5 332/2/5
f 336/2/5 335/2/5 334/2/5
f 337/2/5 335/2/5 336/2/5
f 340/1/5 339/1/5 338/1/5
f 341/1/5 339/1/5 340/1/5
f 342/1/5 340/1/5 338/1/5
f 343/1/5 339/1/5 341/1/5
f 344/1/5 342/1/5 338/1/5
f 344/1/5 343/1/5 342/1/5
f 345/1/5 339/1/5 343/1/5
f 345/1/5 343/1/5 344/1/5
f 348/1/5 347/1/5 346/1/5
f 349/1/5 347/1/5 348/1/5
f 350/1/5 348/1/5 346/1/5
f 351/1/5 347/1/5 349/1/5
f 352/1/5 350/1/5 346/1/5
f 352/1/5 351/1/5 350/1/5
f 353/1/5 347/1/5 351/1/5
f 353/1/5 351/1/5 352/1/5
f 356/1/5 355/1/5 354/1/5
f 357/1/5 355/1/5 356/1/5
f 358/1/5 356/1/5 354/1/5
f 359/1/5 355/1/5 357/1/5
f 360/1/5 358/1/5 354/1/5
f 360/1/5 359/1/5 358/1/5
f 361/1/5 355/1/5 359/1/5
f 361/1/5 359/1/5 360/1/5
f 362/2/6 363/2/6 364/2/6
f 364/2/6 363/2/6 365/2/6
f 366/2/6 367/2/6 368/2/6
f 368/2/6 367/2/6 369/2/6
f 370/2/6 371/2/6 373/2/6
f 372/2/6 373/2/6 375/2/6
f 374/2/6 375/2/6 376/2/6
f 373/2/6 371/2/6 377/2/6
f 376/2/6 375/2/6 377/2/6
f 375/2/6 373/2/6 377/2/6
f 378/2/6 379/2/6 381/2/6
f 380/2/6 381/2/6 382/2/6
f 381/2/6 379/2/6 383/2/6
f 382/2/6 381/2/6 383/2/6
f 384/2/6 385/2/6 386/2/6
f 386/2/6 387/2/6 388/2/6
f 384/2/6 386/2/6 389/2/6
f 386/2/6 388/2/6 389/2/6
f 389/2/6 388/2/6 390/2/6
f 391/2/6 392/2/6 393/2/6
f 393/2/6 392/2/6 394/2/6
f 394/2/6 392/2/6 395/2/6
f 395/2/6 392/2/6 396/2/6
f 397/2/6 398/2/6 399/2/6
f 399/2/6 398/2/6 400/2/6
f 397/2/6 399/2/6 401/2/6
f 401/2/6 399/2/6 402/2/6
f 403/2/6 404/2/6 406/2/6
f 405/2/6 406/2/6 407/2/6
f 406/2/6 404/2/6 408/2/6
f 407/2/6 406/2/6 408/2/6
f 409/2/6 410/2/6 411/2/6
f 411/2/6 410/2/6 412/2/6
f 413/2/6 414/2/6 415/2/6
f 415/2/6 414/2/6 416/2/6
f 413/2/6 415/2/6 417/2/6
f 417/2/6 415/2/6 418/2/6
f 419/2/6 420/2/6 421/2/6
f 421/2/6 420/2/6 422/2/6
f 423/2/6 424/2/6 425/2/6
f 425/2/6 424/2/6 426/2/6
f 427/2/6 428/2/6 429/2/6
f 429/2/6 428/2/6 430/2/6
f 431/1/6 432/1/6 433/1/6
f 433/1/6 432/1/6 434/1/6
f 435/1/6 436/1/6 437/1/6
f 437/1/6 436/1/6 438/1/6
f 439/1/6 440/1/6 441/1/6
f 441/1/6 440/1/6 442/1/6
