# MagicaVoxel @ Ephtracy

# group
o 

# material
mtllib (5) Tulip Flowers (Stage 5).mtl
usemtl palette

# normals
vn -1 0 0
vn 1 0 0
vn 0 0 1
vn 0 0 -1
vn 0 -1 0
vn 0 1 0

# texcoords
vt 0.548828 0.5
vt 0.697266 0.5
vt 0.701172 0.5
vt 0.705078 0.5

# verts
v -0.3 0.1 0.1
v -0.3 0.1 7.45058e-009
v -0.3 0.2 0.1
v -0.3 0.2 7.45058e-009
v -0.3 0.4 0.1
v -0.3 0.4 7.45058e-009
v -0.3 0.5 0.1
v -0.3 0.5 7.45058e-009
v -0.3 0.6 0.1
v -0.3 0.6 7.45058e-009
v -0.2 0 0.1
v -0.2 0 7.45058e-009
v -0.2 0.1 0.1
v -0.2 0.1 7.45058e-009
v -0.2 0.2 0.1
v -0.2 0.2 7.45058e-009
v -0.2 0.4 0.2
v -0.2 0.4 0.1
v -0.2 0.4 7.45058e-009
v -0.2 0.4 -0.1
v -0.2 0.5 0.2
v -0.2 0.5 0.1
v -0.2 0.5 7.45058e-009
v -0.2 0.5 -0.1
v -0.2 0.6 0.2
v -0.2 0.6 0.1
v -0.2 0.6 7.45058e-009
v -0.2 0.6 -0.1
v -0.2 0.7 0.1
v -0.2 0.7 7.45058e-009
v -0.1 0 0.1
v -0.1 0 7.45058e-009
v -0.1 0.1 0.1
v -0.1 0.1 7.45058e-009
v -0.1 0.2 0.1
v -0.1 0.2 7.45058e-009
v -0.1 0.4 0.2
v -0.1 0.4 0.1
v -0.1 0.4 7.45058e-009
v -0.1 0.4 -0.1
v -0.1 0.5 0.2
v -0.1 0.5 0.1
v -0.1 0.5 7.45058e-009
v -0.1 0.5 -0.1
v -0.1 0.6 0.2
v -0.1 0.6 0.1
v -0.1 0.6 7.45058e-009
v -0.1 0.6 -0.1
v -0.1 0.7 0.1
v -0.1 0.7 7.45058e-009
v 0 0.1 0.1
v 0 0.1 7.45058e-009
v 0 0.2 0.1
v 0 0.2 7.45058e-009
v 0 0.4 0.1
v 0 0.4 7.45058e-009
v 0 0.5 0.1
v 0 0.5 7.45058e-009
v 0 0.6 0.1
v 0 0.6 7.45058e-009
v -0.2 0.4 0.2
v -0.2 0.5 0.2
v -0.2 0.6 0.2
v -0.1 0.4 0.2
v -0.1 0.5 0.2
v -0.1 0.6 0.2
v -0.3 0.1 0.1
v -0.3 0.2 0.1
v -0.3 0.4 0.1
v -0.3 0.5 0.1
v -0.3 0.6 0.1
v -0.2 0 0.1
v -0.2 0.1 0.1
v -0.2 0.2 0.1
v -0.2 0.4 0.1
v -0.2 0.5 0.1
v -0.2 0.6 0.1
v -0.2 0.7 0.1
v -0.1 0 0.1
v -0.1 0.1 0.1
v -0.1 0.2 0.1
v -0.1 0.4 0.1
v -0.1 0.5 0.1
v -0.1 0.6 0.1
v -0.1 0.7 0.1
v 0 0.1 0.1
v 0 0.2 0.1
v 0 0.4 0.1
v 0 0.5 0.1
v 0 0.6 0.1
v -0.3 0.1 7.45058e-009
v -0.3 0.2 7.45058e-009
v -0.3 0.4 7.45058e-009
v -0.3 0.5 7.45058e-009
v -0.3 0.6 7.45058e-009
v -0.2 0 7.45058e-009
v -0.2 0.1 7.45058e-009
v -0.2 0.2 7.45058e-009
v -0.2 0.4 7.45058e-009
v -0.2 0.5 7.45058e-009
v -0.2 0.6 7.45058e-009
v -0.2 0.7 7.45058e-009
v -0.1 0 7.45058e-009
v -0.1 0.1 7.45058e-009
v -0.1 0.2 7.45058e-009
v -0.1 0.4 7.45058e-009
v -0.1 0.5 7.45058e-009
v -0.1 0.6 7.45058e-009
v -0.1 0.7 7.45058e-009
v 0 0.1 7.45058e-009
v 0 0.2 7.45058e-009
v 0 0.4 7.45058e-009
v 0 0.5 7.45058e-009
v 0 0.6 7.45058e-009
v -0.2 0.4 -0.1
v -0.2 0.5 -0.1
v -0.2 0.6 -0.1
v -0.1 0.4 -0.1
v -0.1 0.5 -0.1
v -0.1 0.6 -0.1
v -0.2 0 0.1
v -0.1 0 0.1
v -0.2 0 7.45058e-009
v -0.1 0 7.45058e-009
v -0.3 0.1 0.1
v -0.2 0.1 0.1
v -0.1 0.1 0.1
v 0 0.1 0.1
v -0.3 0.1 7.45058e-009
v -0.2 0.1 7.45058e-009
v -0.1 0.1 7.45058e-009
v 0 0.1 7.45058e-009
v -0.2 0.4 0.2
v -0.1 0.4 0.2
v -0.3 0.4 0.1
v -0.2 0.4 0.1
v -0.1 0.4 0.1
v 0 0.4 0.1
v -0.3 0.4 7.45058e-009
v -0.2 0.4 7.45058e-009
v -0.1 0.4 7.45058e-009
v 0 0.4 7.45058e-009
v -0.2 0.4 -0.1
v -0.1 0.4 -0.1
v -0.3 0.2 0.1
v -0.2 0.2 0.1
v -0.1 0.2 0.1
v 0 0.2 0.1
v -0.3 0.2 7.45058e-009
v -0.2 0.2 7.45058e-009
v -0.1 0.2 7.45058e-009
v 0 0.2 7.45058e-009
v -0.2 0.6 0.2
v -0.1 0.6 0.2
v -0.3 0.6 0.1
v -0.2 0.6 0.1
v -0.1 0.6 0.1
v 0 0.6 0.1
v -0.3 0.6 7.45058e-009
v -0.2 0.6 7.45058e-009
v -0.1 0.6 7.45058e-009
v 0 0.6 7.45058e-009
v -0.2 0.6 -0.1
v -0.1 0.6 -0.1
v -0.2 0.7 0.1
v -0.1 0.7 0.1
v -0.2 0.7 7.45058e-009
v -0.1 0.7 7.45058e-009

# faces
f 3/1/1 2/1/1 1/1/1
f 4/1/1 2/1/1 3/1/1
f 7/4/1 6/4/1 5/4/1
f 8/4/1 6/4/1 7/4/1
f 9/3/1 8/3/1 7/3/1
f 10/3/1 8/3/1 9/3/1
f 13/1/1 12/1/1 11/1/1
f 14/1/1 12/1/1 13/1/1
f 18/1/1 16/1/1 15/1/1
f 19/1/1 16/1/1 18/1/1
f 21/4/1 18/4/1 17/4/1
f 22/4/1 18/4/1 21/4/1
f 23/4/1 20/4/1 19/4/1
f 24/4/1 20/4/1 23/4/1
f 25/3/1 22/3/1 21/3/1
f 26/3/1 22/3/1 25/3/1
f 27/3/1 24/3/1 23/3/1
f 28/3/1 24/3/1 27/3/1
f 29/2/1 27/2/1 26/2/1
f 30/2/1 27/2/1 29/2/1
f 31/1/2 32/1/2 33/1/2
f 33/1/2 32/1/2 34/1/2
f 35/1/2 36/1/2 38/1/2
f 38/1/2 36/1/2 39/1/2
f 37/4/2 38/4/2 41/4/2
f 41/4/2 38/4/2 42/4/2
f 39/4/2 40/4/2 43/4/2
f 43/4/2 40/4/2 44/4/2
f 41/3/2 42/3/2 45/3/2
f 45/3/2 42/3/2 46/3/2
f 43/3/2 44/3/2 47/3/2
f 47/3/2 44/3/2 48/3/2
f 46/2/2 47/2/2 49/2/2
f 49/2/2 47/2/2 50/2/2
f 51/1/2 52/1/2 53/1/2
f 53/1/2 52/1/2 54/1/2
f 55/4/2 56/4/2 57/4/2
f 57/4/2 56/4/2 58/4/2
f 57/3/2 58/3/2 59/3/2
f 59/3/2 58/3/2 60/3/2
f 64/4/3 62/4/3 61/4/3
f 65/3/3 63/3/3 62/3/3
f 65/4/3 62/4/3 64/4/3
f 66/3/3 63/3/3 65/3/3
f 73/1/3 68/1/3 67/1/3
f 74/1/3 68/1/3 73/1/3
f 75/4/3 70/4/3 69/4/3
f 76/3/3 71/3/3 70/3/3
f 76/4/3 70/4/3 75/4/3
f 77/3/3 71/3/3 76/3/3
f 79/1/3 75/1/3 74/1/3
f 79/1/3 74/1/3 73/1/3
f 79/1/3 73/1/3 72/1/3
f 80/1/3 75/1/3 79/1/3
f 81/1/3 75/1/3 80/1/3
f 82/1/3 75/1/3 81/1/3
f 84/2/3 78/2/3 77/2/3
f 85/2/3 78/2/3 84/2/3
f 86/1/3 81/1/3 80/1/3
f 87/1/3 81/1/3 86/1/3
f 88/4/3 83/4/3 82/4/3
f 89/3/3 84/3/3 83/3/3
f 89/4/3 83/4/3 88/4/3
f 90/3/3 84/3/3 89/3/3
f 91/1/4 92/1/4 97/1/4
f 97/1/4 92/1/4 98/1/4
f 93/4/4 94/4/4 99/4/4
f 94/3/4 95/3/4 100/3/4
f 99/4/4 94/4/4 100/4/4
f 100/3/4 95/3/4 101/3/4
f 98/1/4 99/1/4 103/1/4
f 97/1/4 98/1/4 103/1/4
f 96/1/4 97/1/4 103/1/4
f 103/1/4 99/1/4 104/1/4
f 104/1/4 99/1/4 105/1/4
f 105/1/4 99/1/4 106/1/4
f 101/2/4 102/2/4 108/2/4
f 108/2/4 102/2/4 109/2/4
f 104/1/4 105/1/4 110/1/4
f 110/1/4 105/1/4 111/1/4
f 106/4/4 107/4/4 112/4/4
f 107/3/4 108/3/4 113/3/4
f 112/4/4 107/4/4 113/4/4
f 113/3/4 108/3/4 114/3/4
f 115/4/4 116/4/4 118/4/4
f 116/3/4 117/3/4 119/3/4
f 118/4/4 116/4/4 119/4/4
f 119/3/4 117/3/4 120/3/4
f 123/1/5 122/1/5 121/1/5
f 124/1/5 122/1/5 123/1/5
f 129/1/5 126/1/5 125/1/5
f 130/1/5 126/1/5 129/1/5
f 131/1/5 128/1/5 127/1/5
f 132/1/5 128/1/5 131/1/5
f 136/4/5 134/4/5 133/4/5
f 137/4/5 134/4/5 136/4/5
f 139/4/5 136/4/5 135/4/5
f 140/4/5 136/4/5 139/4/5
f 141/4/5 138/4/5 137/4/5
f 142/4/5 138/4/5 141/4/5
f 143/4/5 141/4/5 140/4/5
f 144/4/5 141/4/5 143/4/5
f 145/1/6 146/1/6 149/1/6
f 149/1/6 146/1/6 150/1/6
f 147/1/6 148/1/6 151/1/6
f 151/1/6 148/1/6 152/1/6
f 153/3/6 154/3/6 156/3/6
f 156/3/6 154/3/6 157/3/6
f 155/3/6 156/3/6 159/3/6
f 159/3/6 156/3/6 160/3/6
f 157/3/6 158/3/6 161/3/6
f 161/3/6 158/3/6 162/3/6
f 160/3/6 161/3/6 163/3/6
f 163/3/6 161/3/6 164/3/6
f 165/2/6 166/2/6 167/2/6
f 167/2/6 166/2/6 168/2/6
