# MagicaVoxel @ Ephtracy

# group
o 

# material
mtllib (5) Tulip Flowers (Stage 6).mtl
usemtl palette

# normals
vn -1 0 0
vn 1 0 0
vn 0 0 1
vn 0 0 -1
vn 0 -1 0
vn 0 1 0

# texcoords
vt 0.548828 0.5
vt 0.697266 0.5
vt 0.701172 0.5
vt 0.705078 0.5

# verts
v -0.3 0.1 0.1
v -0.3 0.1 7.45058e-009
v -0.3 0.2 0.1
v -0.3 0.2 7.45058e-009
v -0.3 0.4 0.1
v -0.3 0.4 7.45058e-009
v -0.3 0.5 0.1
v -0.3 0.5 7.45058e-009
v -0.3 0.6 0.1
v -0.3 0.6 7.45058e-009
v -0.3 0.7 0.1
v -0.3 0.7 7.45058e-009
v -0.2 0 0.1
v -0.2 0 7.45058e-009
v -0.2 0.1 0.1
v -0.2 0.1 7.45058e-009
v -0.2 0.2 0.1
v -0.2 0.2 7.45058e-009
v -0.2 0.4 0.2
v -0.2 0.4 0.1
v -0.2 0.4 7.45058e-009
v -0.2 0.4 -0.1
v -0.2 0.5 0.2
v -0.2 0.5 0.1
v -0.2 0.5 7.45058e-009
v -0.2 0.5 -0.1
v -0.2 0.6 0.2
v -0.2 0.6 0.1
v -0.2 0.6 7.45058e-009
v -0.2 0.6 -0.1
v -0.2 0.7 0.2
v -0.2 0.7 0.1
v -0.2 0.7 7.45058e-009
v -0.2 0.7 -0.1
v -0.2 0.8 0.1
v -0.2 0.8 7.45058e-009
v -0.1 0 0.1
v -0.1 0 7.45058e-009
v -0.1 0.1 0.1
v -0.1 0.1 7.45058e-009
v -0.1 0.2 0.1
v -0.1 0.2 7.45058e-009
v -0.1 0.4 0.2
v -0.1 0.4 0.1
v -0.1 0.4 7.45058e-009
v -0.1 0.4 -0.1
v -0.1 0.5 0.2
v -0.1 0.5 0.1
v -0.1 0.5 7.45058e-009
v -0.1 0.5 -0.1
v -0.1 0.6 0.2
v -0.1 0.6 0.1
v -0.1 0.6 7.45058e-009
v -0.1 0.6 -0.1
v -0.1 0.7 0.2
v -0.1 0.7 0.1
v -0.1 0.7 7.45058e-009
v -0.1 0.7 -0.1
v -0.1 0.8 0.1
v -0.1 0.8 7.45058e-009
v 0 0.1 0.1
v 0 0.1 7.45058e-009
v 0 0.2 0.1
v 0 0.2 7.45058e-009
v 0 0.4 0.1
v 0 0.4 7.45058e-009
v 0 0.5 0.1
v 0 0.5 7.45058e-009
v 0 0.6 0.1
v 0 0.6 7.45058e-009
v 0 0.7 0.1
v 0 0.7 7.45058e-009
v -0.2 0.4 0.2
v -0.2 0.5 0.2
v -0.2 0.6 0.2
v -0.2 0.7 0.2
v -0.1 0.4 0.2
v -0.1 0.5 0.2
v -0.1 0.6 0.2
v -0.1 0.7 0.2
v -0.3 0.1 0.1
v -0.3 0.2 0.1
v -0.3 0.4 0.1
v -0.3 0.5 0.1
v -0.3 0.6 0.1
v -0.3 0.7 0.1
v -0.2 0 0.1
v -0.2 0.1 0.1
v -0.2 0.2 0.1
v -0.2 0.4 0.1
v -0.2 0.5 0.1
v -0.2 0.6 0.1
v -0.2 0.7 0.1
v -0.2 0.8 0.1
v -0.1 0 0.1
v -0.1 0.1 0.1
v -0.1 0.2 0.1
v -0.1 0.4 0.1
v -0.1 0.5 0.1
v -0.1 0.6 0.1
v -0.1 0.7 0.1
v -0.1 0.8 0.1
v 0 0.1 0.1
v 0 0.2 0.1
v 0 0.4 0.1
v 0 0.5 0.1
v 0 0.6 0.1
v 0 0.7 0.1
v -0.3 0.1 7.45058e-009
v -0.3 0.2 7.45058e-009
v -0.3 0.4 7.45058e-009
v -0.3 0.5 7.45058e-009
v -0.3 0.6 7.45058e-009
v -0.3 0.7 7.45058e-009
v -0.2 0 7.45058e-009
v -0.2 0.1 7.45058e-009
v -0.2 0.2 7.45058e-009
v -0.2 0.4 7.45058e-009
v -0.2 0.5 7.45058e-009
v -0.2 0.6 7.45058e-009
v -0.2 0.7 7.45058e-009
v -0.2 0.8 7.45058e-009
v -0.1 0 7.45058e-009
v -0.1 0.1 7.45058e-009
v -0.1 0.2 7.45058e-009
v -0.1 0.4 7.45058e-009
v -0.1 0.5 7.45058e-009
v -0.1 0.6 7.45058e-009
v -0.1 0.7 7.45058e-009
v -0.1 0.8 7.45058e-009
v 0 0.1 7.45058e-009
v 0 0.2 7.45058e-009
v 0 0.4 7.45058e-009
v 0 0.5 7.45058e-009
v 0 0.6 7.45058e-009
v 0 0.7 7.45058e-009
v -0.2 0.4 -0.1
v -0.2 0.5 -0.1
v -0.2 0.6 -0.1
v -0.2 0.7 -0.1
v -0.1 0.4 -0.1
v -0.1 0.5 -0.1
v -0.1 0.6 -0.1
v -0.1 0.7 -0.1
v -0.2 0 0.1
v -0.1 0 0.1
v -0.2 0 7.45058e-009
v -0.1 0 7.45058e-009
v -0.3 0.1 0.1
v -0.2 0.1 0.1
v -0.1 0.1 0.1
v 0 0.1 0.1
v -0.3 0.1 7.45058e-009
v -0.2 0.1 7.45058e-009
v -0.1 0.1 7.45058e-009
v 0 0.1 7.45058e-009
v -0.2 0.4 0.2
v -0.1 0.4 0.2
v -0.3 0.4 0.1
v -0.2 0.4 0.1
v -0.1 0.4 0.1
v 0 0.4 0.1
v -0.3 0.4 7.45058e-009
v -0.2 0.4 7.45058e-009
v -0.1 0.4 7.45058e-009
v 0 0.4 7.45058e-009
v -0.2 0.4 -0.1
v -0.1 0.4 -0.1
v -0.3 0.2 0.1
v -0.2 0.2 0.1
v -0.1 0.2 0.1
v 0 0.2 0.1
v -0.3 0.2 7.45058e-009
v -0.2 0.2 7.45058e-009
v -0.1 0.2 7.45058e-009
v 0 0.2 7.45058e-009
v -0.2 0.7 0.2
v -0.1 0.7 0.2
v -0.3 0.7 0.1
v -0.2 0.7 0.1
v -0.1 0.7 0.1
v 0 0.7 0.1
v -0.3 0.7 7.45058e-009
v -0.2 0.7 7.45058e-009
v -0.1 0.7 7.45058e-009
v 0 0.7 7.45058e-009
v -0.2 0.7 -0.1
v -0.1 0.7 -0.1
v -0.2 0.8 0.1
v -0.1 0.8 0.1
v -0.2 0.8 7.45058e-009
v -0.1 0.8 7.45058e-009

# faces
f 3/1/1 2/1/1 1/1/1
f 4/1/1 2/1/1 3/1/1
f 7/4/1 6/4/1 5/4/1
f 8/4/1 6/4/1 7/4/1
f 9/3/1 8/3/1 7/3/1
f 10/3/1 8/3/1 9/3/1
f 11/2/1 10/2/1 9/2/1
f 12/2/1 10/2/1 11/2/1
f 15/1/1 14/1/1 13/1/1
f 16/1/1 14/1/1 15/1/1
f 20/1/1 18/1/1 17/1/1
f 21/1/1 18/1/1 20/1/1
f 23/4/1 20/4/1 19/4/1
f 24/4/1 20/4/1 23/4/1
f 25/4/1 22/4/1 21/4/1
f 26/4/1 22/4/1 25/4/1
f 27/3/1 24/3/1 23/3/1
f 28/3/1 24/3/1 27/3/1
f 29/3/1 26/3/1 25/3/1
f 30/3/1 26/3/1 29/3/1
f 31/2/1 28/2/1 27/2/1
f 32/2/1 28/2/1 31/2/1
f 33/2/1 30/2/1 29/2/1
f 34/2/1 30/2/1 33/2/1
f 35/2/1 33/2/1 32/2/1
f 36/2/1 33/2/1 35/2/1
f 37/1/2 38/1/2 39/1/2
f 39/1/2 38/1/2 40/1/2
f 41/1/2 42/1/2 44/1/2
f 44/1/2 42/1/2 45/1/2
f 43/4/2 44/4/2 47/4/2
f 47/4/2 44/4/2 48/4/2
f 45/4/2 46/4/2 49/4/2
f 49/4/2 46/4/2 50/4/2
f 47/3/2 48/3/2 51/3/2
f 51/3/2 48/3/2 52/3/2
f 49/3/2 50/3/2 53/3/2
f 53/3/2 50/3/2 54/3/2
f 51/2/2 52/2/2 55/2/2
f 55/2/2 52/2/2 56/2/2
f 53/2/2 54/2/2 57/2/2
f 57/2/2 54/2/2 58/2/2
f 56/2/2 57/2/2 59/2/2
f 59/2/2 57/2/2 60/2/2
f 61/1/2 62/1/2 63/1/2
f 63/1/2 62/1/2 64/1/2
f 65/4/2 66/4/2 67/4/2
f 67/4/2 66/4/2 68/4/2
f 67/3/2 68/3/2 69/3/2
f 69/3/2 68/3/2 70/3/2
f 69/2/2 70/2/2 71/2/2
f 71/2/2 70/2/2 72/2/2
f 77/4/3 74/4/3 73/4/3
f 78/3/3 75/3/3 74/3/3
f 78/4/3 74/4/3 77/4/3
f 79/2/3 76/2/3 75/2/3
f 79/3/3 75/3/3 78/3/3
f 80/2/3 76/2/3 79/2/3
f 88/1/3 82/1/3 81/1/3
f 89/1/3 82/1/3 88/1/3
f 90/4/3 84/4/3 83/4/3
f 91/3/3 85/3/3 84/3/3
f 91/4/3 84/4/3 90/4/3
f 92/2/3 86/2/3 85/2/3
f 92/3/3 85/3/3 91/3/3
f 93/2/3 86/2/3 92/2/3
f 95/1/3 89/1/3 88/1/3
f 95/1/3 90/1/3 89/1/3
f 95/1/3 88/1/3 87/1/3
f 96/1/3 90/1/3 95/1/3
f 97/1/3 90/1/3 96/1/3
f 98/1/3 90/1/3 97/1/3
f 101/2/3 94/2/3 93/2/3
f 102/2/3 94/2/3 101/2/3
f 103/1/3 97/1/3 96/1/3
f 104/1/3 97/1/3 103/1/3
f 105/4/3 99/4/3 98/4/3
f 106/3/3 100/3/3 99/3/3
f 106/4/3 99/4/3 105/4/3
f 107/2/3 101/2/3 100/2/3
f 107/3/3 100/3/3 106/3/3
f 108/2/3 101/2/3 107/2/3
f 109/1/4 110/1/4 116/1/4
f 116/1/4 110/1/4 117/1/4
f 111/4/4 112/4/4 118/4/4
f 112/3/4 113/3/4 119/3/4
f 118/4/4 112/4/4 119/4/4
f 113/2/4 114/2/4 120/2/4
f 119/3/4 113/3/4 120/3/4
f 120/2/4 114/2/4 121/2/4
f 116/1/4 117/1/4 123/1/4
f 117/1/4 118/1/4 123/1/4
f 115/1/4 116/1/4 123/1/4
f 123/1/4 118/1/4 124/1/4
f 124/1/4 118/1/4 125/1/4
f 125/1/4 118/1/4 126/1/4
f 121/2/4 122/2/4 129/2/4
f 129/2/4 122/2/4 130/2/4
f 124/1/4 125/1/4 131/1/4
f 131/1/4 125/1/4 132/1/4
f 126/4/4 127/4/4 133/4/4
f 127/3/4 128/3/4 134/3/4
f 133/4/4 127/4/4 134/4/4
f 128/2/4 129/2/4 135/2/4
f 134/3/4 128/3/4 135/3/4
f 135/2/4 129/2/4 136/2/4
f 137/4/4 138/4/4 141/4/4
f 138/3/4 139/3/4 142/3/4
f 141/4/4 138/4/4 142/4/4
f 139/2/4 140/2/4 143/2/4
f 142/3/4 139/3/4 143/3/4
f 143/2/4 140/2/4 144/2/4
f 147/1/5 146/1/5 145/1/5
f 148/1/5 146/1/5 147/1/5
f 153/1/5 150/1/5 149/1/5
f 154/1/5 150/1/5 153/1/5
f 155/1/5 152/1/5 151/1/5
f 156/1/5 152/1/5 155/1/5
f 160/4/5 158/4/5 157/4/5
f 161/4/5 158/4/5 160/4/5
f 163/4/5 160/4/5 159/4/5
f 164/4/5 160/4/5 163/4/5
f 165/4/5 162/4/5 161/4/5
f 166/4/5 162/4/5 165/4/5
f 167/4/5 165/4/5 164/4/5
f 168/4/5 165/4/5 167/4/5
f 169/1/6 170/1/6 173/1/6
f 173/1/6 170/1/6 174/1/6
f 171/1/6 172/1/6 175/1/6
f 175/1/6 172/1/6 176/1/6
f 177/2/6 178/2/6 180/2/6
f 180/2/6 178/2/6 181/2/6
f 179/2/6 180/2/6 183/2/6
f 183/2/6 180/2/6 184/2/6
f 181/2/6 182/2/6 185/2/6
f 185/2/6 182/2/6 186/2/6
f 184/2/6 185/2/6 187/2/6
f 187/2/6 185/2/6 188/2/6
f 189/2/6 190/2/6 191/2/6
f 191/2/6 190/2/6 192/2/6
