# MagicaVoxel @ Ephtracy

# group
o 

# material
mtllib (5) Tulip Flowers (Stage 4).mtl
usemtl palette

# normals
vn -1 0 0
vn 1 0 0
vn 0 0 1
vn 0 0 -1
vn 0 -1 0
vn 0 1 0

# texcoords
vt 0.548828 0.5
vt 0.697266 0.5
vt 0.701172 0.5

# verts
v -0.3 0.1 0.1
v -0.3 0.1 7.45058e-009
v -0.3 0.2 0.1
v -0.3 0.2 7.45058e-009
v -0.3 0.4 0.1
v -0.3 0.4 7.45058e-009
v -0.3 0.5 0.1
v -0.3 0.5 7.45058e-009
v -0.2 0 0.1
v -0.2 0 7.45058e-009
v -0.2 0.1 0.1
v -0.2 0.1 7.45058e-009
v -0.2 0.2 0.1
v -0.2 0.2 7.45058e-009
v -0.2 0.4 0.2
v -0.2 0.4 0.1
v -0.2 0.4 7.45058e-009
v -0.2 0.4 -0.1
v -0.2 0.5 0.2
v -0.2 0.5 0.1
v -0.2 0.5 7.45058e-009
v -0.2 0.5 -0.1
v -0.1 0 0.1
v -0.1 0 7.45058e-009
v -0.1 0.1 0.1
v -0.1 0.1 7.45058e-009
v -0.1 0.2 0.1
v -0.1 0.2 7.45058e-009
v -0.1 0.4 0.2
v -0.1 0.4 0.1
v -0.1 0.4 7.45058e-009
v -0.1 0.4 -0.1
v -0.1 0.5 0.2
v -0.1 0.5 0.1
v -0.1 0.5 7.45058e-009
v -0.1 0.5 -0.1
v 0 0.1 0.1
v 0 0.1 7.45058e-009
v 0 0.2 0.1
v 0 0.2 7.45058e-009
v 0 0.4 0.1
v 0 0.4 7.45058e-009
v 0 0.5 0.1
v 0 0.5 7.45058e-009
v -0.2 0.4 0.2
v -0.2 0.5 0.2
v -0.1 0.4 0.2
v -0.1 0.5 0.2
v -0.3 0.1 0.1
v -0.3 0.2 0.1
v -0.3 0.4 0.1
v -0.3 0.5 0.1
v -0.2 0 0.1
v -0.2 0.1 0.1
v -0.2 0.2 0.1
v -0.2 0.4 0.1
v -0.2 0.5 0.1
v -0.1 0 0.1
v -0.1 0.1 0.1
v -0.1 0.2 0.1
v -0.1 0.4 0.1
v -0.1 0.5 0.1
v 0 0.1 0.1
v 0 0.2 0.1
v 0 0.4 0.1
v 0 0.5 0.1
v -0.3 0.1 7.45058e-009
v -0.3 0.2 7.45058e-009
v -0.3 0.4 7.45058e-009
v -0.3 0.5 7.45058e-009
v -0.2 0 7.45058e-009
v -0.2 0.1 7.45058e-009
v -0.2 0.2 7.45058e-009
v -0.2 0.4 7.45058e-009
v -0.2 0.5 7.45058e-009
v -0.1 0 7.45058e-009
v -0.1 0.1 7.45058e-009
v -0.1 0.2 7.45058e-009
v -0.1 0.4 7.45058e-009
v -0.1 0.5 7.45058e-009
v 0 0.1 7.45058e-009
v 0 0.2 7.45058e-009
v 0 0.4 7.45058e-009
v 0 0.5 7.45058e-009
v -0.2 0.4 -0.1
v -0.2 0.5 -0.1
v -0.1 0.4 -0.1
v -0.1 0.5 -0.1
v -0.2 0 0.1
v -0.1 0 0.1
v -0.2 0 7.45058e-009
v -0.1 0 7.45058e-009
v -0.3 0.1 0.1
v -0.2 0.1 0.1
v -0.1 0.1 0.1
v 0 0.1 0.1
v -0.3 0.1 7.45058e-009
v -0.2 0.1 7.45058e-009
v -0.1 0.1 7.45058e-009
v 0 0.1 7.45058e-009
v -0.2 0.4 0.2
v -0.1 0.4 0.2
v -0.3 0.4 0.1
v -0.2 0.4 0.1
v -0.1 0.4 0.1
v 0 0.4 0.1
v -0.3 0.4 7.45058e-009
v -0.2 0.4 7.45058e-009
v -0.1 0.4 7.45058e-009
v 0 0.4 7.45058e-009
v -0.2 0.4 -0.1
v -0.1 0.4 -0.1
v -0.3 0.2 0.1
v -0.2 0.2 0.1
v -0.1 0.2 0.1
v 0 0.2 0.1
v -0.3 0.2 7.45058e-009
v -0.2 0.2 7.45058e-009
v -0.1 0.2 7.45058e-009
v 0 0.2 7.45058e-009
v -0.2 0.5 0.2
v -0.1 0.5 0.2
v -0.3 0.5 0.1
v -0.2 0.5 0.1
v -0.1 0.5 0.1
v 0 0.5 0.1
v -0.3 0.5 7.45058e-009
v -0.2 0.5 7.45058e-009
v -0.1 0.5 7.45058e-009
v 0 0.5 7.45058e-009
v -0.2 0.5 -0.1
v -0.1 0.5 -0.1

# faces
f 3/1/1 2/1/1 1/1/1
f 4/1/1 2/1/1 3/1/1
f 7/3/1 6/3/1 5/3/1
f 8/3/1 6/3/1 7/3/1
f 11/1/1 10/1/1 9/1/1
f 12/1/1 10/1/1 11/1/1
f 16/1/1 14/1/1 13/1/1
f 17/1/1 14/1/1 16/1/1
f 19/3/1 16/3/1 15/3/1
f 20/3/1 16/3/1 19/3/1
f 21/3/1 18/3/1 17/3/1
f 22/3/1 18/3/1 21/3/1
f 23/1/2 24/1/2 25/1/2
f 25/1/2 24/1/2 26/1/2
f 27/1/2 28/1/2 30/1/2
f 30/1/2 28/1/2 31/1/2
f 29/3/2 30/3/2 33/3/2
f 33/3/2 30/3/2 34/3/2
f 31/3/2 32/3/2 35/3/2
f 35/3/2 32/3/2 36/3/2
f 37/1/2 38/1/2 39/1/2
f 39/1/2 38/1/2 40/1/2
f 41/3/2 42/3/2 43/3/2
f 43/3/2 42/3/2 44/3/2
f 47/3/3 46/3/3 45/3/3
f 48/3/3 46/3/3 47/3/3
f 54/1/3 50/1/3 49/1/3
f 55/1/3 50/1/3 54/1/3
f 56/3/3 52/3/3 51/3/3
f 57/3/3 52/3/3 56/3/3
f 58/1/3 55/1/3 54/1/3
f 58/1/3 54/1/3 53/1/3
f 58/1/3 56/1/3 55/1/3
f 59/1/3 56/1/3 58/1/3
f 60/1/3 56/1/3 59/1/3
f 61/1/3 56/1/3 60/1/3
f 63/1/3 60/1/3 59/1/3
f 64/1/3 60/1/3 63/1/3
f 65/3/3 62/3/3 61/3/3
f 66/3/3 62/3/3 65/3/3
f 67/1/4 68/1/4 72/1/4
f 72/1/4 68/1/4 73/1/4
f 69/3/4 70/3/4 74/3/4
f 74/3/4 70/3/4 75/3/4
f 72/1/4 73/1/4 76/1/4
f 71/1/4 72/1/4 76/1/4
f 73/1/4 74/1/4 76/1/4
f 76/1/4 74/1/4 77/1/4
f 77/1/4 74/1/4 78/1/4
f 78/1/4 74/1/4 79/1/4
f 77/1/4 78/1/4 81/1/4
f 81/1/4 78/1/4 82/1/4
f 79/3/4 80/3/4 83/3/4
f 83/3/4 80/3/4 84/3/4
f 85/3/4 86/3/4 87/3/4
f 87/3/4 86/3/4 88/3/4
f 91/1/5 90/1/5 89/1/5
f 92/1/5 90/1/5 91/1/5
f 97/1/5 94/1/5 93/1/5
f 98/1/5 94/1/5 97/1/5
f 99/1/5 96/1/5 95/1/5
f 100/1/5 96/1/5 99/1/5
f 104/3/5 102/3/5 101/3/5
f 105/3/5 102/3/5 104/3/5
f 107/3/5 104/3/5 103/3/5
f 108/3/5 104/3/5 107/3/5
f 109/3/5 106/3/5 105/3/5
f 110/3/5 106/3/5 109/3/5
f 111/3/5 109/3/5 108/3/5
f 112/3/5 109/3/5 111/3/5
f 113/1/6 114/1/6 117/1/6
f 117/1/6 114/1/6 118/1/6
f 115/1/6 116/1/6 119/1/6
f 119/1/6 116/1/6 120/1/6
f 121/3/6 122/3/6 124/3/6
f 124/3/6 122/3/6 125/3/6
f 123/3/6 124/3/6 127/3/6
f 124/2/6 125/2/6 128/2/6
f 127/3/6 124/3/6 128/3/6
f 125/3/6 126/3/6 129/3/6
f 128/2/6 125/2/6 129/2/6
f 129/3/6 126/3/6 130/3/6
f 128/3/6 129/3/6 131/3/6
f 131/3/6 129/3/6 132/3/6
