# MagicaVoxel @ Ephtracy

# group
o 

# material
mtllib Magnolia_Tree(1) (Stage 5).mtl
usemtl palette

# normals
vn -1 0 0
vn 1 0 0
vn 0 0 1
vn 0 0 -1
vn 0 -1 0
vn 0 1 0

# texcoords
vt 0.220703 0.5
vt 0.642578 0.5

# verts
v -1.1 0.6 0.8
v -1.1 0.6 -1
v -1.1 1.4 0.8
v -1.1 1.4 -1
v -1 0.5 0.9
v -1 0.5 -1.1
v -1 0.6 0.8
v -1 0.6 -1
v -1 1.4 0.8
v -1 1.4 -1
v -1 1.5 0.9
v -1 1.5 -1.1
v -0.9 0.6 1
v -0.9 0.6 0.9
v -0.9 0.6 -1.1
v -0.9 0.6 -1.2
v -0.9 1.4 1
v -0.9 1.4 0.9
v -0.9 1.4 -1.1
v -0.9 1.4 -1.2
v -0.9 1.5 0.8
v -0.9 1.5 -1
v -0.9 1.8 0.8
v -0.9 1.8 -1
v -0.8 1.8 0.7
v -0.8 1.8 -0.9
v -0.8 2.2 0.7
v -0.8 2.2 -0.9
v -0.6 2.2 0.5
v -0.6 2.2 -0.7
v -0.6 2.3 0.5
v -0.6 2.3 -0.7
v -0.3 0 7.45058e-009
v -0.3 0 -0.2
v -0.3 0.5 7.45058e-009
v -0.3 0.5 -0.2
v -0.3 2.3 0.2
v -0.3 2.3 -0.4
v -0.3 2.4 0.2
v -0.3 2.4 -0.4
v -2.98023e-008 0 0.2
v -2.98023e-008 0 7.45058e-009
v -2.98023e-008 0 -0.2
v -2.98023e-008 0 -0.4
v -2.98023e-008 0.5 0.2
v -2.98023e-008 0.5 7.45058e-009
v -2.98023e-008 0.5 -0.2
v -2.98023e-008 0.5 -0.4
v -0.1 0 7.45058e-009
v -0.1 0 -0.2
v -0.1 0.5 7.45058e-009
v -0.1 0.5 -0.2
v 0.2 0 0.2
v 0.2 0 7.45058e-009
v 0.2 0 -0.2
v 0.2 0 -0.4
v 0.2 0.5 0.2
v 0.2 0.5 7.45058e-009
v 0.2 0.5 -0.2
v 0.2 0.5 -0.4
v 0.2 2.3 0.2
v 0.2 2.3 -0.4
v 0.2 2.4 0.2
v 0.2 2.4 -0.4
v 0.5 2.2 0.5
v 0.5 2.2 -0.7
v 0.5 2.3 0.5
v 0.5 2.3 -0.7
v 0.7 1.8 0.7
v 0.7 1.8 -0.9
v 0.7 2.2 0.7
v 0.7 2.2 -0.9
v 0.8 0.6 1
v 0.8 0.6 0.9
v 0.8 0.6 -1.1
v 0.8 0.6 -1.2
v 0.8 1.4 1
v 0.8 1.4 0.9
v 0.8 1.4 -1.1
v 0.8 1.4 -1.2
v 0.8 1.5 0.8
v 0.8 1.5 -1
v 0.8 1.8 0.8
v 0.8 1.8 -1
v 0.9 0.5 0.9
v 0.9 0.5 -1.1
v 0.9 0.6 0.8
v 0.9 0.6 -1
v 0.9 1.4 0.8
v 0.9 1.4 -1
v 0.9 1.5 0.9
v 0.9 1.5 -1.1
v 1 0.6 0.8
v 1 0.6 -1
v 1 1.4 0.8
v 1 1.4 -1
v -0.9 0.6 1
v -0.9 1.4 1
v 0.8 0.6 1
v 0.8 1.4 1
v -1 0.5 0.9
v -1 1.5 0.9
v -0.9 0.6 0.9
v -0.9 1.4 0.9
v 0.8 0.6 0.9
v 0.8 1.4 0.9
v 0.9 0.5 0.9
v 0.9 1.5 0.9
v -1.1 0.6 0.8
v -1.1 1.4 0.8
v -1 0.6 0.8
v -1 1.4 0.8
v -0.9 1.5 0.8
v -0.9 1.8 0.8
v 0.8 1.5 0.8
v 0.8 1.8 0.8
v 0.9 0.6 0.8
v 0.9 1.4 0.8
v 1 0.6 0.8
v 1 1.4 0.8
v -0.8 1.8 0.7
v -0.8 2.2 0.7
v 0.7 1.8 0.7
v 0.7 2.2 0.7
v -0.6 2.2 0.5
v -0.6 2.3 0.5
v 0.5 2.2 0.5
v 0.5 2.3 0.5
v -0.3 2.3 0.2
v -0.3 2.4 0.2
v -2.98023e-008 0 0.2
v -2.98023e-008 0.5 0.2
v 0.2 0 0.2
v 0.2 0.5 0.2
v 0.2 2.3 0.2
v 0.2 2.4 0.2
v -0.3 0 7.45058e-009
v -0.3 0.5 7.45058e-009
v -0.1 0 7.45058e-009
v -0.1 0.5 7.45058e-009
v -2.98023e-008 0 -0.2
v -2.98023e-008 0.5 -0.2
v 0.2 0 -0.2
v 0.2 0.5 -0.2
v -2.98023e-008 0 7.45058e-009
v -2.98023e-008 0.5 7.45058e-009
v 0.2 0 7.45058e-009
v 0.2 0.5 7.45058e-009
v -0.3 0 -0.2
v -0.3 0.5 -0.2
v -0.1 0 -0.2
v -0.1 0.5 -0.2
v -0.3 2.3 -0.4
v -0.3 2.4 -0.4
v -2.98023e-008 0 -0.4
v -2.98023e-008 0.5 -0.4
v 0.2 0 -0.4
v 0.2 0.5 -0.4
v 0.2 2.3 -0.4
v 0.2 2.4 -0.4
v -0.6 2.2 -0.7
v -0.6 2.3 -0.7
v 0.5 2.2 -0.7
v 0.5 2.3 -0.7
v -0.8 1.8 -0.9
v -0.8 2.2 -0.9
v 0.7 1.8 -0.9
v 0.7 2.2 -0.9
v -1.1 0.6 -1
v -1.1 1.4 -1
v -1 0.6 -1
v -1 1.4 -1
v -0.9 1.5 -1
v -0.9 1.8 -1
v 0.8 1.5 -1
v 0.8 1.8 -1
v 0.9 0.6 -1
v 0.9 1.4 -1
v 1 0.6 -1
v 1 1.4 -1
v -1 0.5 -1.1
v -1 1.5 -1.1
v -0.9 0.6 -1.1
v -0.9 1.4 -1.1
v 0.8 0.6 -1.1
v 0.8 1.4 -1.1
v 0.9 0.5 -1.1
v 0.9 1.5 -1.1
v -0.9 0.6 -1.2
v -0.9 1.4 -1.2
v 0.8 0.6 -1.2
v 0.8 1.4 -1.2
v -2.98023e-008 0 0.2
v 0.2 0 0.2
v -0.3 0 7.45058e-009
v -0.1 0 7.45058e-009
v -2.98023e-008 0 7.45058e-009
v 0.2 0 7.45058e-009
v -0.3 0 -0.2
v -0.1 0 -0.2
v -2.98023e-008 0 -0.2
v 0.2 0 -0.2
v -2.98023e-008 0 -0.4
v 0.2 0 -0.4
v -1 0.5 0.9
v 0.9 0.5 0.9
v -2.98023e-008 0.5 0.2
v 0.2 0.5 0.2
v -0.3 0.5 7.45058e-009
v -0.1 0.5 7.45058e-009
v -2.98023e-008 0.5 7.45058e-009
v 0.2 0.5 7.45058e-009
v -0.3 0.5 -0.2
v -0.1 0.5 -0.2
v -2.98023e-008 0.5 -0.2
v 0.2 0.5 -0.2
v -2.98023e-008 0.5 -0.4
v 0.2 0.5 -0.4
v -1 0.5 -1.1
v 0.9 0.5 -1.1
v -0.9 0.6 1
v 0.8 0.6 1
v -0.9 0.6 0.9
v 0.8 0.6 0.9
v -1.1 0.6 0.8
v -1 0.6 0.8
v 0.9 0.6 0.8
v 1 0.6 0.8
v -1.1 0.6 -1
v -1 0.6 -1
v 0.9 0.6 -1
v 1 0.6 -1
v -0.9 0.6 -1.1
v 0.8 0.6 -1.1
v -0.9 0.6 -1.2
v 0.8 0.6 -1.2
v -0.9 1.4 1
v 0.8 1.4 1
v -0.9 1.4 0.9
v 0.8 1.4 0.9
v -1.1 1.4 0.8
v -1 1.4 0.8
v 0.9 1.4 0.8
v 1 1.4 0.8
v -1.1 1.4 -1
v -1 1.4 -1
v 0.9 1.4 -1
v 1 1.4 -1
v -0.9 1.4 -1.1
v 0.8 1.4 -1.1
v -0.9 1.4 -1.2
v 0.8 1.4 -1.2
v -1 1.5 0.9
v 0.9 1.5 0.9
v -0.9 1.5 0.8
v 0.8 1.5 0.8
v -0.9 1.5 -1
v 0.8 1.5 -1
v -1 1.5 -1.1
v 0.9 1.5 -1.1
v -0.9 1.8 0.8
v 0.8 1.8 0.8
v -0.8 1.8 0.7
v 0.7 1.8 0.7
v -0.8 1.8 -0.9
v 0.7 1.8 -0.9
v -0.9 1.8 -1
v 0.8 1.8 -1
v -0.8 2.2 0.7
v 0.7 2.2 0.7
v -0.6 2.2 0.5
v 0.5 2.2 0.5
v -0.6 2.2 -0.7
v 0.5 2.2 -0.7
v -0.8 2.2 -0.9
v 0.7 2.2 -0.9
v -0.6 2.3 0.5
v 0.5 2.3 0.5
v -0.3 2.3 0.2
v 0.2 2.3 0.2
v -0.3 2.3 -0.4
v 0.2 2.3 -0.4
v -0.6 2.3 -0.7
v 0.5 2.3 -0.7
v -0.3 2.4 0.2
v 0.2 2.4 0.2
v -0.3 2.4 -0.4
v 0.2 2.4 -0.4

# faces
f 3/2/1 2/2/1 1/2/1
f 4/2/1 2/2/1 3/2/1
f 7/2/1 6/2/1 5/2/1
f 8/2/1 6/2/1 7/2/1
f 9/2/1 7/2/1 5/2/1
f 10/2/1 6/2/1 8/2/1
f 11/2/1 9/2/1 5/2/1
f 11/2/1 10/2/1 9/2/1
f 12/2/1 6/2/1 10/2/1
f 12/2/1 10/2/1 11/2/1
f 17/2/1 14/2/1 13/2/1
f 18/2/1 14/2/1 17/2/1
f 19/2/1 16/2/1 15/2/1
f 20/2/1 16/2/1 19/2/1
f 23/2/1 22/2/1 21/2/1
f 24/2/1 22/2/1 23/2/1
f 27/2/1 26/2/1 25/2/1
f 28/2/1 26/2/1 27/2/1
f 31/2/1 30/2/1 29/2/1
f 32/2/1 30/2/1 31/2/1
f 35/1/1 34/1/1 33/1/1
f 36/1/1 34/1/1 35/1/1
f 39/2/1 38/2/1 37/2/1
f 40/2/1 38/2/1 39/2/1
f 45/1/1 42/1/1 41/1/1
f 46/1/1 42/1/1 45/1/1
f 47/1/1 44/1/1 43/1/1
f 48/1/1 44/1/1 47/1/1
f 49/1/2 50/1/2 51/1/2
f 51/1/2 50/1/2 52/1/2
f 53/1/2 54/1/2 57/1/2
f 57/1/2 54/1/2 58/1/2
f 55/1/2 56/1/2 59/1/2
f 59/1/2 56/1/2 60/1/2
f 61/2/2 62/2/2 63/2/2
f 63/2/2 62/2/2 64/2/2
f 65/2/2 66/2/2 67/2/2
f 67/2/2 66/2/2 68/2/2
f 69/2/2 70/2/2 71/2/2
f 71/2/2 70/2/2 72/2/2
f 73/2/2 74/2/2 77/2/2
f 77/2/2 74/2/2 78/2/2
f 75/2/2 76/2/2 79/2/2
f 79/2/2 76/2/2 80/2/2
f 81/2/2 82/2/2 83/2/2
f 83/2/2 82/2/2 84/2/2
f 85/2/2 86/2/2 87/2/2
f 87/2/2 86/2/2 88/2/2
f 85/2/2 87/2/2 89/2/2
f 88/2/2 86/2/2 90/2/2
f 85/2/2 89/2/2 91/2/2
f 89/2/2 90/2/2 91/2/2
f 90/2/2 86/2/2 92/2/2
f 91/2/2 90/2/2 92/2/2
f 93/2/2 94/2/2 95/2/2
f 95/2/2 94/2/2 96/2/2
f 99/2/3 98/2/3 97/2/3
f 100/2/3 98/2/3 99/2/3
f 103/2/3 102/2/3 101/2/3
f 104/2/3 102/2/3 103/2/3
f 105/2/3 103/2/3 101/2/3
f 106/2/3 102/2/3 104/2/3
f 107/2/3 105/2/3 101/2/3
f 107/2/3 106/2/3 105/2/3
f 108/2/3 102/2/3 106/2/3
f 108/2/3 106/2/3 107/2/3
f 111/2/3 110/2/3 109/2/3
f 112/2/3 110/2/3 111/2/3
f 115/2/3 114/2/3 113/2/3
f 116/2/3 114/2/3 115/2/3
f 119/2/3 118/2/3 117/2/3
f 120/2/3 118/2/3 119/2/3
f 123/2/3 122/2/3 121/2/3
f 124/2/3 122/2/3 123/2/3
f 127/2/3 126/2/3 125/2/3
f 128/2/3 126/2/3 127/2/3
f 133/1/3 132/1/3 131/1/3
f 134/1/3 132/1/3 133/1/3
f 135/2/3 130/2/3 129/2/3
f 136/2/3 130/2/3 135/2/3
f 139/1/3 138/1/3 137/1/3
f 140/1/3 138/1/3 139/1/3
f 143/1/3 142/1/3 141/1/3
f 144/1/3 142/1/3 143/1/3
f 145/1/4 146/1/4 147/1/4
f 147/1/4 146/1/4 148/1/4
f 149/1/4 150/1/4 151/1/4
f 151/1/4 150/1/4 152/1/4
f 155/1/4 156/1/4 157/1/4
f 157/1/4 156/1/4 158/1/4
f 153/2/4 154/2/4 159/2/4
f 159/2/4 154/2/4 160/2/4
f 161/2/4 162/2/4 163/2/4
f 163/2/4 162/2/4 164/2/4
f 165/2/4 166/2/4 167/2/4
f 167/2/4 166/2/4 168/2/4
f 169/2/4 170/2/4 171/2/4
f 171/2/4 170/2/4 172/2/4
f 173/2/4 174/2/4 175/2/4
f 175/2/4 174/2/4 176/2/4
f 177/2/4 178/2/4 179/2/4
f 179/2/4 178/2/4 180/2/4
f 181/2/4 182/2/4 183/2/4
f 183/2/4 182/2/4 184/2/4
f 181/2/4 183/2/4 185/2/4
f 184/2/4 182/2/4 186/2/4
f 181/2/4 185/2/4 187/2/4
f 185/2/4 186/2/4 187/2/4
f 186/2/4 182/2/4 188/2/4
f 187/2/4 186/2/4 188/2/4
f 189/2/4 190/2/4 191/2/4
f 191/2/4 190/2/4 192/2/4
f 197/1/5 194/1/5 193/1/5
f 198/1/5 194/1/5 197/1/5
f 199/1/5 196/1/5 195/1/5
f 200/1/5 196/1/5 199/1/5
f 203/1/5 202/1/5 201/1/5
f 204/1/5 202/1/5 203/1/5
f 207/2/5 206/2/5 205/2/5
f 208/2/5 206/2/5 207/2/5
f 209/2/5 207/2/5 205/2/5
f 210/2/5 207/2/5 209/2/5
f 211/2/5 207/2/5 210/2/5
f 212/2/5 206/2/5 208/2/5
f 213/2/5 209/2/5 205/2/5
f 214/2/5 211/2/5 210/2/5
f 214/2/5 212/2/5 211/2/5
f 215/2/5 212/2/5 214/2/5
f 216/2/5 206/2/5 212/2/5
f 216/2/5 212/2/5 215/2/5
f 217/2/5 215/2/5 214/2/5
f 217/2/5 214/2/5 213/2/5
f 218/2/5 206/2/5 216/2/5
f 219/2/5 213/2/5 205/2/5
f 219/2/5 218/2/5 217/2/5
f 219/2/5 217/2/5 213/2/5
f 220/2/5 206/2/5 218/2/5
f 220/2/5 218/2/5 219/2/5
f 223/2/5 222/2/5 221/2/5
f 224/2/5 222/2/5 223/2/5
f 229/2/5 226/2/5 225/2/5
f 230/2/5 226/2/5 229/2/5
f 231/2/5 228/2/5 227/2/5
f 232/2/5 228/2/5 231/2/5
f 235/2/5 234/2/5 233/2/5
f 236/2/5 234/2/5 235/2/5
f 237/2/6 238/2/6 239/2/6
f 239/2/6 238/2/6 240/2/6
f 241/2/6 242/2/6 245/2/6
f 245/2/6 242/2/6 246/2/6
f 243/2/6 244/2/6 247/2/6
f 247/2/6 244/2/6 248/2/6
f 249/2/6 250/2/6 251/2/6
f 251/2/6 250/2/6 252/2/6
f 253/2/6 254/2/6 255/2/6
f 255/2/6 254/2/6 256/2/6
f 253/2/6 255/2/6 257/2/6
f 256/2/6 254/2/6 258/2/6
f 253/2/6 257/2/6 259/2/6
f 257/2/6 258/2/6 259/2/6
f 258/2/6 254/2/6 260/2/6
f 259/2/6 258/2/6 260/2/6
f 261/2/6 262/2/6 263/2/6
f 263/2/6 262/2/6 264/2/6
f 261/2/6 263/2/6 265/2/6
f 264/2/6 262/2/6 266/2/6
f 261/2/6 265/2/6 267/2/6
f 265/2/6 266/2/6 267/2/6
f 266/2/6 262/2/6 268/2/6
f 267/2/6 266/2/6 268/2/6
f 269/2/6 270/2/6 271/2/6
f 271/2/6 270/2/6 272/2/6
f 269/2/6 271/2/6 273/2/6
f 272/2/6 270/2/6 274/2/6
f 269/2/6 273/2/6 275/2/6
f 273/2/6 274/2/6 275/2/6
f 274/2/6 270/2/6 276/2/6
f 275/2/6 274/2/6 276/2/6
f 277/2/6 278/2/6 279/2/6
f 279/2/6 278/2/6 280/2/6
f 277/2/6 279/2/6 281/2/6
f 280/2/6 278/2/6 282/2/6
f 277/2/6 281/2/6 283/2/6
f 281/2/6 282/2/6 283/2/6
f 282/2/6 278/2/6 284/2/6
f 283/2/6 282/2/6 284/2/6
f 285/2/6 286/2/6 287/2/6
f 287/2/6 286/2/6 288/2/6
