# MagicaVoxel @ Ephtracy

# group
o 

# material
mtllib GrassTall.mtl
usemtl palette

# normals
vn -1 0 0
vn 1 0 0
vn 0 0 1
vn 0 0 -1
vn 0 -1 0
vn 0 1 0

# texcoords
vt 0.119141 0.5
vt 0.123047 0.5
vt 0.548828 0.5
vt 0.552734 0.5

# verts
v 0.3 12.8 -0.4
v 0.3 12.8 -0.5
v 0.3 12.8 -0.9
v 0.3 12.8 -1
v 0.3 12.9 -0.4
v 0.3 12.9 -0.5
v 0.3 12.9 -0.9
v 0.3 12.9 -1
v 0.3 13 -0.4
v 0.3 13 -0.5
v 0.3 13 -0.9
v 0.3 13 -1
v 0.3 13.2 -0.4
v 0.3 13.2 -0.5
v 0.3 13.3 -0.4
v 0.3 13.3 -0.5
v 0.3 13.3 -0.9
v 0.3 13.3 -1
v 0.5 12.8 -0.5
v 0.5 12.8 -0.6
v 0.5 12.9 -0.5
v 0.5 12.9 -0.6
v 0.5 13 -0.5
v 0.5 13 -0.6
v 0.5 13.2 -0.5
v 0.5 13.2 -0.6
v 0.7 12.8 -1.1
v 0.7 12.8 -1.2
v 0.7 12.9 -1.1
v 0.7 12.9 -1.2
v 0.7 13 -1.1
v 0.7 13 -1.2
v 0.7 13.1 -1.1
v 0.7 13.1 -1.2
v 0.7 13.2 -1.1
v 0.7 13.2 -1.2
v 0.8 12.8 -0.7
v 0.8 12.8 -0.8
v 0.8 12.9 -0.7
v 0.8 12.9 -0.8
v 0.8 13 -0.7
v 0.8 13 -0.8
v 0.8 13.1 -0.7
v 0.8 13.1 -0.8
v 0.8 13.4 -0.7
v 0.8 13.4 -0.8
v 0.9 12.8 -0.3
v 0.9 12.8 -0.4
v 0.9 12.8 -1
v 0.9 12.8 -1.1
v 0.9 12.9 -0.3
v 0.9 12.9 -0.4
v 0.9 13 -1
v 0.9 13 -1.1
v 0.9 13.1 -0.3
v 0.9 13.1 -0.4
v 0.9 13.1 -1
v 0.9 13.1 -1.1
v 0.9 13.2 -0.3
v 0.9 13.2 -0.4
v 0.9 13.3 -1
v 0.9 13.3 -1.1
v 1.2 12.8 -0.6
v 1.2 12.8 -0.7
v 1.2 12.9 -0.6
v 1.2 12.9 -0.7
v 1.2 13 -0.6
v 1.2 13 -0.7
v 1.2 13.1 -0.6
v 1.2 13.1 -0.7
v 0.4 12.8 -0.4
v 0.4 12.8 -0.5
v 0.4 12.8 -0.9
v 0.4 12.8 -1
v 0.4 12.9 -0.4
v 0.4 12.9 -0.5
v 0.4 12.9 -0.9
v 0.4 12.9 -1
v 0.4 13 -0.4
v 0.4 13 -0.5
v 0.4 13 -0.9
v 0.4 13 -1
v 0.4 13.2 -0.4
v 0.4 13.2 -0.5
v 0.4 13.3 -0.4
v 0.4 13.3 -0.5
v 0.4 13.3 -0.9
v 0.4 13.3 -1
v 0.6 12.8 -0.5
v 0.6 12.8 -0.6
v 0.6 12.9 -0.5
v 0.6 12.9 -0.6
v 0.6 13 -0.5
v 0.6 13 -0.6
v 0.6 13.2 -0.5
v 0.6 13.2 -0.6
v 0.8 12.8 -1.1
v 0.8 12.8 -1.2
v 0.8 12.9 -1.1
v 0.8 12.9 -1.2
v 0.8 13 -1.1
v 0.8 13 -1.2
v 0.8 13.1 -1.1
v 0.8 13.1 -1.2
v 0.8 13.2 -1.1
v 0.8 13.2 -1.2
v 0.9 12.8 -0.7
v 0.9 12.8 -0.8
v 0.9 12.9 -0.7
v 0.9 12.9 -0.8
v 0.9 13 -0.7
v 0.9 13 -0.8
v 0.9 13.1 -0.7
v 0.9 13.1 -0.8
v 0.9 13.4 -0.7
v 0.9 13.4 -0.8
v 1 12.8 -0.3
v 1 12.8 -0.4
v 1 12.8 -1
v 1 12.8 -1.1
v 1 12.9 -0.3
v 1 12.9 -0.4
v 1 13 -1
v 1 13 -1.1
v 1 13.1 -0.3
v 1 13.1 -0.4
v 1 13.1 -1
v 1 13.1 -1.1
v 1 13.2 -0.3
v 1 13.2 -0.4
v 1 13.3 -1
v 1 13.3 -1.1
v 1.3 12.8 -0.6
v 1.3 12.8 -0.7
v 1.3 12.9 -0.6
v 1.3 12.9 -0.7
v 1.3 13 -0.6
v 1.3 13 -0.7
v 1.3 13.1 -0.6
v 1.3 13.1 -0.7
v 0.9 12.8 -0.3
v 0.9 12.9 -0.3
v 0.9 13.1 -0.3
v 0.9 13.2 -0.3
v 1 12.8 -0.3
v 1 12.9 -0.3
v 1 13.1 -0.3
v 1 13.2 -0.3
v 0.3 12.8 -0.4
v 0.3 12.9 -0.4
v 0.3 13 -0.4
v 0.3 13.2 -0.4
v 0.3 13.3 -0.4
v 0.4 12.8 -0.4
v 0.4 12.9 -0.4
v 0.4 13 -0.4
v 0.4 13.2 -0.4
v 0.4 13.3 -0.4
v 0.5 12.8 -0.5
v 0.5 12.9 -0.5
v 0.5 13 -0.5
v 0.5 13.2 -0.5
v 0.6 12.8 -0.5
v 0.6 12.9 -0.5
v 0.6 13 -0.5
v 0.6 13.2 -0.5
v 1.2 12.8 -0.6
v 1.2 12.9 -0.6
v 1.2 13 -0.6
v 1.2 13.1 -0.6
v 1.3 12.8 -0.6
v 1.3 12.9 -0.6
v 1.3 13 -0.6
v 1.3 13.1 -0.6
v 0.8 12.8 -0.7
v 0.8 12.9 -0.7
v 0.8 13 -0.7
v 0.8 13.1 -0.7
v 0.8 13.4 -0.7
v 0.9 12.8 -0.7
v 0.9 12.9 -0.7
v 0.9 13 -0.7
v 0.9 13.1 -0.7
v 0.9 13.4 -0.7
v 0.3 12.8 -0.9
v 0.3 12.9 -0.9
v 0.3 13 -0.9
v 0.3 13.3 -0.9
v 0.4 12.8 -0.9
v 0.4 12.9 -0.9
v 0.4 13 -0.9
v 0.4 13.3 -0.9
v 0.9 12.8 -1
v 0.9 13 -1
v 0.9 13.1 -1
v 0.9 13.3 -1
v 1 12.8 -1
v 1 13 -1
v 1 13.1 -1
v 1 13.3 -1
v 0.7 12.8 -1.1
v 0.7 12.9 -1.1
v 0.7 13 -1.1
v 0.7 13.1 -1.1
v 0.7 13.2 -1.1
v 0.8 12.8 -1.1
v 0.8 12.9 -1.1
v 0.8 13 -1.1
v 0.8 13.1 -1.1
v 0.8 13.2 -1.1
v 0.9 12.8 -0.4
v 0.9 12.9 -0.4
v 0.9 13.1 -0.4
v 0.9 13.2 -0.4
v 1 12.8 -0.4
v 1 12.9 -0.4
v 1 13.1 -0.4
v 1 13.2 -0.4
v 0.3 12.8 -0.5
v 0.3 12.9 -0.5
v 0.3 13 -0.5
v 0.3 13.2 -0.5
v 0.3 13.3 -0.5
v 0.4 12.8 -0.5
v 0.4 12.9 -0.5
v 0.4 13 -0.5
v 0.4 13.2 -0.5
v 0.4 13.3 -0.5
v 0.5 12.8 -0.6
v 0.5 12.9 -0.6
v 0.5 13 -0.6
v 0.5 13.2 -0.6
v 0.6 12.8 -0.6
v 0.6 12.9 -0.6
v 0.6 13 -0.6
v 0.6 13.2 -0.6
v 1.2 12.8 -0.7
v 1.2 12.9 -0.7
v 1.2 13 -0.7
v 1.2 13.1 -0.7
v 1.3 12.8 -0.7
v 1.3 12.9 -0.7
v 1.3 13 -0.7
v 1.3 13.1 -0.7
v 0.8 12.8 -0.8
v 0.8 12.9 -0.8
v 0.8 13 -0.8
v 0.8 13.1 -0.8
v 0.8 13.4 -0.8
v 0.9 12.8 -0.8
v 0.9 12.9 -0.8
v 0.9 13 -0.8
v 0.9 13.1 -0.8
v 0.9 13.4 -0.8
v 0.3 12.8 -1
v 0.3 12.9 -1
v 0.3 13 -1
v 0.3 13.3 -1
v 0.4 12.8 -1
v 0.4 12.9 -1
v 0.4 13 -1
v 0.4 13.3 -1
v 0.9 12.8 -1.1
v 0.9 13 -1.1
v 0.9 13.1 -1.1
v 0.9 13.3 -1.1
v 1 12.8 -1.1
v 1 13 -1.1
v 1 13.1 -1.1
v 1 13.3 -1.1
v 0.7 12.8 -1.2
v 0.7 12.9 -1.2
v 0.7 13 -1.2
v 0.7 13.1 -1.2
v 0.7 13.2 -1.2
v 0.8 12.8 -1.2
v 0.8 12.9 -1.2
v 0.8 13 -1.2
v 0.8 13.1 -1.2
v 0.8 13.2 -1.2
v 0.9 12.8 -0.3
v 1 12.8 -0.3
v 0.3 12.8 -0.4
v 0.4 12.8 -0.4
v 0.9 12.8 -0.4
v 1 12.8 -0.4
v 0.3 12.8 -0.5
v 0.4 12.8 -0.5
v 0.5 12.8 -0.5
v 0.6 12.8 -0.5
v 0.5 12.8 -0.6
v 0.6 12.8 -0.6
v 1.2 12.8 -0.6
v 1.3 12.8 -0.6
v 0.8 12.8 -0.7
v 0.9 12.8 -0.7
v 1.2 12.8 -0.7
v 1.3 12.8 -0.7
v 0.8 12.8 -0.8
v 0.9 12.8 -0.8
v 0.3 12.8 -0.9
v 0.4 12.8 -0.9
v 0.3 12.8 -1
v 0.4 12.8 -1
v 0.9 12.8 -1
v 1 12.8 -1
v 0.7 12.8 -1.1
v 0.8 12.8 -1.1
v 0.9 12.8 -1.1
v 1 12.8 -1.1
v 0.7 12.8 -1.2
v 0.8 12.8 -1.2
v 1.2 13.1 -0.6
v 1.3 13.1 -0.6
v 1.2 13.1 -0.7
v 1.3 13.1 -0.7
v 0.9 13.2 -0.3
v 1 13.2 -0.3
v 0.9 13.2 -0.4
v 1 13.2 -0.4
v 0.5 13.2 -0.5
v 0.6 13.2 -0.5
v 0.5 13.2 -0.6
v 0.6 13.2 -0.6
v 0.7 13.2 -1.1
v 0.8 13.2 -1.1
v 0.7 13.2 -1.2
v 0.8 13.2 -1.2
v 0.3 13.3 -0.4
v 0.4 13.3 -0.4
v 0.3 13.3 -0.5
v 0.4 13.3 -0.5
v 0.3 13.3 -0.9
v 0.4 13.3 -0.9
v 0.3 13.3 -1
v 0.4 13.3 -1
v 0.9 13.3 -1
v 1 13.3 -1
v 0.9 13.3 -1.1
v 1 13.3 -1.1
v 0.8 13.4 -0.7
v 0.9 13.4 -0.7
v 0.8 13.4 -0.8
v 0.9 13.4 -0.8

# faces
f 5/1/1 2/1/1 1/1/1
f 6/1/1 2/1/1 5/1/1
f 7/1/1 4/1/1 3/1/1
f 8/1/1 4/1/1 7/1/1
f 9/2/1 6/2/1 5/2/1
f 10/2/1 6/2/1 9/2/1
f 11/2/1 8/2/1 7/2/1
f 12/2/1 8/2/1 11/2/1
f 13/3/1 10/3/1 9/3/1
f 14/3/1 10/3/1 13/3/1
f 15/4/1 14/4/1 13/4/1
f 16/4/1 14/4/1 15/4/1
f 17/3/1 12/3/1 11/3/1
f 18/3/1 12/3/1 17/3/1
f 21/1/1 20/1/1 19/1/1
f 22/1/1 20/1/1 21/1/1
f 23/2/1 22/2/1 21/2/1
f 24/2/1 22/2/1 23/2/1
f 25/3/1 24/3/1 23/3/1
f 26/3/1 24/3/1 25/3/1
f 29/1/1 28/1/1 27/1/1
f 30/1/1 28/1/1 29/1/1
f 31/2/1 30/2/1 29/2/1
f 32/2/1 30/2/1 31/2/1
f 33/3/1 32/3/1 31/3/1
f 34/3/1 32/3/1 33/3/1
f 35/4/1 34/4/1 33/4/1
f 36/4/1 34/4/1 35/4/1
f 39/1/1 38/1/1 37/1/1
f 40/1/1 38/1/1 39/1/1
f 41/2/1 40/2/1 39/2/1
f 42/2/1 40/2/1 41/2/1
f 43/3/1 42/3/1 41/3/1
f 44/3/1 42/3/1 43/3/1
f 45/4/1 44/4/1 43/4/1
f 46/4/1 44/4/1 45/4/1
f 51/1/1 48/1/1 47/1/1
f 52/1/1 48/1/1 51/1/1
f 53/1/1 50/1/1 49/1/1
f 54/1/1 50/1/1 53/1/1
f 55/2/1 52/2/1 51/2/1
f 56/2/1 52/2/1 55/2/1
f 57/3/1 54/3/1 53/3/1
f 58/3/1 54/3/1 57/3/1
f 59/3/1 56/3/1 55/3/1
f 60/3/1 56/3/1 59/3/1
f 61/4/1 58/4/1 57/4/1
f 62/4/1 58/4/1 61/4/1
f 65/1/1 64/1/1 63/1/1
f 66/1/1 64/1/1 65/1/1
f 67/2/1 66/2/1 65/2/1
f 68/2/1 66/2/1 67/2/1
f 69/3/1 68/3/1 67/3/1
f 70/3/1 68/3/1 69/3/1
f 71/1/2 72/1/2 75/1/2
f 75/1/2 72/1/2 76/1/2
f 73/1/2 74/1/2 77/1/2
f 77/1/2 74/1/2 78/1/2
f 75/2/2 76/2/2 79/2/2
f 79/2/2 76/2/2 80/2/2
f 77/2/2 78/2/2 81/2/2
f 81/2/2 78/2/2 82/2/2
f 79/3/2 80/3/2 83/3/2
f 83/3/2 80/3/2 84/3/2
f 83/4/2 84/4/2 85/4/2
f 85/4/2 84/4/2 86/4/2
f 81/3/2 82/3/2 87/3/2
f 87/3/2 82/3/2 88/3/2
f 89/1/2 90/1/2 91/1/2
f 91/1/2 90/1/2 92/1/2
f 91/2/2 92/2/2 93/2/2
f 93/2/2 92/2/2 94/2/2
f 93/3/2 94/3/2 95/3/2
f 95/3/2 94/3/2 96/3/2
f 97/1/2 98/1/2 99/1/2
f 99/1/2 98/1/2 100/1/2
f 99/2/2 100/2/2 101/2/2
f 101/2/2 100/2/2 102/2/2
f 101/3/2 102/3/2 103/3/2
f 103/3/2 102/3/2 104/3/2
f 103/4/2 104/4/2 105/4/2
f 105/4/2 104/4/2 106/4/2
f 107/1/2 108/1/2 109/1/2
f 109/1/2 108/1/2 110/1/2
f 109/2/2 110/2/2 111/2/2
f 111/2/2 110/2/2 112/2/2
f 111/3/2 112/3/2 113/3/2
f 113/3/2 112/3/2 114/3/2
f 113/4/2 114/4/2 115/4/2
f 115/4/2 114/4/2 116/4/2
f 117/1/2 118/1/2 121/1/2
f 121/1/2 118/1/2 122/1/2
f 119/1/2 120/1/2 123/1/2
f 123/1/2 120/1/2 124/1/2
f 121/2/2 122/2/2 125/2/2
f 125/2/2 122/2/2 126/2/2
f 123/3/2 124/3/2 127/3/2
f 127/3/2 124/3/2 128/3/2
f 125/3/2 126/3/2 129/3/2
f 129/3/2 126/3/2 130/3/2
f 127/4/2 128/4/2 131/4/2
f 131/4/2 128/4/2 132/4/2
f 133/1/2 134/1/2 135/1/2
f 135/1/2 134/1/2 136/1/2
f 135/2/2 136/2/2 137/2/2
f 137/2/2 136/2/2 138/2/2
f 137/3/2 138/3/2 139/3/2
f 139/3/2 138/3/2 140/3/2
f 145/1/3 142/1/3 141/1/3
f 146/2/3 143/2/3 142/2/3
f 146/1/3 142/1/3 145/1/3
f 147/3/3 144/3/3 143/3/3
f 147/2/3 143/2/3 146/2/3
f 148/3/3 144/3/3 147/3/3
f 154/1/3 150/1/3 149/1/3
f 155/2/3 151/2/3 150/2/3
f 155/1/3 150/1/3 154/1/3
f 156/3/3 152/3/3 151/3/3
f 156/2/3 151/2/3 155/2/3
f 157/4/3 153/4/3 152/4/3
f 157/3/3 152/3/3 156/3/3
f 158/4/3 153/4/3 157/4/3
f 163/1/3 160/1/3 159/1/3
f 164/2/3 161/2/3 160/2/3
f 164/1/3 160/1/3 163/1/3
f 165/3/3 162/3/3 161/3/3
f 165/2/3 161/2/3 164/2/3
f 166/3/3 162/3/3 165/3/3
f 171/1/3 168/1/3 167/1/3
f 172/2/3 169/2/3 168/2/3
f 172/1/3 168/1/3 171/1/3
f 173/3/3 170/3/3 169/3/3
f 173/2/3 169/2/3 172/2/3
f 174/3/3 170/3/3 173/3/3
f 180/1/3 176/1/3 175/1/3
f 181/2/3 177/2/3 176/2/3
f 181/1/3 176/1/3 180/1/3
f 182/3/3 178/3/3 177/3/3
f 182/2/3 177/2/3 181/2/3
f 183/4/3 179/4/3 178/4/3
f 183/3/3 178/3/3 182/3/3
f 184/4/3 179/4/3 183/4/3
f 189/1/3 186/1/3 185/1/3
f 190/2/3 187/2/3 186/2/3
f 190/1/3 186/1/3 189/1/3
f 191/3/3 188/3/3 187/3/3
f 191/2/3 187/2/3 190/2/3
f 192/3/3 188/3/3 191/3/3
f 197/1/3 194/1/3 193/1/3
f 198/3/3 195/3/3 194/3/3
f 198/1/3 194/1/3 197/1/3
f 199/4/3 196/4/3 195/4/3
f 199/3/3 195/3/3 198/3/3
f 200/4/3 196/4/3 199/4/3
f 206/1/3 202/1/3 201/1/3
f 207/2/3 203/2/3 202/2/3
f 207/1/3 202/1/3 206/1/3
f 208/3/3 204/3/3 203/3/3
f 208/2/3 203/2/3 207/2/3
f 209/4/3 205/4/3 204/4/3
f 209/3/3 204/3/3 208/3/3
f 210/4/3 205/4/3 209/4/3
f 211/1/4 212/1/4 215/1/4
f 212/2/4 213/2/4 216/2/4
f 215/1/4 212/1/4 216/1/4
f 213/3/4 214/3/4 217/3/4
f 216/2/4 213/2/4 217/2/4
f 217/3/4 214/3/4 218/3/4
f 219/1/4 220/1/4 224/1/4
f 220/2/4 221/2/4 225/2/4
f 224/1/4 220/1/4 225/1/4
f 221/3/4 222/3/4 226/3/4
f 225/2/4 221/2/4 226/2/4
f 222/4/4 223/4/4 227/4/4
f 226/3/4 222/3/4 227/3/4
f 227/4/4 223/4/4 228/4/4
f 229/1/4 230/1/4 233/1/4
f 230/2/4 231/2/4 234/2/4
f 233/1/4 230/1/4 234/1/4
f 231/3/4 232/3/4 235/3/4
f 234/2/4 231/2/4 235/2/4
f 235/3/4 232/3/4 236/3/4
f 237/1/4 238/1/4 241/1/4
f 238/2/4 239/2/4 242/2/4
f 241/1/4 238/1/4 242/1/4
f 239/3/4 240/3/4 243/3/4
f 242/2/4 239/2/4 243/2/4
f 243/3/4 240/3/4 244/3/4
f 245/1/4 246/1/4 250/1/4
f 246/2/4 247/2/4 251/2/4
f 250/1/4 246/1/4 251/1/4
f 247/3/4 248/3/4 252/3/4
f 251/2/4 247/2/4 252/2/4
f 248/4/4 249/4/4 253/4/4
f 252/3/4 248/3/4 253/3/4
f 253/4/4 249/4/4 254/4/4
f 255/1/4 256/1/4 259/1/4
f 256/2/4 257/2/4 260/2/4
f 259/1/4 256/1/4 260/1/4
f 257/3/4 258/3/4 261/3/4
f 260/2/4 257/2/4 261/2/4
f 261/3/4 258/3/4 262/3/4
f 263/1/4 264/1/4 267/1/4
f 264/3/4 265/3/4 268/3/4
f 267/1/4 264/1/4 268/1/4
f 265/4/4 266/4/4 269/4/4
f 268/3/4 265/3/4 269/3/4
f 269/4/4 266/4/4 270/4/4
f 271/1/4 272/1/4 276/1/4
f 272/2/4 273/2/4 277/2/4
f 276/1/4 272/1/4 277/1/4
f 273/3/4 274/3/4 278/3/4
f 277/2/4 273/2/4 278/2/4
f 274/4/4 275/4/4 279/4/4
f 278/3/4 274/3/4 279/3/4
f 279/4/4 275/4/4 280/4/4
f 285/1/5 282/1/5 281/1/5
f 286/1/5 282/1/5 285/1/5
f 287/1/5 284/1/5 283/1/5
f 288/1/5 284/1/5 287/1/5
f 291/1/5 290/1/5 289/1/5
f 292/1/5 290/1/5 291/1/5
f 297/1/5 294/1/5 293/1/5
f 298/1/5 294/1/5 297/1/5
f 299/1/5 296/1/5 295/1/5
f 300/1/5 296/1/5 299/1/5
f 303/1/5 302/1/5 301/1/5
f 304/1/5 302/1/5 303/1/5
f 309/1/5 306/1/5 305/1/5
f 310/1/5 306/1/5 309/1/5
f 311/1/5 308/1/5 307/1/5
f 312/1/5 308/1/5 311/1/5
f 313/3/6 314/3/6 315/3/6
f 315/3/6 314/3/6 316/3/6
f 317/3/6 318/3/6 319/3/6
f 319/3/6 318/3/6 320/3/6
f 321/3/6 322/3/6 323/3/6
f 323/3/6 322/3/6 324/3/6
f 325/4/6 326/4/6 327/4/6
f 327/4/6 326/4/6 328/4/6
f 329/4/6 330/4/6 331/4/6
f 331/4/6 330/4/6 332/4/6
f 333/3/6 334/3/6 335/3/6
f 335/3/6 334/3/6 336/3/6
f 337/4/6 338/4/6 339/4/6
f 339/4/6 338/4/6 340/4/6
f 341/4/6 342/4/6 343/4/6
f 343/4/6 342/4/6 344/4/6
