# MagicaVoxel @ Ephtracy

# group
o 

# material
mtllib Flower_2.mtl
usemtl palette

# normals
vn -1 0 0
vn 1 0 0
vn 0 0 1
vn 0 0 -1
vn 0 -1 0
vn 0 1 0

# texcoords
vt 0.830078 0.5
vt 0.857422 0.5
vt 0.904297 0.5

# verts
v -0.1 0.3 -0.9
v -0.1 0.3 -1
v -0.1 0.4 -0.9
v -0.1 0.4 -1
v 0 0.1 -0.9
v 0 0.1 -1
v 0 0.3 -0.8
v 0 0.3 -0.9
v 0 0.3 -1
v 0 0.3 -1.1
v 0 0.4 -0.8
v 0 0.4 -0.9
v 0 0.4 -1
v 0 0.4 -1.1
v 0.1 0.3 -0.2
v 0.1 0.3 -0.3
v 0.1 0.4 -0.2
v 0.1 0.4 -0.3
v 0.2 0.1 -0.2
v 0.2 0.1 -0.3
v 0.2 0.3 -0.1
v 0.2 0.3 -0.2
v 0.2 0.3 -0.3
v 0.2 0.3 -0.4
v 0.2 0.4 -0.1
v 0.2 0.4 -0.2
v 0.2 0.4 -0.3
v 0.2 0.4 -0.4
v 0.3 0.3 -0.6
v 0.3 0.3 -0.7
v 0.3 0.4 -0.6
v 0.3 0.4 -0.7
v 0.4 0.1 -0.6
v 0.4 0.1 -0.7
v 0.4 0.3 -0.5
v 0.4 0.3 -0.6
v 0.4 0.3 -0.7
v 0.4 0.3 -0.8
v 0.4 0.4 -0.5
v 0.4 0.4 -0.6
v 0.4 0.4 -0.7
v 0.4 0.4 -0.8
v 0.5 0.3 -0.9
v 0.5 0.3 -1
v 0.5 0.4 -0.9
v 0.5 0.4 -1
v 0.6 0.1 -0.9
v 0.6 0.1 -1
v 0.6 0.3 -0.3
v 0.6 0.3 -0.4
v 0.6 0.3 -0.8
v 0.6 0.3 -0.9
v 0.6 0.3 -1
v 0.6 0.3 -1.1
v 0.6 0.4 -0.3
v 0.6 0.4 -0.4
v 0.6 0.4 -0.8
v 0.6 0.4 -0.9
v 0.6 0.4 -1
v 0.6 0.4 -1.1
v 0.7 0.1 -0.3
v 0.7 0.1 -0.4
v 0.7 0.3 -0.2
v 0.7 0.3 -0.3
v 0.7 0.3 -0.4
v 0.7 0.3 -0.5
v 0.7 0.4 -0.2
v 0.7 0.4 -0.3
v 0.7 0.4 -0.4
v 0.7 0.4 -0.5
v 0.1 0.1 -0.9
v 0.1 0.1 -1
v 0.1 0.3 -0.8
v 0.1 0.3 -0.9
v 0.1 0.3 -1
v 0.1 0.3 -1.1
v 0.1 0.4 -0.8
v 0.1 0.4 -0.9
v 0.1 0.4 -1
v 0.1 0.4 -1.1
v 0.2 0.3 -0.9
v 0.2 0.3 -1
v 0.2 0.4 -0.9
v 0.2 0.4 -1
v 0.3 0.1 -0.2
v 0.3 0.1 -0.3
v 0.3 0.3 -0.1
v 0.3 0.3 -0.2
v 0.3 0.3 -0.3
v 0.3 0.3 -0.4
v 0.3 0.4 -0.1
v 0.3 0.4 -0.2
v 0.3 0.4 -0.3
v 0.3 0.4 -0.4
v 0.4 0.3 -0.2
v 0.4 0.3 -0.3
v 0.4 0.4 -0.2
v 0.4 0.4 -0.3
v 0.5 0.1 -0.6
v 0.5 0.1 -0.7
v 0.5 0.3 -0.5
v 0.5 0.3 -0.6
v 0.5 0.3 -0.7
v 0.5 0.3 -0.8
v 0.5 0.4 -0.5
v 0.5 0.4 -0.6
v 0.5 0.4 -0.7
v 0.5 0.4 -0.8
v 0.6 0.3 -0.6
v 0.6 0.3 -0.7
v 0.6 0.4 -0.6
v 0.6 0.4 -0.7
v 0.7 0.1 -0.9
v 0.7 0.1 -1
v 0.7 0.3 -0.8
v 0.7 0.3 -0.9
v 0.7 0.3 -1
v 0.7 0.3 -1.1
v 0.7 0.4 -0.8
v 0.7 0.4 -0.9
v 0.7 0.4 -1
v 0.7 0.4 -1.1
v 0.8 0.1 -0.3
v 0.8 0.1 -0.4
v 0.8 0.3 -0.2
v 0.8 0.3 -0.3
v 0.8 0.3 -0.4
v 0.8 0.3 -0.5
v 0.8 0.3 -0.9
v 0.8 0.3 -1
v 0.8 0.4 -0.2
v 0.8 0.4 -0.3
v 0.8 0.4 -0.4
v 0.8 0.4 -0.5
v 0.8 0.4 -0.9
v 0.8 0.4 -1
v 0.9 0.3 -0.3
v 0.9 0.3 -0.4
v 0.9 0.4 -0.3
v 0.9 0.4 -0.4
v 0.2 0.3 -0.1
v 0.2 0.4 -0.1
v 0.3 0.3 -0.1
v 0.3 0.4 -0.1
v 0.1 0.3 -0.2
v 0.1 0.4 -0.2
v 0.2 0.1 -0.2
v 0.2 0.3 -0.2
v 0.2 0.4 -0.2
v 0.3 0.1 -0.2
v 0.3 0.3 -0.2
v 0.3 0.4 -0.2
v 0.4 0.3 -0.2
v 0.4 0.4 -0.2
v 0.7 0.3 -0.2
v 0.7 0.4 -0.2
v 0.8 0.3 -0.2
v 0.8 0.4 -0.2
v 0.6 0.3 -0.3
v 0.6 0.4 -0.3
v 0.7 0.1 -0.3
v 0.7 0.3 -0.3
v 0.7 0.4 -0.3
v 0.8 0.1 -0.3
v 0.8 0.3 -0.3
v 0.8 0.4 -0.3
v 0.9 0.3 -0.3
v 0.9 0.4 -0.3
v 0.4 0.3 -0.5
v 0.4 0.4 -0.5
v 0.5 0.3 -0.5
v 0.5 0.4 -0.5
v 0.3 0.3 -0.6
v 0.3 0.4 -0.6
v 0.4 0.1 -0.6
v 0.4 0.3 -0.6
v 0.4 0.4 -0.6
v 0.5 0.1 -0.6
v 0.5 0.3 -0.6
v 0.5 0.4 -0.6
v 0.6 0.3 -0.6
v 0.6 0.4 -0.6
v 0 0.3 -0.8
v 0 0.4 -0.8
v 0.1 0.3 -0.8
v 0.1 0.4 -0.8
v 0.6 0.3 -0.8
v 0.6 0.4 -0.8
v 0.7 0.3 -0.8
v 0.7 0.4 -0.8
v -0.1 0.3 -0.9
v -0.1 0.4 -0.9
v 0 0.1 -0.9
v 0 0.3 -0.9
v 0 0.4 -0.9
v 0.1 0.1 -0.9
v 0.1 0.3 -0.9
v 0.1 0.4 -0.9
v 0.2 0.3 -0.9
v 0.2 0.4 -0.9
v 0.5 0.3 -0.9
v 0.5 0.4 -0.9
v 0.6 0.1 -0.9
v 0.6 0.3 -0.9
v 0.6 0.4 -0.9
v 0.7 0.1 -0.9
v 0.7 0.3 -0.9
v 0.7 0.4 -0.9
v 0.8 0.3 -0.9
v 0.8 0.4 -0.9
v 0.1 0.3 -0.3
v 0.1 0.4 -0.3
v 0.2 0.1 -0.3
v 0.2 0.3 -0.3
v 0.2 0.4 -0.3
v 0.3 0.1 -0.3
v 0.3 0.3 -0.3
v 0.3 0.4 -0.3
v 0.4 0.3 -0.3
v 0.4 0.4 -0.3
v 0.2 0.3 -0.4
v 0.2 0.4 -0.4
v 0.3 0.3 -0.4
v 0.3 0.4 -0.4
v 0.6 0.3 -0.4
v 0.6 0.4 -0.4
v 0.7 0.1 -0.4
v 0.7 0.3 -0.4
v 0.7 0.4 -0.4
v 0.8 0.1 -0.4
v 0.8 0.3 -0.4
v 0.8 0.4 -0.4
v 0.9 0.3 -0.4
v 0.9 0.4 -0.4
v 0.7 0.3 -0.5
v 0.7 0.4 -0.5
v 0.8 0.3 -0.5
v 0.8 0.4 -0.5
v 0.3 0.3 -0.7
v 0.3 0.4 -0.7
v 0.4 0.1 -0.7
v 0.4 0.3 -0.7
v 0.4 0.4 -0.7
v 0.5 0.1 -0.7
v 0.5 0.3 -0.7
v 0.5 0.4 -0.7
v 0.6 0.3 -0.7
v 0.6 0.4 -0.7
v 0.4 0.3 -0.8
v 0.4 0.4 -0.8
v 0.5 0.3 -0.8
v 0.5 0.4 -0.8
v -0.1 0.3 -1
v -0.1 0.4 -1
v 0 0.1 -1
v 0 0.3 -1
v 0 0.4 -1
v 0.1 0.1 -1
v 0.1 0.3 -1
v 0.1 0.4 -1
v 0.2 0.3 -1
v 0.2 0.4 -1
v 0.5 0.3 -1
v 0.5 0.4 -1
v 0.6 0.1 -1
v 0.6 0.3 -1
v 0.6 0.4 -1
v 0.7 0.1 -1
v 0.7 0.3 -1
v 0.7 0.4 -1
v 0.8 0.3 -1
v 0.8 0.4 -1
v 0 0.3 -1.1
v 0 0.4 -1.1
v 0.1 0.3 -1.1
v 0.1 0.4 -1.1
v 0.6 0.3 -1.1
v 0.6 0.4 -1.1
v 0.7 0.3 -1.1
v 0.7 0.4 -1.1
v 0.2 0.1 -0.2
v 0.3 0.1 -0.2
v 0.2 0.1 -0.3
v 0.3 0.1 -0.3
v 0.7 0.1 -0.3
v 0.8 0.1 -0.3
v 0.7 0.1 -0.4
v 0.8 0.1 -0.4
v 0.4 0.1 -0.6
v 0.5 0.1 -0.6
v 0.4 0.1 -0.7
v 0.5 0.1 -0.7
v 0 0.1 -0.9
v 0.1 0.1 -0.9
v 0.6 0.1 -0.9
v 0.7 0.1 -0.9
v 0 0.1 -1
v 0.1 0.1 -1
v 0.6 0.1 -1
v 0.7 0.1 -1
v 0.2 0.3 -0.1
v 0.3 0.3 -0.1
v 0.1 0.3 -0.2
v 0.2 0.3 -0.2
v 0.3 0.3 -0.2
v 0.4 0.3 -0.2
v 0.7 0.3 -0.2
v 0.8 0.3 -0.2
v 0.1 0.3 -0.3
v 0.2 0.3 -0.3
v 0.3 0.3 -0.3
v 0.4 0.3 -0.3
v 0.6 0.3 -0.3
v 0.7 0.3 -0.3
v 0.8 0.3 -0.3
v 0.9 0.3 -0.3
v 0.2 0.3 -0.4
v 0.3 0.3 -0.4
v 0.6 0.3 -0.4
v 0.7 0.3 -0.4
v 0.8 0.3 -0.4
v 0.9 0.3 -0.4
v 0.4 0.3 -0.5
v 0.5 0.3 -0.5
v 0.7 0.3 -0.5
v 0.8 0.3 -0.5
v 0.3 0.3 -0.6
v 0.4 0.3 -0.6
v 0.5 0.3 -0.6
v 0.6 0.3 -0.6
v 0.3 0.3 -0.7
v 0.4 0.3 -0.7
v 0.5 0.3 -0.7
v 0.6 0.3 -0.7
v 0 0.3 -0.8
v 0.1 0.3 -0.8
v 0.4 0.3 -0.8
v 0.5 0.3 -0.8
v 0.6 0.3 -0.8
v 0.7 0.3 -0.8
v -0.1 0.3 -0.9
v 0 0.3 -0.9
v 0.1 0.3 -0.9
v 0.2 0.3 -0.9
v 0.5 0.3 -0.9
v 0.6 0.3 -0.9
v 0.7 0.3 -0.9
v 0.8 0.3 -0.9
v -0.1 0.3 -1
v 0 0.3 -1
v 0.1 0.3 -1
v 0.2 0.3 -1
v 0.5 0.3 -1
v 0.6 0.3 -1
v 0.7 0.3 -1
v 0.8 0.3 -1
v 0 0.3 -1.1
v 0.1 0.3 -1.1
v 0.6 0.3 -1.1
v 0.7 0.3 -1.1
v 0.2 0.4 -0.1
v 0.3 0.4 -0.1
v 0.1 0.4 -0.2
v 0.2 0.4 -0.2
v 0.3 0.4 -0.2
v 0.4 0.4 -0.2
v 0.7 0.4 -0.2
v 0.8 0.4 -0.2
v 0.1 0.4 -0.3
v 0.2 0.4 -0.3
v 0.3 0.4 -0.3
v 0.4 0.4 -0.3
v 0.6 0.4 -0.3
v 0.7 0.4 -0.3
v 0.8 0.4 -0.3
v 0.9 0.4 -0.3
v 0.2 0.4 -0.4
v 0.3 0.4 -0.4
v 0.6 0.4 -0.4
v 0.7 0.4 -0.4
v 0.8 0.4 -0.4
v 0.9 0.4 -0.4
v 0.4 0.4 -0.5
v 0.5 0.4 -0.5
v 0.7 0.4 -0.5
v 0.8 0.4 -0.5
v 0.3 0.4 -0.6
v 0.4 0.4 -0.6
v 0.5 0.4 -0.6
v 0.6 0.4 -0.6
v 0.3 0.4 -0.7
v 0.4 0.4 -0.7
v 0.5 0.4 -0.7
v 0.6 0.4 -0.7
v 0 0.4 -0.8
v 0.1 0.4 -0.8
v 0.4 0.4 -0.8
v 0.5 0.4 -0.8
v 0.6 0.4 -0.8
v 0.7 0.4 -0.8
v -0.1 0.4 -0.9
v 0 0.4 -0.9
v 0.1 0.4 -0.9
v 0.2 0.4 -0.9
v 0.5 0.4 -0.9
v 0.6 0.4 -0.9
v 0.7 0.4 -0.9
v 0.8 0.4 -0.9
v -0.1 0.4 -1
v 0 0.4 -1
v 0.1 0.4 -1
v 0.2 0.4 -1
v 0.5 0.4 -1
v 0.6 0.4 -1
v 0.7 0.4 -1
v 0.8 0.4 -1
v 0 0.4 -1.1
v 0.1 0.4 -1.1
v 0.6 0.4 -1.1
v 0.7 0.4 -1.1

# faces
f 3/3/1 2/3/1 1/3/1
f 4/3/1 2/3/1 3/3/1
f 8/1/1 6/1/1 5/1/1
f 9/1/1 6/1/1 8/1/1
f 11/3/1 8/3/1 7/3/1
f 12/3/1 8/3/1 11/3/1
f 13/3/1 10/3/1 9/3/1
f 14/3/1 10/3/1 13/3/1
f 17/3/1 16/3/1 15/3/1
f 18/3/1 16/3/1 17/3/1
f 22/1/1 20/1/1 19/1/1
f 23/1/1 20/1/1 22/1/1
f 25/3/1 22/3/1 21/3/1
f 26/3/1 22/3/1 25/3/1
f 27/3/1 24/3/1 23/3/1
f 28/3/1 24/3/1 27/3/1
f 31/3/1 30/3/1 29/3/1
f 32/3/1 30/3/1 31/3/1
f 36/1/1 34/1/1 33/1/1
f 37/1/1 34/1/1 36/1/1
f 39/3/1 36/3/1 35/3/1
f 40/3/1 36/3/1 39/3/1
f 41/3/1 38/3/1 37/3/1
f 42/3/1 38/3/1 41/3/1
f 45/3/1 44/3/1 43/3/1
f 46/3/1 44/3/1 45/3/1
f 52/1/1 48/1/1 47/1/1
f 53/1/1 48/1/1 52/1/1
f 55/3/1 50/3/1 49/3/1
f 56/3/1 50/3/1 55/3/1
f 57/3/1 52/3/1 51/3/1
f 58/3/1 52/3/1 57/3/1
f 59/3/1 54/3/1 53/3/1
f 60/3/1 54/3/1 59/3/1
f 64/1/1 62/1/1 61/1/1
f 65/1/1 62/1/1 64/1/1
f 67/3/1 64/3/1 63/3/1
f 68/3/1 64/3/1 67/3/1
f 69/3/1 66/3/1 65/3/1
f 70/3/1 66/3/1 69/3/1
f 71/1/2 72/1/2 74/1/2
f 74/1/2 72/1/2 75/1/2
f 73/3/2 74/3/2 77/3/2
f 77/3/2 74/3/2 78/3/2
f 75/3/2 76/3/2 79/3/2
f 79/3/2 76/3/2 80/3/2
f 81/3/2 82/3/2 83/3/2
f 83/3/2 82/3/2 84/3/2
f 85/1/2 86/1/2 88/1/2
f 88/1/2 86/1/2 89/1/2
f 87/3/2 88/3/2 91/3/2
f 91/3/2 88/3/2 92/3/2
f 89/3/2 90/3/2 93/3/2
f 93/3/2 90/3/2 94/3/2
f 95/3/2 96/3/2 97/3/2
f 97/3/2 96/3/2 98/3/2
f 99/1/2 100/1/2 102/1/2
f 102/1/2 100/1/2 103/1/2
f 101/3/2 102/3/2 105/3/2
f 105/3/2 102/3/2 106/3/2
f 103/3/2 104/3/2 107/3/2
f 107/3/2 104/3/2 108/3/2
f 109/3/2 110/3/2 111/3/2
f 111/3/2 110/3/2 112/3/2
f 113/1/2 114/1/2 116/1/2
f 116/1/2 114/1/2 117/1/2
f 115/3/2 116/3/2 119/3/2
f 119/3/2 116/3/2 120/3/2
f 117/3/2 118/3/2 121/3/2
f 121/3/2 118/3/2 122/3/2
f 123/1/2 124/1/2 126/1/2
f 126/1/2 124/1/2 127/1/2
f 125/3/2 126/3/2 131/3/2
f 131/3/2 126/3/2 132/3/2
f 127/3/2 128/3/2 133/3/2
f 133/3/2 128/3/2 134/3/2
f 129/3/2 130/3/2 135/3/2
f 135/3/2 130/3/2 136/3/2
f 137/3/2 138/3/2 139/3/2
f 139/3/2 138/3/2 140/3/2
f 143/3/3 142/3/3 141/3/3
f 144/3/3 142/3/3 143/3/3
f 148/3/3 146/3/3 145/3/3
f 149/3/3 146/3/3 148/3/3
f 150/1/3 148/1/3 147/1/3
f 151/1/3 148/1/3 150/1/3
f 153/3/3 152/3/3 151/3/3
f 154/3/3 152/3/3 153/3/3
f 157/3/3 156/3/3 155/3/3
f 158/3/3 156/3/3 157/3/3
f 162/3/3 160/3/3 159/3/3
f 163/3/3 160/3/3 162/3/3
f 164/1/3 162/1/3 161/1/3
f 165/1/3 162/1/3 164/1/3
f 167/3/3 166/3/3 165/3/3
f 168/3/3 166/3/3 167/3/3
f 171/3/3 170/3/3 169/3/3
f 172/3/3 170/3/3 171/3/3
f 176/3/3 174/3/3 173/3/3
f 177/3/3 174/3/3 176/3/3
f 178/1/3 176/1/3 175/1/3
f 179/1/3 176/1/3 178/1/3
f 181/3/3 180/3/3 179/3/3
f 182/3/3 180/3/3 181/3/3
f 185/3/3 184/3/3 183/3/3
f 186/3/3 184/3/3 185/3/3
f 189/3/3 188/3/3 187/3/3
f 190/3/3 188/3/3 189/3/3
f 194/3/3 192/3/3 191/3/3
f 195/3/3 192/3/3 194/3/3
f 196/1/3 194/1/3 193/1/3
f 197/1/3 194/1/3 196/1/3
f 199/3/3 198/3/3 197/3/3
f 200/3/3 198/3/3 199/3/3
f 204/3/3 202/3/3 201/3/3
f 205/3/3 202/3/3 204/3/3
f 206/1/3 204/1/3 203/1/3
f 207/1/3 204/1/3 206/1/3
f 209/3/3 208/3/3 207/3/3
f 210/3/3 208/3/3 209/3/3
f 211/3/4 212/3/4 214/3/4
f 214/3/4 212/3/4 215/3/4
f 213/1/4 214/1/4 216/1/4
f 216/1/4 214/1/4 217/1/4
f 217/3/4 218/3/4 219/3/4
f 219/3/4 218/3/4 220/3/4
f 221/3/4 222/3/4 223/3/4
f 223/3/4 222/3/4 224/3/4
f 225/3/4 226/3/4 228/3/4
f 228/3/4 226/3/4 229/3/4
f 227/1/4 228/1/4 230/1/4
f 230/1/4 228/1/4 231/1/4
f 231/3/4 232/3/4 233/3/4
f 233/3/4 232/3/4 234/3/4
f 235/3/4 236/3/4 237/3/4
f 237/3/4 236/3/4 238/3/4
f 239/3/4 240/3/4 242/3/4
f 242/3/4 240/3/4 243/3/4
f 241/1/4 242/1/4 244/1/4
f 244/1/4 242/1/4 245/1/4
f 245/3/4 246/3/4 247/3/4
f 247/3/4 246/3/4 248/3/4
f 249/3/4 250/3/4 251/3/4
f 251/3/4 250/3/4 252/3/4
f 253/3/4 254/3/4 256/3/4
f 256/3/4 254/3/4 257/3/4
f 255/1/4 256/1/4 258/1/4
f 258/1/4 256/1/4 259/1/4
f 259/3/4 260/3/4 261/3/4
f 261/3/4 260/3/4 262/3/4
f 263/3/4 264/3/4 266/3/4
f 266/3/4 264/3/4 267/3/4
f 265/1/4 266/1/4 268/1/4
f 268/1/4 266/1/4 269/1/4
f 269/3/4 270/3/4 271/3/4
f 271/3/4 270/3/4 272/3/4
f 273/3/4 274/3/4 275/3/4
f 275/3/4 274/3/4 276/3/4
f 277/3/4 278/3/4 279/3/4
f 279/3/4 278/3/4 280/3/4
f 283/1/5 282/1/5 281/1/5
f 284/1/5 282/1/5 283/1/5
f 287/1/5 286/1/5 285/1/5
f 288/1/5 286/1/5 287/1/5
f 291/1/5 290/1/5 289/1/5
f 292/1/5 290/1/5 291/1/5
f 297/1/5 294/1/5 293/1/5
f 298/1/5 294/1/5 297/1/5
f 299/1/5 296/1/5 295/1/5
f 300/1/5 296/1/5 299/1/5
f 304/3/5 302/3/5 301/3/5
f 305/3/5 302/3/5 304/3/5
f 309/3/5 304/3/5 303/3/5
f 310/3/5 304/3/5 309/3/5
f 311/3/5 306/3/5 305/3/5
f 312/3/5 306/3/5 311/3/5
f 314/3/5 308/3/5 307/3/5
f 315/3/5 308/3/5 314/3/5
f 317/3/5 311/3/5 310/3/5
f 318/3/5 311/3/5 317/3/5
f 319/3/5 314/3/5 313/3/5
f 320/3/5 314/3/5 319/3/5
f 321/3/5 316/3/5 315/3/5
f 322/3/5 316/3/5 321/3/5
f 325/3/5 321/3/5 320/3/5
f 326/3/5 321/3/5 325/3/5
f 328/3/5 324/3/5 323/3/5
f 329/3/5 324/3/5 328/3/5
f 331/3/5 328/3/5 327/3/5
f 332/3/5 328/3/5 331/3/5
f 333/3/5 330/3/5 329/3/5
f 334/3/5 330/3/5 333/3/5
f 337/3/5 333/3/5 332/3/5
f 338/3/5 333/3/5 337/3/5
f 342/3/5 336/3/5 335/3/5
f 343/3/5 336/3/5 342/3/5
f 346/3/5 340/3/5 339/3/5
f 347/3/5 340/3/5 346/3/5
f 349/3/5 342/3/5 341/3/5
f 350/3/5 342/3/5 349/3/5
f 351/3/5 344/3/5 343/3/5
f 352/3/5 344/3/5 351/3/5
f 353/3/5 346/3/5 345/3/5
f 354/3/5 346/3/5 353/3/5
f 355/3/5 348/3/5 347/3/5
f 356/3/5 348/3/5 355/3/5
f 357/3/5 351/3/5 350/3/5
f 358/3/5 351/3/5 357/3/5
f 359/3/5 355/3/5 354/3/5
f 360/3/5 355/3/5 359/3/5
f 361/3/6 362/3/6 364/3/6
f 364/3/6 362/3/6 365/3/6
f 363/3/6 364/3/6 369/3/6
f 364/2/6 365/2/6 370/2/6
f 369/3/6 364/3/6 370/3/6
f 365/3/6 366/3/6 371/3/6
f 370/2/6 365/2/6 371/2/6
f 371/3/6 366/3/6 372/3/6
f 367/3/6 368/3/6 374/3/6
f 374/3/6 368/3/6 375/3/6
f 370/3/6 371/3/6 377/3/6
f 377/3/6 371/3/6 378/3/6
f 373/3/6 374/3/6 379/3/6
f 374/2/6 375/2/6 380/2/6
f 379/3/6 374/3/6 380/3/6
f 375/3/6 376/3/6 381/3/6
f 380/2/6 375/2/6 381/2/6
f 381/3/6 376/3/6 382/3/6
f 380/3/6 381/3/6 385/3/6
f 385/3/6 381/3/6 386/3/6
f 383/3/6 384/3/6 388/3/6
f 388/3/6 384/3/6 389/3/6
f 387/3/6 388/3/6 391/3/6
f 388/2/6 389/2/6 392/2/6
f 391/3/6 388/3/6 392/3/6
f 389/3/6 390/3/6 393/3/6
f 392/2/6 389/2/6 393/2/6
f 393/3/6 390/3/6 394/3/6
f 392/3/6 393/3/6 397/3/6
f 397/3/6 393/3/6 398/3/6
f 395/3/6 396/3/6 402/3/6
f 402/3/6 396/3/6 403/3/6
f 399/3/6 400/3/6 406/3/6
f 406/3/6 400/3/6 407/3/6
f 401/3/6 402/3/6 409/3/6
f 402/2/6 403/2/6 410/2/6
f 409/3/6 402/3/6 410/3/6
f 403/3/6 404/3/6 411/3/6
f 410/2/6 403/2/6 411/2/6
f 411/3/6 404/3/6 412/3/6
f 405/3/6 406/3/6 413/3/6
f 406/2/6 407/2/6 414/2/6
f 413/3/6 406/3/6 414/3/6
f 407/3/6 408/3/6 415/3/6
f 414/2/6 407/2/6 415/2/6
f 415/3/6 408/3/6 416/3/6
f 410/3/6 411/3/6 417/3/6
f 417/3/6 411/3/6 418/3/6
f 414/3/6 415/3/6 419/3/6
f 419/3/6 415/3/6 420/3/6
